<?xml version="1.0" encoding="UTF-8"?>
<svg version="1.1" xmlns="http://www.w3.org/2000/svg" width="348" height="350">
<path d="M0 0 C114.84 0 229.68 0 348 0 C348 115.5 348 231 348 350 C233.16 350 118.32 350 0 350 C0 234.5 0 119 0 0 Z " fill="#FBFBFB" transform="translate(0,0)"/>
<path d="M0 0 C114.84 0 229.68 0 348 0 C348 115.5 348 231 348 350 C233.16 350 118.32 350 0 350 C0 234.5 0 119 0 0 Z M69 55 C67.68128906 56.13308594 67.68128906 56.13308594 66.3359375 57.2890625 C61.11757438 61.87680772 56.36913947 66.59899993 52 72 C51.22914062 72.94488281 50.45828125 73.88976562 49.6640625 74.86328125 C39.31374537 87.78808365 31.60878479 101.85253739 25 117 C24.60039062 117.90621094 24.20078125 118.81242187 23.7890625 119.74609375 C18.24630231 133.60299423 14.8875368 150.07070367 14.796875 164.9609375 C14.79117493 165.70977203 14.78547485 166.45860657 14.77960205 167.23013306 C14.77020255 168.81177381 14.7636383 170.39343371 14.75976562 171.97509766 C14.7501667 174.33403264 14.71914086 176.69205403 14.6875 179.05078125 C14.61435093 189.68662833 15.84230103 199.59791749 18 210 C18.21253418 211.13646973 18.42506836 212.27293945 18.64404297 213.44384766 C23.4113651 238.6082839 37.64673433 263.24976167 54.98046875 281.828125 C56.75084138 283.73204605 58.41385768 285.67891151 60.0625 287.6875 C63.36829199 291.55024607 67.07297664 294.78166132 71 298 C71.90234375 298.75152344 72.8046875 299.50304687 73.734375 300.27734375 C107.27172071 327.21787654 148.78516675 338.28011396 191.39746094 334.71582031 C224.70811727 330.98350586 255.10450034 317.30084996 280 295 C280.89460938 294.23816406 281.78921875 293.47632813 282.7109375 292.69140625 C288.9112171 287.34008801 294.00012098 281.47250653 299 275 C299.74121094 274.07445312 300.48242188 273.14890625 301.24609375 272.1953125 C309.87076034 261.16410983 316.61434064 248.9142043 322 236 C322.40734375 235.09121094 322.8146875 234.18242187 323.234375 233.24609375 C330.78589149 215.36950995 333.18969317 195.91504343 333.24023438 176.67358398 C333.24987448 174.46624083 333.28095206 172.25985767 333.3125 170.05273438 C333.38664159 160.01019233 332.17380337 150.80910667 330 141 C329.71644842 139.6479313 329.43397671 138.29563569 329.15258789 136.94311523 C323.27212371 109.4867941 308.10060554 85.16175029 289 65 C287.66195312 63.56527344 287.66195312 63.56527344 286.296875 62.1015625 C269.84701385 44.81313579 249.42619583 32.9754037 227.15625 24.79589844 C225.38603595 24.14249063 223.62850139 23.4548293 221.875 22.7578125 C170.26189555 3.40289833 109.55790319 20.15112717 69 55 Z " fill="#030303" transform="translate(0,0)"/>
<path d="M0 0 C0.8185672 -0.00382555 1.63713439 -0.00765109 2.48050666 -0.01159257 C5.22720215 -0.02192264 7.97368861 -0.01793037 10.72039795 -0.01396179 C12.68828017 -0.01830835 14.6561607 -0.02349131 16.6240387 -0.02944946 C21.97336095 -0.04285909 27.32261264 -0.04341577 32.67194843 -0.04088616 C37.13753573 -0.03981743 41.60310869 -0.0446975 46.06869292 -0.04949158 C56.60608854 -0.06059431 67.14344852 -0.06102036 77.68084717 -0.05497742 C88.54851033 -0.04894078 99.41604392 -0.06123904 110.28368497 -0.08254749 C119.61460738 -0.10016962 128.94548859 -0.10616373 138.27642703 -0.10290974 C143.84902641 -0.10109717 149.42153343 -0.10373024 154.99411774 -0.11762428 C160.23737991 -0.13020731 165.48044047 -0.1282539 170.72369957 -0.11521339 C172.64573675 -0.11284883 174.56778814 -0.115578 176.48980904 -0.12383652 C179.11884585 -0.13431617 181.74720778 -0.12619352 184.3762207 -0.11352539 C185.1322701 -0.12089968 185.8883195 -0.12827396 186.66727948 -0.13587171 C193.1202123 -0.07070668 198.53778021 1.3481871 203.69207764 5.44819641 C209.87228568 13.17345646 210.52315169 19.33590851 210.44378662 28.97554016 C210.4518911 30.85996323 210.4518911 30.85996323 210.4601593 32.78245544 C210.47048379 36.20838307 210.46299133 39.63333615 210.44644809 43.0591774 C210.43252972 46.65622031 210.43906536 50.25323585 210.44258118 53.85029602 C210.44527797 59.88919665 210.43185365 65.92789792 210.40863037 71.9667511 C210.38202387 78.93326738 210.38027546 85.89945049 210.39201874 92.86600018 C210.40282469 99.58721842 210.39658742 106.30831699 210.38246346 113.02952576 C210.37672801 115.88101556 210.37676698 118.73241707 210.38152885 121.58390808 C210.38721873 125.57140511 210.36791434 129.5584111 210.34613037 133.54585266 C210.35288284 135.30725082 210.35288284 135.30725082 210.35977173 137.10423279 C210.28975192 144.83303825 209.72971729 150.95954419 204.56707764 157.07319641 C198.05697365 162.49828307 193.23465164 163.40988104 184.92211914 163.40786743 C184.1076355 163.41154412 183.29315185 163.41522081 182.45398688 163.41900891 C179.72116961 163.4300336 176.98839037 163.43388752 174.2555542 163.43769836 C172.29752482 163.44396388 170.33949662 163.45061076 168.38146973 163.45761108 C161.94855577 163.4786415 155.5156416 163.48901177 149.08270264 163.49897766 C146.86769346 163.50302544 144.6526844 163.50714237 142.43767548 163.51132774 C132.0323307 163.5303763 121.62699301 163.54460866 111.22163415 163.55293971 C99.21144345 163.56271459 87.20143692 163.58904215 75.19131112 163.62944061 C65.90710425 163.65959814 56.62295019 163.67440821 47.33869529 163.67772073 C41.79399427 163.6800714 36.24949009 163.68903453 30.70484161 163.7141819 C25.48781649 163.73746148 20.27111786 163.7416962 15.05405426 163.73142052 C13.14168207 163.73092504 11.22929381 163.73724897 9.31697083 163.75097656 C6.70091431 163.76870189 4.08602872 163.76158652 1.4699707 163.7484436 C0.71781225 163.75941285 -0.03434619 163.7703821 -0.80929732 163.78168374 C-7.13828545 163.70520824 -12.27302769 161.66387772 -17.08135986 157.51460266 C-17.52737549 156.9564386 -17.97339111 156.39827454 -18.43292236 155.82319641 C-18.89440674 155.26761047 -19.35589111 154.71202454 -19.83135986 154.13960266 C-22.46624983 150.10335401 -23.30848359 146.52522933 -23.3253479 141.73999023 C-23.33387787 140.64242401 -23.34240784 139.54485779 -23.35119629 138.41403198 C-23.35028992 137.21962997 -23.34938354 136.02522797 -23.34844971 134.79463196 C-23.35516693 133.52903442 -23.36188416 132.26343689 -23.36880493 130.95948792 C-23.3864413 127.49446189 -23.39115934 124.02953471 -23.3924365 120.56446815 C-23.39386016 118.3969602 -23.39813385 116.22947721 -23.40343094 114.06197548 C-23.42192438 106.49253881 -23.43010254 98.9231725 -23.42852783 91.35371399 C-23.42732706 84.31054709 -23.44841834 77.26768694 -23.48001516 70.22459763 C-23.50621506 64.16750711 -23.51689356 58.11051654 -23.51561701 52.05336982 C-23.51510841 48.44026225 -23.52073481 44.82742732 -23.54197311 41.21437645 C-23.56503547 37.18102115 -23.55581204 33.14834774 -23.54376221 29.11494446 C-23.55500122 27.92661514 -23.56624023 26.73828583 -23.57781982 25.51394653 C-23.51902688 17.76252389 -22.55715122 12.23569761 -17.27667236 6.23725891 C-16.70948486 5.79124329 -16.14229736 5.34522766 -15.55792236 4.88569641 C-14.99073486 4.42421204 -14.42354736 3.96272766 -13.83917236 3.48725891 C-9.24870497 0.32627917 -5.5186951 -0.02726496 0 0 Z " fill="#050505" transform="translate(83.05792236328125,93.73930358886719)"/>
<path d="M0 0 C114.84 0 229.68 0 348 0 C348 52.8 348 105.6 348 160 C347.67 160 347.34 160 347 160 C346.85304688 158.81148437 346.70609375 157.62296875 346.5546875 156.3984375 C340.43615487 110.03860442 318.08684497 67.22543904 280.75 38.375 C254.54706766 18.59854776 225.43460245 7.40867788 193 3 C192.30535645 2.8961499 191.61071289 2.7922998 190.89501953 2.68530273 C176.54191549 0.64751636 161.22472082 1.44193569 147 4 C146.14857422 4.15065918 145.29714844 4.30131836 144.41992188 4.45654297 C109.22007707 10.89418149 79.25166937 26.93873541 53 51 C52.23171875 51.69609375 51.4634375 52.3921875 50.671875 53.109375 C21.04851039 81.28769744 6.12830425 121.3008918 1 161 C0.67 161 0.34 161 0 161 C0 107.87 0 54.74 0 0 Z " fill="#F3F3F3" transform="translate(0,0)"/>
<path d="M0 0 C60.06 0 120.12 0 182 0 C179.525 2.475 179.525 2.475 177 5 C176.28199219 5.72960937 175.56398438 6.45921875 174.82421875 7.2109375 C170.81789313 11.26853237 166.74814367 15.15134273 162.421875 18.86328125 C159.09300012 21.80020796 155.86291867 24.83847531 152.625 27.875 C147.61366538 32.57185691 142.56935852 37.2222761 137.44921875 41.80078125 C134.65770517 44.30735565 131.88892475 46.83811351 129.125 49.375 C128.62347412 49.83527588 128.12194824 50.29555176 127.60522461 50.76977539 C126.06982421 52.17949633 124.53483507 53.58966359 123 55 C119.96530717 57.7885327 116.92960466 60.57587582 113.88671875 63.35546875 C112.00610127 65.07830777 110.13326748 66.80969433 108.26953125 68.55078125 C97.70809961 78.31331489 97.70809961 78.31331489 90.625 79.625 C82.10028392 78.15522137 75.56165881 71.02564483 69.5625 65.1875 C68.06975759 63.75833376 66.57627293 62.32994238 65.08203125 60.90234375 C64.3751416 60.22413574 63.66825195 59.54592773 62.93994141 58.84716797 C59.8398821 55.89536219 56.64847467 53.05068151 53.453125 50.203125 C50.44117929 47.49812917 47.47012077 44.75074659 44.5 42 C40.69024144 38.47293657 36.86662305 34.96489598 33 31.5 C29.1779529 28.0737636 25.39374295 24.60956086 21.625 21.125 C21.08182129 20.62307129 20.53864258 20.12114258 19.97900391 19.60400391 C17.75131225 17.54498692 15.52403549 15.48553001 13.29882812 13.42382812 C11.65932066 11.90562526 10.01739125 10.39008193 8.375 8.875 C7.41335937 7.98554687 6.45171875 7.09609375 5.4609375 6.1796875 C3.00604016 3.90548919 3.00604016 3.90548919 0 2 C0 1.34 0 0.68 0 0 Z " fill="#FFFFFF" transform="translate(86,109)"/>
<path d="M0 0 C0.33 0 0.66 0 1 0 C1 54.78 1 109.56 1 166 C-52.79 166 -106.58 166 -162 166 C-162 165.67 -162 165.34 -162 165 C-161.45287354 164.93006836 -160.90574707 164.86013672 -160.34204102 164.78808594 C-119.19769155 159.44365963 -83.90431029 145.23805607 -53 117 C-52.18015625 116.25234375 -51.3603125 115.5046875 -50.515625 114.734375 C-43.9331502 108.43200551 -38.41228235 101.30541137 -33 94 C-32.58105469 93.44135254 -32.16210938 92.88270508 -31.73046875 92.30712891 C-18.88708443 74.95327034 -10.28828312 54.83573784 -5 34 C-4.68675781 32.88238281 -4.37351562 31.76476562 -4.05078125 30.61328125 C-1.42513737 20.61021848 -0.81190855 10.27785849 0 0 Z " fill="#F2F2F2" transform="translate(347,184)"/>
<path d="M0 0 C0.33 0 0.66 0 1 0 C1.14695313 1.11632812 1.29390625 2.23265625 1.4453125 3.3828125 C8.00183227 50.21654539 30.32625714 93.42035134 68.34375 122.30859375 C96.45315341 143.21979105 128.16016623 154.9041527 163 158 C163 158.33 163 158.66 163 159 C109.21 159 55.42 159 0 159 C0 106.53 0 54.06 0 0 Z " fill="#FAFAFA" transform="translate(0,191)"/>
<path d="M0 0 C3.9516498 2.89445518 7.79541666 5.77608194 11.375 9.125 C17.75167774 14.60721163 24.93211142 16.66588581 33.26171875 16.32421875 C45.66650387 14.85546388 53.09115371 8.2398025 62 0 C66.82029412 3.41802674 71.12988831 6.99299018 75.2421875 11.234375 C76.97461589 12.97450307 78.76541033 14.58467375 80.625 16.1875 C84.23575634 19.30334572 87.75132442 22.50978143 91.25 25.75 C91.80695557 26.26578613 92.36391113 26.78157227 92.93774414 27.31298828 C94.07102505 28.36272657 95.20424439 29.41253133 96.33740234 30.46240234 C98.90513311 32.83708198 101.48333681 35.20025192 104.0625 37.5625 C105.51076172 38.89087891 105.51076172 38.89087891 106.98828125 40.24609375 C109.12534754 42.20347953 111.26997582 44.15226983 113.41796875 46.09765625 C113.97540771 46.60417725 114.53284668 47.11069824 115.10717773 47.63256836 C116.1840812 48.61088771 117.26295452 49.58704404 118.34399414 50.56079102 C119.58149884 51.68683504 120.79361755 52.84067502 122 54 C122 54.33 122 54.66 122 55 C62.27 55 2.54 55 -59 55 C-55.14190432 50.49888837 -51.92296535 46.94457515 -47.52734375 43.20703125 C-44.15125525 40.25882414 -40.89264579 37.19239557 -37.625 34.125 C-32.64348666 29.45525152 -27.62793879 24.83380176 -22.53515625 20.28515625 C-19.4339009 17.48972577 -16.37368562 14.65164647 -13.3125 11.8125 C-8.95515468 7.77386119 -4.55656174 3.81479588 0 0 Z " fill="#EEEEEE" transform="translate(145,187)"/>
<path d="M0 0 C7.86903925 6.74489079 15.62328357 13.55007489 23.22119141 20.59619141 C26.11276689 23.27326578 29.01845764 25.92273457 32 28.5 C35.57352691 31.58898089 39.0369453 34.78858936 42.5 38 C50.86591567 45.97492038 50.86591567 45.97492038 60 53 C58.54068493 56.46395315 56.71176736 58.3748033 53.875 60.8125 C49.27063945 64.85373732 44.77279299 68.98774442 40.3125 73.1875 C38.9271269 74.48962969 37.54170982 75.79171258 36.15625 77.09375 C35.4653125 77.7434375 34.774375 78.393125 34.0625 79.0625 C28.39007611 84.39114063 22.69611969 89.69671615 17 95 C16.38898438 95.56976563 15.77796875 96.13953125 15.1484375 96.7265625 C13.37172758 98.38230494 11.59250859 100.03530511 9.8125 101.6875 C9.28374268 102.18080811 8.75498535 102.67411621 8.21020508 103.18237305 C5.55679226 105.63926869 2.90376115 107.82217914 0 110 C0 73.7 0 37.4 0 0 Z " fill="#FEFEFE" transform="translate(75,122)"/>
<path d="M0 0 C0 35.64 0 71.28 0 108 C-3.89135165 106.05432417 -5.78237226 104.39826579 -8.75 101.3125 C-12.4148514 97.566925 -16.15774778 94.04938216 -20.13671875 90.64453125 C-22.58305931 88.48539209 -24.84425414 86.16832989 -27.12841797 83.84033203 C-28.92158927 82.0771015 -30.7679496 80.43061259 -32.67578125 78.79296875 C-37.90168717 74.25021923 -42.89528731 69.47210101 -47.90820312 64.69726562 C-51.49409069 61.29891771 -55.06721178 58.00195077 -59 55 C-58.42561229 51.49570804 -57.28002465 49.95402496 -54.68359375 47.57421875 C-54.00103516 46.94193359 -53.31847656 46.30964844 -52.61523438 45.65820312 C-51.89658203 45.00787109 -51.17792969 44.35753906 -50.4375 43.6875 C-49.74591797 43.04876953 -49.05433594 42.41003906 -48.34179688 41.75195312 C-44.23595006 37.9751863 -40.0576153 34.28686548 -35.85083008 30.62329102 C-33.23695796 28.33076553 -30.68061647 25.98239691 -28.125 23.625 C-23.596958 19.45816932 -19.04668747 15.31827374 -14.4609375 11.21484375 C-12.70574898 9.63517408 -10.9621699 8.04256519 -9.2265625 6.44140625 C-8.32679688 5.61511719 -7.42703125 4.78882812 -6.5 3.9375 C-5.6853125 3.18339844 -4.870625 2.42929688 -4.03125 1.65234375 C-2 0 -2 0 0 0 Z " fill="#FDFDFD" transform="translate(278,123)"/>
<path d="M0 0 C3.9516498 2.89445518 7.79541666 5.77608194 11.375 9.125 C17.75167774 14.60721163 24.93211142 16.66588581 33.26171875 16.32421875 C45.66650387 14.85546388 53.09115371 8.2398025 62 0 C66.82029412 3.41802674 71.12988831 6.99299018 75.2421875 11.234375 C76.97461589 12.97450307 78.76541033 14.58467375 80.625 16.1875 C84.23575634 19.30334572 87.75132442 22.50978143 91.25 25.75 C91.80695557 26.26578613 92.36391113 26.78157227 92.93774414 27.31298828 C94.07102505 28.36272657 95.20424439 29.41253133 96.33740234 30.46240234 C98.90513174 32.83708072 101.48312583 35.20048404 104.0625 37.5625 C105.51076172 38.88894531 105.51076172 38.88894531 106.98828125 40.2421875 C107.71845459 40.91072754 107.71845459 40.91072754 108.46337891 41.59277344 C111.22656564 44.12328 113.98816912 46.65551386 116.75 49.1875 C117.76561854 50.11849663 118.78124292 51.04948689 119.796875 51.98046875 C120.52390625 52.64691406 121.2509375 53.31335938 122 54 C118.69687244 55.03647521 116.0113553 54.98440578 112.578125 54.66015625 C111.55332031 54.56669922 110.52851563 54.47324219 109.47265625 54.37695312 C108.40917969 54.27318359 107.34570312 54.16941406 106.25 54.0625 C105.17105469 53.96259766 104.09210938 53.86269531 102.98046875 53.75976562 C100.31974626 53.51253035 97.65979161 53.25705654 95 53 C95 48.05 95 43.1 95 38 C90.05 38 85.1 38 80 38 C80 42.95 80 47.9 80 53 C75.05 53 70.1 53 65 53 C65 48.05 65 43.1 65 38 C60.05 38 55.1 38 50 38 C50 42.95 50 47.9 50 53 C45.05 53 40.1 53 35 53 C35 48.05 35 43.1 35 38 C30.05 38 25.1 38 20 38 C20 33.05 20 28.1 20 23 C15.05 23 10.1 23 5 23 C5 18.05 5 13.1 5 8 C-2.63911191 7.86792344 -2.63911191 7.86792344 -9 11 C-9.46396693 13.89223503 -9.46396693 13.89223503 -9.625 17.125 C-9.74875 19.06375 -9.8725 21.0025 -10 23 C-13.96 23 -17.92 23 -22 23 C-22 20 -22 20 -20.62646484 18.36181641 C-19.99434082 17.78093262 -19.3622168 17.20004883 -18.7109375 16.6015625 C-18.01613281 15.95703125 -17.32132812 15.3125 -16.60546875 14.6484375 C-15.86941406 13.98070312 -15.13335937 13.31296875 -14.375 12.625 C-13.66214844 11.965 -12.94929687 11.305 -12.21484375 10.625 C-8.23733537 6.96131339 -4.18748068 3.42131702 0 0 Z " fill="#EDEDED" transform="translate(145,187)"/>
<path d="M0 0 C6.27 0 12.54 0 19 0 C19 3.63 19 7.26 19 11 C23.95 11 28.9 11 34 11 C34 15.95 34 20.9 34 26 C38.95 26 43.9 26 49 26 C49 30.95 49 35.9 49 41 C53.95 41 58.9 41 64 41 C64 45.95 64 50.9 64 56 C68.95 56 73.9 56 79 56 C79 60.95 79 65.9 79 71 C83.95 71 88.9 71 94 71 C94 66.05 94 61.1 94 56 C98.95 56 103.9 56 109 56 C109 51.05 109 46.1 109 41 C113.95 41 118.9 41 124 41 C124 36.05 124 31.1 124 26 C128.95 26 133.9 26 139 26 C139 21.05 139 16.1 139 11 C143.95 11 148.9 11 154 11 C154 7.7 154 4.4 154 1 C163.35927791 0.27507668 172.60644064 -0.14256667 182 0 C180.89388002 1.10611998 179.7873709 2.2118519 178.6796875 3.31640625 C177.42982266 4.56917776 176.18597249 5.82795574 174.9453125 7.08984375 C170.89730107 11.18687954 166.79174281 15.11393467 162.421875 18.86328125 C159.09300012 21.80020796 155.86291867 24.83847531 152.625 27.875 C147.61366538 32.57185691 142.56935852 37.2222761 137.44921875 41.80078125 C134.65770517 44.30735565 131.88892475 46.83811351 129.125 49.375 C128.62347412 49.83527588 128.12194824 50.29555176 127.60522461 50.76977539 C126.06982421 52.17949633 124.53483507 53.58966359 123 55 C119.96530717 57.7885327 116.92960466 60.57587582 113.88671875 63.35546875 C112.00610127 65.07830777 110.13326748 66.80969433 108.26953125 68.55078125 C97.70809961 78.31331489 97.70809961 78.31331489 90.625 79.625 C82.10028392 78.15522137 75.56165881 71.02564483 69.5625 65.1875 C68.06975759 63.75833376 66.57627293 62.32994238 65.08203125 60.90234375 C64.3751416 60.22413574 63.66825195 59.54592773 62.93994141 58.84716797 C59.8398821 55.89536219 56.64847467 53.05068151 53.453125 50.203125 C50.44117929 47.49812917 47.47012077 44.75074659 44.5 42 C40.69024144 38.47293657 36.86662305 34.96489598 33 31.5 C29.1779529 28.0737636 25.39374295 24.60956086 21.625 21.125 C21.08182129 20.62307129 20.53864258 20.12114258 19.97900391 19.60400391 C17.75131225 17.54498692 15.52403549 15.48553001 13.29882812 13.42382812 C11.65932066 11.90562526 10.01739125 10.39008193 8.375 8.875 C7.41335937 7.98554687 6.45171875 7.09609375 5.4609375 6.1796875 C3.00604016 3.90548919 3.00604016 3.90548919 0 2 C0 1.34 0 0.68 0 0 Z " fill="#EEEEEE" transform="translate(86,109)"/>
<path d="M0 0 C4.98749299 -0.68975967 8.18786231 -1.11213849 13 0 C16.64061341 3.28286527 19.09502098 7.05357985 21.74658203 11.14794922 C23.8073443 14.19293218 26.16882908 16.96380182 28.5625 19.75 C29.02760986 20.29406494 29.49271973 20.83812988 29.97192383 21.39868164 C59.73741965 55.91995262 103.11354116 75.01141546 148 79 C148 79.33 148 79.66 148 80 C133.81 80 119.62 80 105 80 C105 78.35 105 76.7 105 75 C90.15 75 75.3 75 60 75 C60 70.05 60 65.1 60 60 C55.05 60 50.1 60 45 60 C45 55.05 45 50.1 45 45 C40.05 45 35.1 45 30 45 C30 40.05 30 35.1 30 30 C25.05 30 20.1 30 15 30 C15 25.05 15 20.1 15 15 C10.05 15 5.1 15 0 15 C0 10.05 0 5.1 0 0 Z " fill="#F1F1F1" transform="translate(15,270)"/>
<path d="M0 0 C4.95 0 9.9 0 15 0 C15 4.95 15 9.9 15 15 C19.95 15 24.9 15 30 15 C30 10.05 30 5.1 30 0 C34.95 0 39.9 0 45 0 C45 4.95 45 9.9 45 15 C49.95 15 54.9 15 60 15 C60 10.05 60 5.1 60 0 C64.95 0 69.9 0 75 0 C75 4.95 75 9.9 75 15 C89.85 15 104.7 15 120 15 C120 16.65 120 18.3 120 20 C80.4 20 40.8 20 0 20 C0 13.4 0 6.8 0 0 Z " fill="#FFFFFF" transform="translate(0,330)"/>
<path d="M0 0 C4.95 0 9.9 0 15 0 C15 4.95 15 9.9 15 15 C19.95 15 24.9 15 30 15 C30 10.05 30 5.1 30 0 C34.95 0 39.9 0 45 0 C45 4.95 45 9.9 45 15 C49.95 15 54.9 15 60 15 C60 10.05 60 5.1 60 0 C64.95 0 69.9 0 75 0 C75 4.95 75 9.9 75 15 C79.95 15 84.9 15 90 15 C90 10.05 90 5.1 90 0 C94.95 0 99.9 0 105 0 C105 4.95 105 9.9 105 15 C107.31 14.979375 109.62 14.95875 112 14.9375 C117.41686178 14.91350828 122.64920221 15.12640036 128 16 C128 16.33 128 16.66 128 17 C70.25 17 12.5 17 -47 17 C-45 15 -45 15 -43.05111694 14.75949097 C-42.256138 14.76393219 -41.46115906 14.76837341 -40.64208984 14.77294922 C-39.29091568 14.77317581 -39.29091568 14.77317581 -37.91244507 14.77340698 C-36.93844757 14.78372955 -35.96445007 14.79405212 -34.9609375 14.8046875 C-33.96494537 14.8075174 -32.96895325 14.81034729 -31.94277954 14.81326294 C-28.75339882 14.8244816 -25.56429622 14.84958919 -22.375 14.875 C-20.21614988 14.88502762 -18.05729537 14.89415385 -15.8984375 14.90234375 C-10.59885074 14.92442644 -5.29947256 14.95896775 0 15 C0 10.05 0 5.1 0 0 Z " fill="#FEFEFE" transform="translate(135,225)"/>
<path d="M0 0 C2.64 0 5.28 0 8 0 C8 4.95 8 9.9 8 15 C11.3 15 14.6 15 18 15 C18 20.49259514 16.69065582 22.53430844 13.5625 26.6875 C13.11165039 27.30181885 12.66080078 27.9161377 12.19628906 28.54907227 C8.72266865 33.21074864 4.98628843 37.57653937 1.01953125 41.828125 C-0.75084138 43.73204605 -2.41385768 45.67891151 -4.0625 47.6875 C-9.18441087 53.67234151 -15.44199797 58.41933757 -21.625 63.25 C-22.16326416 63.67450439 -22.70152832 64.09900879 -23.25610352 64.53637695 C-31.64533422 71 -31.64533422 71 -37 71 C-37 67.37 -37 63.74 -37 60 C-32.05 60 -27.1 60 -22 60 C-22 55.05 -22 50.1 -22 45 C-17.05 45 -12.1 45 -7 45 C-7 40.05 -7 35.1 -7 30 C-11.95 30 -16.9 30 -22 30 C-22 26.04 -22 22.08 -22 18 C-21.0925 17.87625 -20.185 17.7525 -19.25 17.625 C-15.29182432 16.86381237 -12.77514393 15.479851 -9.375 13.375 C-7 12 -7 12 -5 12 C-2.91620491 8.15299368 -1.50313376 4.09945571 0 0 Z " fill="#ECECEC" transform="translate(292,240)"/>
<path d="M0 0 C17.36624126 2.89437354 33.66687402 18.0301042 46 30 C46.48629883 30.46583496 46.97259766 30.93166992 47.47363281 31.41162109 C53.52123608 37.21643737 59.07812099 43.19672014 64 50 C63.34 50.66 62.68 51.32 62 52 C61.67 54.31 61.34 56.62 61 59 C56.05 59 51.1 59 46 59 C46 54.05 46 49.1 46 44 C41.05 44 36.1 44 31 44 C31 39.05 31 34.1 31 29 C26.05 29 21.1 29 16 29 C16 24.05 16 19.1 16 14 C11.05 14 6.1 14 1 14 C0.67 9.38 0.34 4.76 0 0 Z " fill="#FDFDFD" transform="translate(239,31)"/>
<path d="M0 0 C0.86625 0.598125 1.7325 1.19625 2.625 1.8125 C4.72537712 3.2291478 6.59999047 4.26808085 8.9375 5.3125 C12.32607704 7.1796751 14.48203441 9.31536268 17.1328125 12.08984375 C21.07852775 16.12635998 25.30320173 19.86880115 30 23 C28.54068493 26.46395315 26.71176736 28.3748033 23.875 30.8125 C19.27063945 34.85373732 14.77279299 38.98774442 10.3125 43.1875 C8.9271269 44.48962969 7.54170982 45.79171258 6.15625 47.09375 C5.4653125 47.7434375 4.774375 48.393125 4.0625 49.0625 C-1.60992389 54.39114063 -7.30388031 59.69671615 -13 65 C-13.61101562 65.56976563 -14.22203125 66.13953125 -14.8515625 66.7265625 C-16.62827242 68.38230494 -18.40749141 70.03530511 -20.1875 71.6875 C-20.71625732 72.18080811 -21.24501465 72.67411621 -21.78979492 73.18237305 C-24.44320774 75.63926869 -27.09623885 77.82217914 -30 80 C-29.67 72.74 -29.34 65.48 -29 58 C-24.38 58 -19.76 58 -15 58 C-15 53.05 -15 48.1 -15 43 C-10.05 43 -5.1 43 0 43 C0 38.05 0 33.1 0 28 C4.95 28 9.9 28 15 28 C15 23.05 15 18.1 15 13 C10.05 13 5.1 13 0 13 C0 8.71 0 4.42 0 0 Z " fill="#ECECEC" transform="translate(105,152)"/>
<path d="M0 0 C5.94 0 11.88 0 18 0 C18 39.6 18 79.2 18 120 C17.01 120 16.02 120 15 120 C15 105.15 15 90.3 15 75 C10.05 75 5.1 75 0 75 C0 70.05 0 65.1 0 60 C4.95 60 9.9 60 15 60 C15 55.05 15 50.1 15 45 C10.05 45 5.1 45 0 45 C0 40.05 0 35.1 0 30 C4.95 30 9.9 30 15 30 C15 25.05 15 20.1 15 15 C10.05 15 5.1 15 0 15 C0 10.05 0 5.1 0 0 Z " fill="#FFFFFF" transform="translate(330,0)"/>
<path d="M0 0 C4.62 0 9.24 0 14 0 C14 4.95 14 9.9 14 15 C9.05 15 4.1 15 -1 15 C-1 19.95 -1 24.9 -1 30 C3.95 30 8.9 30 14 30 C14 34.95 14 39.9 14 45 C9.05 45 4.1 45 -1 45 C-1 49.95 -1 54.9 -1 60 C-11.83984375 60.09765625 -11.83984375 60.09765625 -15 60 C-15.33 59.67 -15.66 59.34 -16 59 C-15.87721342 38.31046164 -9.74633314 18.10033297 0 0 Z " fill="#EDEDED" transform="translate(31,105)"/>
<path d="M0 0 C4.95 0 9.9 0 15 0 C15 4.95 15 9.9 15 15 C19.95 15 24.9 15 30 15 C30 19.95 30 24.9 30 30 C25.05 30 20.1 30 15 30 C15 34.29 15 38.58 15 43 C10.79625668 43 9.1183051 40.64332811 6.25 37.875 C5.68796875 37.34455078 5.1259375 36.81410156 4.546875 36.26757812 C3.33383659 35.1223741 2.12365709 33.97413598 0.91601562 32.82324219 C-1.71881297 30.31599194 -4.3719052 27.82858575 -7.02832031 25.34423828 C-8.31645424 24.13936412 -9.60236367 22.93210613 -10.88574219 21.72216797 C-14.1503142 18.65842464 -17.45310354 15.74078363 -21 13 C-20.52797514 8.75177626 -18.03344482 6.80010291 -15 4 C-14.34 4.33 -13.68 4.66 -13 5 C-13.99 6.485 -13.99 6.485 -15 8 C-15 10.31 -15 12.62 -15 15 C-10.05 15 -5.1 15 0 15 C0 10.05 0 5.1 0 0 Z " fill="#F5F5F5" transform="translate(240,165)"/>
<path d="M0 0 C0.66 0.33 1.32 0.66 2 1 C2 4.96 2 8.92 2 13 C6.95 13 11.9 13 17 13 C17 17.95 17 22.9 17 28 C5.41132145 29.03010476 -6.11354538 29.0716597 -17.73876953 28.96289062 C-19.00446777 28.95451172 -20.27016602 28.94613281 -21.57421875 28.9375 C-22.71463623 28.92589844 -23.85505371 28.91429687 -25.0300293 28.90234375 C-27.55741357 28.98544722 -29.59956868 29.25497534 -32 30 C-28.44408089 25.64399909 -24.8365447 21.8664562 -20.5546875 18.234375 C-16.32792211 14.53757102 -12.2696663 10.65810803 -8.19165039 6.79858398 C-7.25180298 5.91408569 -7.25180298 5.91408569 -6.29296875 5.01171875 C-5.7311792 4.48022217 -5.16938965 3.94872559 -4.59057617 3.40112305 C-3 2 -3 2 0 0 Z " fill="#FDFDFD" transform="translate(118,212)"/>
<path d="M0 0 C4.95 0 9.9 0 15 0 C15 4.95 15 9.9 15 15 C19.95 15 24.9 15 30 15 C30 10.05 30 5.1 30 0 C34.95 0 39.9 0 45 0 C45 4.95 45 9.9 45 15 C47.6296875 14.938125 47.6296875 14.938125 50.3125 14.875 C55.625 14.75 55.625 14.75 59 17 C37.55073754 20.8998659 15.54925813 21.74769707 -6 18 C-6.33 17.01 -6.66 16.02 -7 15 C-4.69 15 -2.38 15 0 15 C0 10.05 0 5.1 0 0 Z " fill="#EEEEEE" transform="translate(150,315)"/>
<path d="M0 0 C20.93446602 17.93446602 20.93446602 17.93446602 30 27 C29 28 29 28 25.83984375 28.09765625 C22.2265625 28.06510417 18.61328125 28.03255208 15 28 C15 32.95 15 37.9 15 43 C10.38 43 5.76 43 1 43 C-0.24596833 28.67136417 -0.09780458 14.37426453 0 0 Z " fill="#FDFDFD" transform="translate(75,122)"/>
<path d="M0 0 C4.95 0 9.9 0 15 0 C15.495 7.425 15.495 7.425 16 15 C14.5975 15.73863281 13.195 16.47726563 11.75 17.23828125 C-1.21346536 24.14059312 -14.12489749 31.19952691 -25.3125 40.81640625 C-28 43 -28 43 -30 43 C-30 38.71 -30 34.42 -30 30 C-25.05 30 -20.1 30 -15 30 C-15 25.05 -15 20.1 -15 15 C-10.05 15 -5.1 15 0 15 C0 10.05 0 5.1 0 0 Z " fill="#FCFCFC" transform="translate(90,0)"/>
<path d="M0 0 C3.3 0 6.6 0 10 0 C10 5.49259514 8.69065582 7.53430844 5.5625 11.6875 C5.11165039 12.30181885 4.66080078 12.9161377 4.19628906 13.54907227 C0.72266865 18.21074864 -3.01371157 22.57653937 -6.98046875 26.828125 C-8.75084138 28.73204605 -10.41385768 30.67891151 -12.0625 32.6875 C-17.18441087 38.67234151 -23.44199797 43.41933757 -29.625 48.25 C-30.16326416 48.67450439 -30.70152832 49.09900879 -31.25610352 49.53637695 C-39.64533422 56 -39.64533422 56 -45 56 C-45 52.37 -45 48.74 -45 45 C-40.05 45 -35.1 45 -30 45 C-30 40.05 -30 35.1 -30 30 C-25.05 30 -20.1 30 -15 30 C-15 25.05 -15 20.1 -15 15 C-10.05 15 -5.1 15 0 15 C0 10.05 0 5.1 0 0 Z " fill="#ECECEC" transform="translate(300,255)"/>
<path d="M0 0 C4.95 0 9.9 0 15 0 C16.74930723 8.83400153 16.74930723 8.83400153 16 14 C12.95933446 17.96459767 9.51860867 20.74973072 5.52514648 23.69873047 C3.88491846 25.09818867 2.80164172 26.56533078 1.55859375 28.3203125 C-1 31 -1 31 -4.55078125 31.3671875 C-8.03385417 30.91145833 -11.51692708 30.45572917 -15 30 C-15 25.05 -15 20.1 -15 15 C-10.05 15 -5.1 15 0 15 C0 10.05 0 5.1 0 0 Z " fill="#EDEDED" transform="translate(45,30)"/>
<path d="M0 0 C0.66 0.33 1.32 0.66 2 1 C1.5155542 1.39421143 1.0311084 1.78842285 0.53198242 2.19458008 C-1.44186491 4.52073163 -1.42012916 5.8642623 -1.51171875 8.88671875 C-1.54716797 9.82451172 -1.58261719 10.76230469 -1.61914062 11.72851562 C-1.64169922 12.70498047 -1.66425781 13.68144531 -1.6875 14.6875 C-1.72166016 15.67556641 -1.75582031 16.66363281 -1.79101562 17.68164062 C-1.87349569 20.12069399 -1.93842433 22.56032939 -2 25 C-6.95 25 -11.9 25 -17 25 C-17 29.95 -17 34.9 -17 40 C-21.95 40 -26.9 40 -32 40 C-33.60016363 33.16023081 -33.60016363 33.16023081 -32.08642578 30.23388672 C-30.66702412 28.5159374 -29.17301391 26.97768373 -27.5625 25.4375 C-27.00626953 24.87305176 -26.45003906 24.30860352 -25.87695312 23.72705078 C-22.43916376 20.27631493 -18.8877411 16.95543441 -15.15234375 13.828125 C-12.21858946 11.3362974 -9.3946428 8.73113847 -6.5625 6.125 C-5.76295898 5.39095947 -5.76295898 5.39095947 -4.94726562 4.64208984 C-2.44086609 2.35550944 -2.44086609 2.35550944 0 0 Z " fill="#FDFDFD" transform="translate(257,140)"/>
<path d="M0 0 C10.3080717 2.43224164 20.11605557 6.25335626 30 10 C29.67 10.66 29.34 11.32 29 12 C28.92907158 14.2072923 28.91584975 16.41667452 28.9375 18.625 C28.958125 20.72875 28.97875 22.8325 29 25 C24.05 25 19.1 25 14 25 C14 20.05 14 15.1 14 10 C9.05 10 4.1 10 -1 10 C-1.125 2.25 -1.125 2.25 0 0 Z " fill="#EDEDED" transform="translate(211,20)"/>
<path d="M0 0 C3.99343058 2.92505825 7.89337382 5.86026967 11.5625 9.1875 C14.81036109 12.03873289 17.95550313 13.51426646 22 15 C21.34 15.33 20.68 15.66 20 16 C20 18.31 20 20.62 20 23 C15.05 23 10.1 23 5 23 C5 18.05 5 13.1 5 8 C-2.63911191 7.86792344 -2.63911191 7.86792344 -9 11 C-9.46396693 13.89223503 -9.46396693 13.89223503 -9.625 17.125 C-9.74875 19.06375 -9.8725 21.0025 -10 23 C-13.96 23 -17.92 23 -22 23 C-22 20 -22 20 -20.62646484 18.36181641 C-19.99434082 17.78093262 -19.3622168 17.20004883 -18.7109375 16.6015625 C-18.01613281 15.95703125 -17.32132812 15.3125 -16.60546875 14.6484375 C-15.86941406 13.98070312 -15.13335937 13.31296875 -14.375 12.625 C-13.66214844 11.965 -12.94929687 11.305 -12.21484375 10.625 C-8.23733537 6.96131339 -4.18748068 3.42131702 0 0 Z " fill="#ECECEC" transform="translate(145,187)"/>
<path d="M0 0 C1 1 1 1 1 8 C-3.95 8 -8.9 8 -14 8 C-14 12.95 -14 17.9 -14 23 C-18.95 23 -23.9 23 -29 23 C-29 18.38 -29 13.76 -29 9 C-26.29269941 7.87246056 -23.58422359 6.74790188 -20.875 5.625 C-20.11445312 5.30789062 -19.35390625 4.99078125 -18.5703125 4.6640625 C-6.24576337 -0.43575093 -6.24576337 -0.43575093 0 0 Z " fill="#EDEDED" transform="translate(134,22)"/>
<path d="M0 0 C4.29 0 8.58 0 13 0 C13 6.74193548 13 6.74193548 11.79296875 9.8828125 C11.53749268 10.56827148 11.2820166 11.25373047 11.01879883 11.95996094 C10.74447021 12.67442383 10.4701416 13.38888672 10.1875 14.125 C5.15829358 27.88235088 2.89904825 41.51594071 1 56 C0.67 56 0.34 56 0 56 C0 37.52 0 19.04 0 0 Z " fill="#F1F1F1" transform="translate(0,105)"/>
<path d="M0 0 C2.43375 -0.020625 4.8675 -0.04125 7.375 -0.0625 C8.13989746 -0.071604 8.90479492 -0.08070801 9.69287109 -0.09008789 C14.77777778 -0.11111111 14.77777778 -0.11111111 17 1 C18.49263965 6.65137781 18.11114417 12.57511832 18.0625 18.375 C18.05798828 19.39722656 18.05347656 20.41945312 18.04882812 21.47265625 C18.037103 23.98183194 18.02069176 26.4908849 18 29 C17.01 29.33 16.02 29.66 15 30 C15 25.05 15 20.1 15 15 C10.05 15 5.1 15 0 15 C0 10.05 0 5.1 0 0 Z " fill="#EEEEEE" transform="translate(315,150)"/>
<path d="M0 0 C0.40608992 7.5352241 -0.23071927 14.75212178 -1.375 22.1875 C-1.50108643 23.03739502 -1.62717285 23.88729004 -1.75708008 24.76293945 C-2.09756151 26.85531784 -2.54012918 28.9305813 -3 31 C-5.94386623 32.47193312 -8.37390036 31.84936173 -11.625 31.5625 C-13.72875 31.376875 -15.8325 31.19125 -18 31 C-18 26.05 -18 21.1 -18 16 C-13.05 16 -8.1 16 -3 16 C-3 11.05 -3 6.1 -3 1 C-1 0 -1 0 0 0 Z " fill="#FEFEFE" transform="translate(333,179)"/>
<path d="M0 0 C1.299375 0.8971875 1.299375 0.8971875 2.625 1.8125 C4.72537712 3.2291478 6.59999047 4.26808085 8.9375 5.3125 C12.32607704 7.1796751 14.48203441 9.31536268 17.1328125 12.08984375 C21.07852775 16.12635998 25.30320173 19.86880115 30 23 C29.25 24.9375 29.25 24.9375 28 27 C25.06517036 28.02976479 22.33960328 28.10793534 19.25 28.0625 C17.14625 28.0315625 17.14625 28.0315625 15 28 C15 23.05 15 18.1 15 13 C10.05 13 5.1 13 0 13 C0 8.71 0 4.42 0 0 Z " fill="#EBEBEB" transform="translate(105,152)"/>
<path d="M0 0 C1.19625 0.4125 2.3925 0.825 3.625 1.25 C21.13497717 7.05938495 38.63547749 11.25318685 57 13 C57 13.33 57 13.66 57 14 C42.81 14 28.62 14 14 14 C14 12.35 14 10.7 14 9 C9.05 9 4.1 9 -1 9 C-1.09765625 2.84765625 -1.09765625 2.84765625 -1 1 C-0.67 0.67 -0.34 0.34 0 0 Z " fill="#EBEBEB" transform="translate(106,336)"/>
<path d="M0 0 C4.95 0 9.9 0 15 0 C15 4.95 15 9.9 15 15 C9.06 15.495 9.06 15.495 3 16 C4.258125 17.093125 5.51625 18.18625 6.8125 19.3125 C9.29439874 21.46890382 11.70395251 23.64600809 14 26 C13.67 26.66 13.34 27.32 13 28 C-0.1414791 18.17289142 -0.1414791 18.17289142 -1.56494141 12.91210938 C-1.87471913 8.30057297 -0.95619758 4.65059735 0 0 Z " fill="#FCFCFC" transform="translate(255,195)"/>
<path d="M0 0 C0.33 0 0.66 0 1 0 C1.14695313 1.11632812 1.29390625 2.23265625 1.4453125 3.3828125 C2.88658421 13.64604395 5.01547094 23.48644539 7.93017578 33.43603516 C9.44165902 38.64761393 10.48398492 43.59442742 11 49 C7.37 49 3.74 49 0 49 C0 32.83 0 16.66 0 0 Z " fill="#EEEEEE" transform="translate(0,191)"/>
<path d="M0 0 C3.96 0 7.92 0 12 0 C12 4.95 12 9.9 12 15 C16.95 15 21.9 15 27 15 C27 19.29 27 23.58 27 28 C26.01 28.33 25.02 28.66 24 29 C23.57589844 28.56429688 23.15179688 28.12859375 22.71484375 27.6796875 C19.76931029 24.68883814 16.83525151 21.81927483 13.5625 19.1875 C7.3390172 13.93555637 2.25751928 7.88412826 0 0 Z " fill="#ECECEC" transform="translate(48,270)"/>
<path d="M0 0 C4.95 0 9.9 0 15 0 C15 4.95 15 9.9 15 15 C10.38 15 5.76 15 1 15 C1 19.95 1 24.9 1 30 C0.67 30 0.34 30 0 30 C0 20.1 0 10.2 0 0 Z " fill="#FFFFFF" transform="translate(75,195)"/>
<path d="M0 0 C0 9.9 0 19.8 0 30 C-0.33 30 -0.66 30 -1 30 C-1 25.38 -1 20.76 -1 16 C-5.62 16 -10.24 16 -15 16 C-15 11.05 -15 6.1 -15 1 C-1.125 0 -1.125 0 0 0 Z " fill="#FFFFFF" transform="translate(60,194)"/>
<path d="M0 0 C4.95 0 9.9 0 15 0 C15.22786458 1.98567708 15.45572917 3.97135417 15.68359375 5.95703125 C15.97170735 8.19396393 15.97170735 8.19396393 17 11 C16.22265625 13.04296875 16.22265625 13.04296875 15.0625 15.1875 C14.68222656 15.90292969 14.30195313 16.61835937 13.91015625 17.35546875 C13.60980469 17.89816406 13.30945312 18.44085938 13 19 C12.67 18.34 12.34 17.68 12 17 C12.33 16.34 12.66 15.68 13 15 C8.71 15 4.42 15 0 15 C0 10.05 0 5.1 0 0 Z " fill="#FEFEFE" transform="translate(0,90)"/>
<path d="M0 0 C4.95 0 9.9 0 15 0 C15 4.95 15 9.9 15 15 C10.80078125 15.29296875 10.80078125 15.29296875 6.6015625 15.5859375 C3.84491121 15.76363964 3.84491121 15.76363964 2 18 C0.68 16.35 -0.64 14.7 -2 13 C-1.34 13 -0.68 13 0 13 C0 8.71 0 4.42 0 0 Z " fill="#FEFEFE" transform="translate(75,285)"/>
<path d="M0 0 C4.95 0 9.9 0 15 0 C15 4.95 15 9.9 15 15 C13.72125 15.144375 12.4425 15.28875 11.125 15.4375 C8.74307106 15.70642746 7.15547309 15.92226346 5 17 C3.0546875 16.22265625 3.0546875 16.22265625 0.875 15.0625 C0.15054688 14.68222656 -0.57390625 14.30195313 -1.3203125 13.91015625 C-1.87460938 13.60980469 -2.42890625 13.30945312 -3 13 C-2.34 12.67 -1.68 12.34 -1 12 C-0.53101037 9.1840151 -0.53101037 9.1840151 -0.375 5.9375 C-0.25125 3.978125 -0.1275 2.01875 0 0 Z " fill="#FDFDFD" transform="translate(240,0)"/>
<path d="M0 0 C4.95 0.33 9.9 0.66 15 1 C15 5.95 15 10.9 15 16 C10.38 16 5.76 16 1 16 C1 18.31 1 20.62 1 23 C0.67 23 0.34 23 0 23 C0 15.41 0 7.82 0 0 Z " fill="#FFFFFF" transform="translate(15,164)"/>
<path d="M0 0 C0.33 0.66 0.66 1.32 1 2 C5.95 2 10.9 2 16 2 C16 6.95 16 11.9 16 17 C11.05 17 6.1 17 1 17 C0.77213542 13.6796875 0.54427083 10.359375 0.31640625 7.0390625 C0.18915064 4.08481099 0.18915064 4.08481099 -1 2 C-0.67 1.34 -0.34 0.68 0 0 Z " fill="#EDEDED" transform="translate(329,253)"/>
<path d="M0 0 C0 1.98 0 3.96 0 6 C-4.95 6 -9.9 6 -15 6 C-15 7.65 -15 9.3 -15 11 C-28.2 11 -41.4 11 -55 11 C-55 10.67 -55 10.34 -55 10 C-54.45287354 9.93006836 -53.90574707 9.86013672 -53.34204102 9.78808594 C-37.6622788 7.75137045 -22.3455873 5.33566141 -7.515625 -0.36328125 C-4.64395658 -1.09011658 -2.82684873 -0.78806035 0 0 Z " fill="#EAEAEA" transform="translate(240,339)"/>
<path d="M0 0 C6.93 0.495 6.93 0.495 14 1 C14 5.95 14 10.9 14 16 C9.05 16 4.1 16 -1 16 C-2.25 3.375 -2.25 3.375 0 0 Z " fill="#FEFEFE" transform="translate(121,209)"/>
<path d="M0 0 C4.95 0 9.9 0 15 0 C15 4.95 15 9.9 15 15 C10.05 15 5.1 15 0 15 C0 10.05 0 5.1 0 0 Z " fill="#FFFFFF" transform="translate(330,330)"/>
<path d="M0 0 C4.95 0 9.9 0 15 0 C15 4.95 15 9.9 15 15 C10.05 15 5.1 15 0 15 C0 10.05 0 5.1 0 0 Z " fill="#EEEEEE" transform="translate(315,330)"/>
<path d="M0 0 C4.95 0 9.9 0 15 0 C15 4.95 15 9.9 15 15 C10.05 15 5.1 15 0 15 C0 10.05 0 5.1 0 0 Z " fill="#EEEEEE" transform="translate(285,330)"/>
<path d="M0 0 C4.95 0 9.9 0 15 0 C15 4.95 15 9.9 15 15 C10.05 15 5.1 15 0 15 C0 10.05 0 5.1 0 0 Z " fill="#FFFFFF" transform="translate(270,330)"/>
<path d="M0 0 C4.95 0 9.9 0 15 0 C15 4.95 15 9.9 15 15 C10.05 15 5.1 15 0 15 C0 10.05 0 5.1 0 0 Z " fill="#EEEEEE" transform="translate(75,330)"/>
<path d="M0 0 C4.95 0 9.9 0 15 0 C15 4.95 15 9.9 15 15 C10.05 15 5.1 15 0 15 C0 10.05 0 5.1 0 0 Z " fill="#EEEEEE" transform="translate(45,330)"/>
<path d="M0 0 C4.95 0 9.9 0 15 0 C15 4.95 15 9.9 15 15 C10.05 15 5.1 15 0 15 C0 10.05 0 5.1 0 0 Z " fill="#FFFFFF" transform="translate(30,330)"/>
<path d="M0 0 C4.95 0 9.9 0 15 0 C15 4.95 15 9.9 15 15 C10.05 15 5.1 15 0 15 C0 10.05 0 5.1 0 0 Z " fill="#EEEEEE" transform="translate(15,330)"/>
<path d="M0 0 C4.95 0 9.9 0 15 0 C15 4.95 15 9.9 15 15 C10.05 15 5.1 15 0 15 C0 10.05 0 5.1 0 0 Z " fill="#EEEEEE" transform="translate(330,315)"/>
<path d="M0 0 C4.95 0 9.9 0 15 0 C15 4.95 15 9.9 15 15 C10.05 15 5.1 15 0 15 C0 10.05 0 5.1 0 0 Z " fill="#FFFFFF" transform="translate(315,315)"/>
<path d="M0 0 C4.95 0 9.9 0 15 0 C15 4.95 15 9.9 15 15 C10.05 15 5.1 15 0 15 C0 10.05 0 5.1 0 0 Z " fill="#EEEEEE" transform="translate(300,315)"/>
<path d="M0 0 C4.95 0 9.9 0 15 0 C15 4.95 15 9.9 15 15 C10.05 15 5.1 15 0 15 C0 10.05 0 5.1 0 0 Z " fill="#FFFFFF" transform="translate(285,315)"/>
<path d="M0 0 C4.95 0 9.9 0 15 0 C15 4.95 15 9.9 15 15 C10.05 15 5.1 15 0 15 C0 10.05 0 5.1 0 0 Z " fill="#FFFFFF" transform="translate(165,315)"/>
<path d="M0 0 C4.95 0 9.9 0 15 0 C15 4.95 15 9.9 15 15 C10.05 15 5.1 15 0 15 C0 10.05 0 5.1 0 0 Z " fill="#FFFFFF" transform="translate(45,315)"/>
<path d="M0 0 C4.95 0 9.9 0 15 0 C15 4.95 15 9.9 15 15 C10.05 15 5.1 15 0 15 C0 10.05 0 5.1 0 0 Z " fill="#EEEEEE" transform="translate(30,315)"/>
<path d="M0 0 C4.95 0 9.9 0 15 0 C15 4.95 15 9.9 15 15 C10.05 15 5.1 15 0 15 C0 10.05 0 5.1 0 0 Z " fill="#FFFFFF" transform="translate(15,315)"/>
<path d="M0 0 C4.95 0 9.9 0 15 0 C15 4.95 15 9.9 15 15 C10.05 15 5.1 15 0 15 C0 10.05 0 5.1 0 0 Z " fill="#EEEEEE" transform="translate(0,315)"/>
<path d="M0 0 C4.95 0 9.9 0 15 0 C15 4.95 15 9.9 15 15 C10.05 15 5.1 15 0 15 C0 10.05 0 5.1 0 0 Z " fill="#FFFFFF" transform="translate(330,300)"/>
<path d="M0 0 C4.95 0 9.9 0 15 0 C15 4.95 15 9.9 15 15 C10.05 15 5.1 15 0 15 C0 10.05 0 5.1 0 0 Z " fill="#EEEEEE" transform="translate(315,300)"/>
<path d="M0 0 C4.95 0 9.9 0 15 0 C15 4.95 15 9.9 15 15 C10.05 15 5.1 15 0 15 C0 10.05 0 5.1 0 0 Z " fill="#FFFFFF" transform="translate(300,300)"/>
<path d="M0 0 C4.95 0 9.9 0 15 0 C15 4.95 15 9.9 15 15 C10.05 15 5.1 15 0 15 C0 10.05 0 5.1 0 0 Z " fill="#EEEEEE" transform="translate(225,300)"/>
<path d="M0 0 C4.95 0 9.9 0 15 0 C15 4.95 15 9.9 15 15 C10.05 15 5.1 15 0 15 C0 10.05 0 5.1 0 0 Z " fill="#FFFFFF" transform="translate(210,300)"/>
<path d="M0 0 C4.95 0 9.9 0 15 0 C15 4.95 15 9.9 15 15 C10.05 15 5.1 15 0 15 C0 10.05 0 5.1 0 0 Z " fill="#EEEEEE" transform="translate(195,300)"/>
<path d="M0 0 C4.95 0 9.9 0 15 0 C15 4.95 15 9.9 15 15 C10.05 15 5.1 15 0 15 C0 10.05 0 5.1 0 0 Z " fill="#FFFFFF" transform="translate(180,300)"/>
<path d="M0 0 C4.95 0 9.9 0 15 0 C15 4.95 15 9.9 15 15 C10.05 15 5.1 15 0 15 C0 10.05 0 5.1 0 0 Z " fill="#EEEEEE" transform="translate(165,300)"/>
<path d="M0 0 C4.95 0 9.9 0 15 0 C15 4.95 15 9.9 15 15 C10.05 15 5.1 15 0 15 C0 10.05 0 5.1 0 0 Z " fill="#FFFFFF" transform="translate(150,300)"/>
<path d="M0 0 C4.95 0 9.9 0 15 0 C15 4.95 15 9.9 15 15 C10.05 15 5.1 15 0 15 C0 10.05 0 5.1 0 0 Z " fill="#EEEEEE" transform="translate(135,300)"/>
<path d="M0 0 C4.95 0 9.9 0 15 0 C15 4.95 15 9.9 15 15 C10.05 15 5.1 15 0 15 C0 10.05 0 5.1 0 0 Z " fill="#FFFFFF" transform="translate(120,300)"/>
<path d="M0 0 C4.95 0 9.9 0 15 0 C15 4.95 15 9.9 15 15 C10.05 15 5.1 15 0 15 C0 10.05 0 5.1 0 0 Z " fill="#EEEEEE" transform="translate(105,300)"/>
<path d="M0 0 C4.95 0 9.9 0 15 0 C15 4.95 15 9.9 15 15 C10.05 15 5.1 15 0 15 C0 10.05 0 5.1 0 0 Z " fill="#FFFFFF" transform="translate(30,300)"/>
<path d="M0 0 C4.95 0 9.9 0 15 0 C15 4.95 15 9.9 15 15 C10.05 15 5.1 15 0 15 C0 10.05 0 5.1 0 0 Z " fill="#EEEEEE" transform="translate(15,300)"/>
<path d="M0 0 C4.95 0 9.9 0 15 0 C15 4.95 15 9.9 15 15 C10.05 15 5.1 15 0 15 C0 10.05 0 5.1 0 0 Z " fill="#FFFFFF" transform="translate(0,300)"/>
<path d="M0 0 C4.95 0 9.9 0 15 0 C15 4.95 15 9.9 15 15 C10.05 15 5.1 15 0 15 C0 10.05 0 5.1 0 0 Z " fill="#EEEEEE" transform="translate(330,285)"/>
<path d="M0 0 C4.95 0 9.9 0 15 0 C15 4.95 15 9.9 15 15 C10.05 15 5.1 15 0 15 C0 10.05 0 5.1 0 0 Z " fill="#FFFFFF" transform="translate(315,285)"/>
<path d="M0 0 C4.95 0 9.9 0 15 0 C15 4.95 15 9.9 15 15 C10.05 15 5.1 15 0 15 C0 10.05 0 5.1 0 0 Z " fill="#FFFFFF" transform="translate(255,285)"/>
<path d="M0 0 C4.95 0 9.9 0 15 0 C15 4.95 15 9.9 15 15 C10.05 15 5.1 15 0 15 C0 10.05 0 5.1 0 0 Z " fill="#EEEEEE" transform="translate(240,285)"/>
<path d="M0 0 C4.95 0 9.9 0 15 0 C15 4.95 15 9.9 15 15 C10.05 15 5.1 15 0 15 C0 10.05 0 5.1 0 0 Z " fill="#FFFFFF" transform="translate(225,285)"/>
<path d="M0 0 C4.95 0 9.9 0 15 0 C15 4.95 15 9.9 15 15 C10.05 15 5.1 15 0 15 C0 10.05 0 5.1 0 0 Z " fill="#EEEEEE" transform="translate(210,285)"/>
<path d="M0 0 C4.95 0 9.9 0 15 0 C15 4.95 15 9.9 15 15 C10.05 15 5.1 15 0 15 C0 10.05 0 5.1 0 0 Z " fill="#FFFFFF" transform="translate(195,285)"/>
<path d="M0 0 C4.95 0 9.9 0 15 0 C15 4.95 15 9.9 15 15 C10.05 15 5.1 15 0 15 C0 10.05 0 5.1 0 0 Z " fill="#EEEEEE" transform="translate(180,285)"/>
<path d="M0 0 C4.95 0 9.9 0 15 0 C15 4.95 15 9.9 15 15 C10.05 15 5.1 15 0 15 C0 10.05 0 5.1 0 0 Z " fill="#FFFFFF" transform="translate(165,285)"/>
<path d="M0 0 C4.95 0 9.9 0 15 0 C15 4.95 15 9.9 15 15 C10.05 15 5.1 15 0 15 C0 10.05 0 5.1 0 0 Z " fill="#EEEEEE" transform="translate(150,285)"/>
<path d="M0 0 C4.95 0 9.9 0 15 0 C15 4.95 15 9.9 15 15 C10.05 15 5.1 15 0 15 C0 10.05 0 5.1 0 0 Z " fill="#FFFFFF" transform="translate(135,285)"/>
<path d="M0 0 C4.95 0 9.9 0 15 0 C15 4.95 15 9.9 15 15 C10.05 15 5.1 15 0 15 C0 10.05 0 5.1 0 0 Z " fill="#EEEEEE" transform="translate(120,285)"/>
<path d="M0 0 C4.95 0 9.9 0 15 0 C15 4.95 15 9.9 15 15 C10.05 15 5.1 15 0 15 C0 10.05 0 5.1 0 0 Z " fill="#FFFFFF" transform="translate(105,285)"/>
<path d="M0 0 C4.95 0 9.9 0 15 0 C15 4.95 15 9.9 15 15 C10.05 15 5.1 15 0 15 C0 10.05 0 5.1 0 0 Z " fill="#EEEEEE" transform="translate(90,285)"/>
<path d="M0 0 C4.95 0 9.9 0 15 0 C15 4.95 15 9.9 15 15 C10.05 15 5.1 15 0 15 C0 10.05 0 5.1 0 0 Z " fill="#FFFFFF" transform="translate(15,285)"/>
<path d="M0 0 C4.95 0 9.9 0 15 0 C15 4.95 15 9.9 15 15 C10.05 15 5.1 15 0 15 C0 10.05 0 5.1 0 0 Z " fill="#EEEEEE" transform="translate(0,285)"/>
<path d="M0 0 C4.95 0 9.9 0 15 0 C15 4.95 15 9.9 15 15 C10.05 15 5.1 15 0 15 C0 10.05 0 5.1 0 0 Z " fill="#FFFFFF" transform="translate(330,270)"/>
<path d="M0 0 C4.95 0 9.9 0 15 0 C15 4.95 15 9.9 15 15 C10.05 15 5.1 15 0 15 C0 10.05 0 5.1 0 0 Z " fill="#FFFFFF" transform="translate(270,270)"/>
<path d="M0 0 C4.95 0 9.9 0 15 0 C15 4.95 15 9.9 15 15 C10.05 15 5.1 15 0 15 C0 10.05 0 5.1 0 0 Z " fill="#EEEEEE" transform="translate(255,270)"/>
<path d="M0 0 C4.95 0 9.9 0 15 0 C15 4.95 15 9.9 15 15 C10.05 15 5.1 15 0 15 C0 10.05 0 5.1 0 0 Z " fill="#FFFFFF" transform="translate(240,270)"/>
<path d="M0 0 C4.95 0 9.9 0 15 0 C15 4.95 15 9.9 15 15 C10.05 15 5.1 15 0 15 C0 10.05 0 5.1 0 0 Z " fill="#EEEEEE" transform="translate(225,270)"/>
<path d="M0 0 C4.95 0 9.9 0 15 0 C15 4.95 15 9.9 15 15 C10.05 15 5.1 15 0 15 C0 10.05 0 5.1 0 0 Z " fill="#FFFFFF" transform="translate(210,270)"/>
<path d="M0 0 C4.95 0 9.9 0 15 0 C15 4.95 15 9.9 15 15 C10.05 15 5.1 15 0 15 C0 10.05 0 5.1 0 0 Z " fill="#EEEEEE" transform="translate(195,270)"/>
<path d="M0 0 C4.95 0 9.9 0 15 0 C15 4.95 15 9.9 15 15 C10.05 15 5.1 15 0 15 C0 10.05 0 5.1 0 0 Z " fill="#FFFFFF" transform="translate(180,270)"/>
<path d="M0 0 C4.95 0 9.9 0 15 0 C15 4.95 15 9.9 15 15 C10.05 15 5.1 15 0 15 C0 10.05 0 5.1 0 0 Z " fill="#EEEEEE" transform="translate(165,270)"/>
<path d="M0 0 C4.95 0 9.9 0 15 0 C15 4.95 15 9.9 15 15 C10.05 15 5.1 15 0 15 C0 10.05 0 5.1 0 0 Z " fill="#FFFFFF" transform="translate(150,270)"/>
<path d="M0 0 C4.95 0 9.9 0 15 0 C15 4.95 15 9.9 15 15 C10.05 15 5.1 15 0 15 C0 10.05 0 5.1 0 0 Z " fill="#EEEEEE" transform="translate(135,270)"/>
<path d="M0 0 C4.95 0 9.9 0 15 0 C15 4.95 15 9.9 15 15 C10.05 15 5.1 15 0 15 C0 10.05 0 5.1 0 0 Z " fill="#FFFFFF" transform="translate(120,270)"/>
<path d="M0 0 C4.95 0 9.9 0 15 0 C15 4.95 15 9.9 15 15 C10.05 15 5.1 15 0 15 C0 10.05 0 5.1 0 0 Z " fill="#EEEEEE" transform="translate(105,270)"/>
<path d="M0 0 C4.95 0 9.9 0 15 0 C15 4.95 15 9.9 15 15 C10.05 15 5.1 15 0 15 C0 10.05 0 5.1 0 0 Z " fill="#FFFFFF" transform="translate(90,270)"/>
<path d="M0 0 C4.95 0 9.9 0 15 0 C15 4.95 15 9.9 15 15 C10.05 15 5.1 15 0 15 C0 10.05 0 5.1 0 0 Z " fill="#EEEEEE" transform="translate(75,270)"/>
<path d="M0 0 C4.95 0 9.9 0 15 0 C15 4.95 15 9.9 15 15 C10.05 15 5.1 15 0 15 C0 10.05 0 5.1 0 0 Z " fill="#FFFFFF" transform="translate(60,270)"/>
<path d="M0 0 C4.95 0 9.9 0 15 0 C15 4.95 15 9.9 15 15 C10.05 15 5.1 15 0 15 C0 10.05 0 5.1 0 0 Z " fill="#FFFFFF" transform="translate(0,270)"/>
<path d="M0 0 C4.95 0 9.9 0 15 0 C15 4.95 15 9.9 15 15 C10.05 15 5.1 15 0 15 C0 10.05 0 5.1 0 0 Z " fill="#FFFFFF" transform="translate(285,255)"/>
<path d="M0 0 C4.95 0 9.9 0 15 0 C15 4.95 15 9.9 15 15 C10.05 15 5.1 15 0 15 C0 10.05 0 5.1 0 0 Z " fill="#EEEEEE" transform="translate(0,255)"/>
<path d="M0 0 C4.95 0 9.9 0 15 0 C15 4.95 15 9.9 15 15 C10.05 15 5.1 15 0 15 C0 10.05 0 5.1 0 0 Z " fill="#EEEEEE" transform="translate(300,225)"/>
<path d="M0 0 C4.95 0 9.9 0 15 0 C15 4.95 15 9.9 15 15 C10.05 15 5.1 15 0 15 C0 10.05 0 5.1 0 0 Z " fill="#EEEEEE" transform="translate(210,225)"/>
<path d="M0 0 C4.95 0 9.9 0 15 0 C15 4.95 15 9.9 15 15 C10.05 15 5.1 15 0 15 C0 10.05 0 5.1 0 0 Z " fill="#EEEEEE" transform="translate(180,225)"/>
<path d="M0 0 C4.95 0 9.9 0 15 0 C15 4.95 15 9.9 15 15 C10.05 15 5.1 15 0 15 C0 10.05 0 5.1 0 0 Z " fill="#EEEEEE" transform="translate(150,225)"/>
<path d="M0 0 C4.95 0 9.9 0 15 0 C15 4.95 15 9.9 15 15 C10.05 15 5.1 15 0 15 C0 10.05 0 5.1 0 0 Z " fill="#EEEEEE" transform="translate(120,225)"/>
<path d="M0 0 C4.95 0 9.9 0 15 0 C15 4.95 15 9.9 15 15 C10.05 15 5.1 15 0 15 C0 10.05 0 5.1 0 0 Z " fill="#FFFFFF" transform="translate(210,210)"/>
<path d="M0 0 C4.95 0 9.9 0 15 0 C15 4.95 15 9.9 15 15 C10.05 15 5.1 15 0 15 C0 10.05 0 5.1 0 0 Z " fill="#EEEEEE" transform="translate(195,210)"/>
<path d="M0 0 C4.95 0 9.9 0 15 0 C15 4.95 15 9.9 15 15 C10.05 15 5.1 15 0 15 C0 10.05 0 5.1 0 0 Z " fill="#FFFFFF" transform="translate(180,210)"/>
<path d="M0 0 C4.95 0 9.9 0 15 0 C15 4.95 15 9.9 15 15 C10.05 15 5.1 15 0 15 C0 10.05 0 5.1 0 0 Z " fill="#FFFFFF" transform="translate(150,210)"/>
<path d="M0 0 C4.95 0 9.9 0 15 0 C15 4.95 15 9.9 15 15 C10.05 15 5.1 15 0 15 C0 10.05 0 5.1 0 0 Z " fill="#FFFFFF" transform="translate(30,210)"/>
<path d="M0 0 C4.95 0 9.9 0 15 0 C15 4.95 15 9.9 15 15 C10.05 15 5.1 15 0 15 C0 10.05 0 5.1 0 0 Z " fill="#EEEEEE" transform="translate(300,195)"/>
<path d="M0 0 C4.95 0 9.9 0 15 0 C15 4.95 15 9.9 15 15 C10.05 15 5.1 15 0 15 C0 10.05 0 5.1 0 0 Z " fill="#EEEEEE" transform="translate(315,180)"/>
<path d="M0 0 C4.95 0 9.9 0 15 0 C15 4.95 15 9.9 15 15 C10.05 15 5.1 15 0 15 C0 10.05 0 5.1 0 0 Z " fill="#FFFFFF" transform="translate(300,180)"/>
<path d="M0 0 C4.95 0 9.9 0 15 0 C15 4.95 15 9.9 15 15 C10.05 15 5.1 15 0 15 C0 10.05 0 5.1 0 0 Z " fill="#FFFFFF" transform="translate(90,180)"/>
<path d="M0 0 C4.95 0 9.9 0 15 0 C15 4.95 15 9.9 15 15 C10.05 15 5.1 15 0 15 C0 10.05 0 5.1 0 0 Z " fill="#FFFFFF" transform="translate(30,180)"/>
<path d="M0 0 C4.95 0 9.9 0 15 0 C15 4.95 15 9.9 15 15 C10.05 15 5.1 15 0 15 C0 10.05 0 5.1 0 0 Z " fill="#FFFFFF" transform="translate(315,165)"/>
<path d="M0 0 C4.95 0 9.9 0 15 0 C15 4.95 15 9.9 15 15 C10.05 15 5.1 15 0 15 C0 10.05 0 5.1 0 0 Z " fill="#EEEEEE" transform="translate(300,165)"/>
<path d="M0 0 C4.95 0 9.9 0 15 0 C15 4.95 15 9.9 15 15 C10.05 15 5.1 15 0 15 C0 10.05 0 5.1 0 0 Z " fill="#EEEEEE" transform="translate(240,165)"/>
<path d="M0 0 C4.95 0 9.9 0 15 0 C15 4.95 15 9.9 15 15 C10.05 15 5.1 15 0 15 C0 10.05 0 5.1 0 0 Z " fill="#FFFFFF" transform="translate(165,165)"/>
<path d="M0 0 C4.95 0 9.9 0 15 0 C15 4.95 15 9.9 15 15 C10.05 15 5.1 15 0 15 C0 10.05 0 5.1 0 0 Z " fill="#FFFFFF" transform="translate(105,165)"/>
<path d="M0 0 C4.95 0 9.9 0 15 0 C15 4.95 15 9.9 15 15 C10.05 15 5.1 15 0 15 C0 10.05 0 5.1 0 0 Z " fill="#EEEEEE" transform="translate(90,165)"/>
<path d="M0 0 C4.95 0 9.9 0 15 0 C15 4.95 15 9.9 15 15 C10.05 15 5.1 15 0 15 C0 10.05 0 5.1 0 0 Z " fill="#EEEEEE" transform="translate(30,165)"/>
<path d="M0 0 C4.95 0 9.9 0 15 0 C15 4.95 15 9.9 15 15 C10.05 15 5.1 15 0 15 C0 10.05 0 5.1 0 0 Z " fill="#FFFFFF" transform="translate(300,150)"/>
<path d="M0 0 C4.95 0 9.9 0 15 0 C15 4.95 15 9.9 15 15 C10.05 15 5.1 15 0 15 C0 10.05 0 5.1 0 0 Z " fill="#EEEEEE" transform="translate(255,150)"/>
<path d="M0 0 C4.95 0 9.9 0 15 0 C15 4.95 15 9.9 15 15 C10.05 15 5.1 15 0 15 C0 10.05 0 5.1 0 0 Z " fill="#FFFFFF" transform="translate(180,150)"/>
<path d="M0 0 C4.95 0 9.9 0 15 0 C15 4.95 15 9.9 15 15 C10.05 15 5.1 15 0 15 C0 10.05 0 5.1 0 0 Z " fill="#EEEEEE" transform="translate(165,150)"/>
<path d="M0 0 C4.95 0 9.9 0 15 0 C15 4.95 15 9.9 15 15 C10.05 15 5.1 15 0 15 C0 10.05 0 5.1 0 0 Z " fill="#FFFFFF" transform="translate(150,150)"/>
<path d="M0 0 C4.95 0 9.9 0 15 0 C15 4.95 15 9.9 15 15 C10.05 15 5.1 15 0 15 C0 10.05 0 5.1 0 0 Z " fill="#FFFFFF" transform="translate(30,150)"/>
<path d="M0 0 C4.95 0 9.9 0 15 0 C15 4.95 15 9.9 15 15 C10.05 15 5.1 15 0 15 C0 10.05 0 5.1 0 0 Z " fill="#EEEEEE" transform="translate(300,135)"/>
<path d="M0 0 C4.95 0 9.9 0 15 0 C15 4.95 15 9.9 15 15 C10.05 15 5.1 15 0 15 C0 10.05 0 5.1 0 0 Z " fill="#FFFFFF" transform="translate(195,135)"/>
<path d="M0 0 C4.95 0 9.9 0 15 0 C15 4.95 15 9.9 15 15 C10.05 15 5.1 15 0 15 C0 10.05 0 5.1 0 0 Z " fill="#EEEEEE" transform="translate(180,135)"/>
<path d="M0 0 C4.95 0 9.9 0 15 0 C15 4.95 15 9.9 15 15 C10.05 15 5.1 15 0 15 C0 10.05 0 5.1 0 0 Z " fill="#FFFFFF" transform="translate(165,135)"/>
<path d="M0 0 C4.95 0 9.9 0 15 0 C15 4.95 15 9.9 15 15 C10.05 15 5.1 15 0 15 C0 10.05 0 5.1 0 0 Z " fill="#EEEEEE" transform="translate(150,135)"/>
<path d="M0 0 C4.95 0 9.9 0 15 0 C15 4.95 15 9.9 15 15 C10.05 15 5.1 15 0 15 C0 10.05 0 5.1 0 0 Z " fill="#FFFFFF" transform="translate(135,135)"/>
<path d="M0 0 C4.95 0 9.9 0 15 0 C15 4.95 15 9.9 15 15 C10.05 15 5.1 15 0 15 C0 10.05 0 5.1 0 0 Z " fill="#FFFFFF" transform="translate(300,120)"/>
<path d="M0 0 C4.95 0 9.9 0 15 0 C15 4.95 15 9.9 15 15 C10.05 15 5.1 15 0 15 C0 10.05 0 5.1 0 0 Z " fill="#EEEEEE" transform="translate(195,120)"/>
<path d="M0 0 C4.95 0 9.9 0 15 0 C15 4.95 15 9.9 15 15 C10.05 15 5.1 15 0 15 C0 10.05 0 5.1 0 0 Z " fill="#FFFFFF" transform="translate(180,120)"/>
<path d="M0 0 C4.95 0 9.9 0 15 0 C15 4.95 15 9.9 15 15 C10.05 15 5.1 15 0 15 C0 10.05 0 5.1 0 0 Z " fill="#EEEEEE" transform="translate(165,120)"/>
<path d="M0 0 C4.95 0 9.9 0 15 0 C15 4.95 15 9.9 15 15 C10.05 15 5.1 15 0 15 C0 10.05 0 5.1 0 0 Z " fill="#FFFFFF" transform="translate(150,120)"/>
<path d="M0 0 C4.95 0 9.9 0 15 0 C15 4.95 15 9.9 15 15 C10.05 15 5.1 15 0 15 C0 10.05 0 5.1 0 0 Z " fill="#EEEEEE" transform="translate(135,120)"/>
<path d="M0 0 C4.95 0 9.9 0 15 0 C15 4.95 15 9.9 15 15 C10.05 15 5.1 15 0 15 C0 10.05 0 5.1 0 0 Z " fill="#FFFFFF" transform="translate(120,120)"/>
<path d="M0 0 C4.95 0 9.9 0 15 0 C15 4.95 15 9.9 15 15 C10.05 15 5.1 15 0 15 C0 10.05 0 5.1 0 0 Z " fill="#FFFFFF" transform="translate(30,120)"/>
<path d="M0 0 C4.95 0 9.9 0 15 0 C15 4.95 15 9.9 15 15 C10.05 15 5.1 15 0 15 C0 10.05 0 5.1 0 0 Z " fill="#EEEEEE" transform="translate(300,105)"/>
<path d="M0 0 C4.95 0 9.9 0 15 0 C15 4.95 15 9.9 15 15 C10.05 15 5.1 15 0 15 C0 10.05 0 5.1 0 0 Z " fill="#EEEEEE" transform="translate(45,90)"/>
<path d="M0 0 C4.95 0 9.9 0 15 0 C15 4.95 15 9.9 15 15 C10.05 15 5.1 15 0 15 C0 10.05 0 5.1 0 0 Z " fill="#EEEEEE" transform="translate(330,75)"/>
<path d="M0 0 C4.95 0 9.9 0 15 0 C15 4.95 15 9.9 15 15 C10.05 15 5.1 15 0 15 C0 10.05 0 5.1 0 0 Z " fill="#FFFFFF" transform="translate(255,75)"/>
<path d="M0 0 C4.95 0 9.9 0 15 0 C15 4.95 15 9.9 15 15 C10.05 15 5.1 15 0 15 C0 10.05 0 5.1 0 0 Z " fill="#EEEEEE" transform="translate(240,75)"/>
<path d="M0 0 C4.95 0 9.9 0 15 0 C15 4.95 15 9.9 15 15 C10.05 15 5.1 15 0 15 C0 10.05 0 5.1 0 0 Z " fill="#EEEEEE" transform="translate(210,75)"/>
<path d="M0 0 C4.95 0 9.9 0 15 0 C15 4.95 15 9.9 15 15 C10.05 15 5.1 15 0 15 C0 10.05 0 5.1 0 0 Z " fill="#EEEEEE" transform="translate(180,75)"/>
<path d="M0 0 C4.95 0 9.9 0 15 0 C15 4.95 15 9.9 15 15 C10.05 15 5.1 15 0 15 C0 10.05 0 5.1 0 0 Z " fill="#EEEEEE" transform="translate(150,75)"/>
<path d="M0 0 C4.95 0 9.9 0 15 0 C15 4.95 15 9.9 15 15 C10.05 15 5.1 15 0 15 C0 10.05 0 5.1 0 0 Z " fill="#EEEEEE" transform="translate(120,75)"/>
<path d="M0 0 C4.95 0 9.9 0 15 0 C15 4.95 15 9.9 15 15 C10.05 15 5.1 15 0 15 C0 10.05 0 5.1 0 0 Z " fill="#EEEEEE" transform="translate(90,75)"/>
<path d="M0 0 C4.95 0 9.9 0 15 0 C15 4.95 15 9.9 15 15 C10.05 15 5.1 15 0 15 C0 10.05 0 5.1 0 0 Z " fill="#FFFFFF" transform="translate(75,75)"/>
<path d="M0 0 C4.95 0 9.9 0 15 0 C15 4.95 15 9.9 15 15 C10.05 15 5.1 15 0 15 C0 10.05 0 5.1 0 0 Z " fill="#EEEEEE" transform="translate(60,75)"/>
<path d="M0 0 C4.95 0 9.9 0 15 0 C15 4.95 15 9.9 15 15 C10.05 15 5.1 15 0 15 C0 10.05 0 5.1 0 0 Z " fill="#EEEEEE" transform="translate(0,75)"/>
<path d="M0 0 C4.95 0 9.9 0 15 0 C15 4.95 15 9.9 15 15 C10.05 15 5.1 15 0 15 C0 10.05 0 5.1 0 0 Z " fill="#EEEEEE" transform="translate(255,60)"/>
<path d="M0 0 C4.95 0 9.9 0 15 0 C15 4.95 15 9.9 15 15 C10.05 15 5.1 15 0 15 C0 10.05 0 5.1 0 0 Z " fill="#FFFFFF" transform="translate(240,60)"/>
<path d="M0 0 C4.95 0 9.9 0 15 0 C15 4.95 15 9.9 15 15 C10.05 15 5.1 15 0 15 C0 10.05 0 5.1 0 0 Z " fill="#EEEEEE" transform="translate(225,60)"/>
<path d="M0 0 C4.95 0 9.9 0 15 0 C15 4.95 15 9.9 15 15 C10.05 15 5.1 15 0 15 C0 10.05 0 5.1 0 0 Z " fill="#FFFFFF" transform="translate(210,60)"/>
<path d="M0 0 C4.95 0 9.9 0 15 0 C15 4.95 15 9.9 15 15 C10.05 15 5.1 15 0 15 C0 10.05 0 5.1 0 0 Z " fill="#EEEEEE" transform="translate(195,60)"/>
<path d="M0 0 C4.95 0 9.9 0 15 0 C15 4.95 15 9.9 15 15 C10.05 15 5.1 15 0 15 C0 10.05 0 5.1 0 0 Z " fill="#FFFFFF" transform="translate(180,60)"/>
<path d="M0 0 C4.95 0 9.9 0 15 0 C15 4.95 15 9.9 15 15 C10.05 15 5.1 15 0 15 C0 10.05 0 5.1 0 0 Z " fill="#EEEEEE" transform="translate(165,60)"/>
<path d="M0 0 C4.95 0 9.9 0 15 0 C15 4.95 15 9.9 15 15 C10.05 15 5.1 15 0 15 C0 10.05 0 5.1 0 0 Z " fill="#FFFFFF" transform="translate(150,60)"/>
<path d="M0 0 C4.95 0 9.9 0 15 0 C15 4.95 15 9.9 15 15 C10.05 15 5.1 15 0 15 C0 10.05 0 5.1 0 0 Z " fill="#EEEEEE" transform="translate(135,60)"/>
<path d="M0 0 C4.95 0 9.9 0 15 0 C15 4.95 15 9.9 15 15 C10.05 15 5.1 15 0 15 C0 10.05 0 5.1 0 0 Z " fill="#FFFFFF" transform="translate(120,60)"/>
<path d="M0 0 C4.95 0 9.9 0 15 0 C15 4.95 15 9.9 15 15 C10.05 15 5.1 15 0 15 C0 10.05 0 5.1 0 0 Z " fill="#EEEEEE" transform="translate(105,60)"/>
<path d="M0 0 C4.95 0 9.9 0 15 0 C15 4.95 15 9.9 15 15 C10.05 15 5.1 15 0 15 C0 10.05 0 5.1 0 0 Z " fill="#FFFFFF" transform="translate(90,60)"/>
<path d="M0 0 C4.95 0 9.9 0 15 0 C15 4.95 15 9.9 15 15 C10.05 15 5.1 15 0 15 C0 10.05 0 5.1 0 0 Z " fill="#EEEEEE" transform="translate(75,60)"/>
<path d="M0 0 C4.95 0 9.9 0 15 0 C15 4.95 15 9.9 15 15 C10.05 15 5.1 15 0 15 C0 10.05 0 5.1 0 0 Z " fill="#EEEEEE" transform="translate(15,60)"/>
<path d="M0 0 C4.95 0 9.9 0 15 0 C15 4.95 15 9.9 15 15 C10.05 15 5.1 15 0 15 C0 10.05 0 5.1 0 0 Z " fill="#FFFFFF" transform="translate(0,60)"/>
<path d="M0 0 C4.95 0 9.9 0 15 0 C15 4.95 15 9.9 15 15 C10.05 15 5.1 15 0 15 C0 10.05 0 5.1 0 0 Z " fill="#EEEEEE" transform="translate(330,45)"/>
<path d="M0 0 C4.95 0 9.9 0 15 0 C15 4.95 15 9.9 15 15 C10.05 15 5.1 15 0 15 C0 10.05 0 5.1 0 0 Z " fill="#FFFFFF" transform="translate(315,45)"/>
<path d="M0 0 C4.95 0 9.9 0 15 0 C15 4.95 15 9.9 15 15 C10.05 15 5.1 15 0 15 C0 10.05 0 5.1 0 0 Z " fill="#EEEEEE" transform="translate(240,45)"/>
<path d="M0 0 C4.95 0 9.9 0 15 0 C15 4.95 15 9.9 15 15 C10.05 15 5.1 15 0 15 C0 10.05 0 5.1 0 0 Z " fill="#FFFFFF" transform="translate(225,45)"/>
<path d="M0 0 C4.95 0 9.9 0 15 0 C15 4.95 15 9.9 15 15 C10.05 15 5.1 15 0 15 C0 10.05 0 5.1 0 0 Z " fill="#EEEEEE" transform="translate(210,45)"/>
<path d="M0 0 C4.95 0 9.9 0 15 0 C15 4.95 15 9.9 15 15 C10.05 15 5.1 15 0 15 C0 10.05 0 5.1 0 0 Z " fill="#FFFFFF" transform="translate(195,45)"/>
<path d="M0 0 C4.95 0 9.9 0 15 0 C15 4.95 15 9.9 15 15 C10.05 15 5.1 15 0 15 C0 10.05 0 5.1 0 0 Z " fill="#EEEEEE" transform="translate(180,45)"/>
<path d="M0 0 C4.95 0 9.9 0 15 0 C15 4.95 15 9.9 15 15 C10.05 15 5.1 15 0 15 C0 10.05 0 5.1 0 0 Z " fill="#FFFFFF" transform="translate(165,45)"/>
<path d="M0 0 C4.95 0 9.9 0 15 0 C15 4.95 15 9.9 15 15 C10.05 15 5.1 15 0 15 C0 10.05 0 5.1 0 0 Z " fill="#EEEEEE" transform="translate(150,45)"/>
<path d="M0 0 C4.95 0 9.9 0 15 0 C15 4.95 15 9.9 15 15 C10.05 15 5.1 15 0 15 C0 10.05 0 5.1 0 0 Z " fill="#FFFFFF" transform="translate(135,45)"/>
<path d="M0 0 C4.95 0 9.9 0 15 0 C15 4.95 15 9.9 15 15 C10.05 15 5.1 15 0 15 C0 10.05 0 5.1 0 0 Z " fill="#EEEEEE" transform="translate(120,45)"/>
<path d="M0 0 C4.95 0 9.9 0 15 0 C15 4.95 15 9.9 15 15 C10.05 15 5.1 15 0 15 C0 10.05 0 5.1 0 0 Z " fill="#FFFFFF" transform="translate(105,45)"/>
<path d="M0 0 C4.95 0 9.9 0 15 0 C15 4.95 15 9.9 15 15 C10.05 15 5.1 15 0 15 C0 10.05 0 5.1 0 0 Z " fill="#EEEEEE" transform="translate(90,45)"/>
<path d="M0 0 C4.95 0 9.9 0 15 0 C15 4.95 15 9.9 15 15 C10.05 15 5.1 15 0 15 C0 10.05 0 5.1 0 0 Z " fill="#FFFFFF" transform="translate(15,45)"/>
<path d="M0 0 C4.95 0 9.9 0 15 0 C15 4.95 15 9.9 15 15 C10.05 15 5.1 15 0 15 C0 10.05 0 5.1 0 0 Z " fill="#EEEEEE" transform="translate(0,45)"/>
<path d="M0 0 C4.95 0 9.9 0 15 0 C15 4.95 15 9.9 15 15 C10.05 15 5.1 15 0 15 C0 10.05 0 5.1 0 0 Z " fill="#FFFFFF" transform="translate(330,30)"/>
<path d="M0 0 C4.95 0 9.9 0 15 0 C15 4.95 15 9.9 15 15 C10.05 15 5.1 15 0 15 C0 10.05 0 5.1 0 0 Z " fill="#EEEEEE" transform="translate(315,30)"/>
<path d="M0 0 C4.95 0 9.9 0 15 0 C15 4.95 15 9.9 15 15 C10.05 15 5.1 15 0 15 C0 10.05 0 5.1 0 0 Z " fill="#FFFFFF" transform="translate(300,30)"/>
<path d="M0 0 C4.95 0 9.9 0 15 0 C15 4.95 15 9.9 15 15 C10.05 15 5.1 15 0 15 C0 10.05 0 5.1 0 0 Z " fill="#FFFFFF" transform="translate(210,30)"/>
<path d="M0 0 C4.95 0 9.9 0 15 0 C15 4.95 15 9.9 15 15 C10.05 15 5.1 15 0 15 C0 10.05 0 5.1 0 0 Z " fill="#FFFFFF" transform="translate(180,30)"/>
<path d="M0 0 C4.95 0 9.9 0 15 0 C15 4.95 15 9.9 15 15 C10.05 15 5.1 15 0 15 C0 10.05 0 5.1 0 0 Z " fill="#EEEEEE" transform="translate(165,30)"/>
<path d="M0 0 C4.95 0 9.9 0 15 0 C15 4.95 15 9.9 15 15 C10.05 15 5.1 15 0 15 C0 10.05 0 5.1 0 0 Z " fill="#FFFFFF" transform="translate(150,30)"/>
<path d="M0 0 C4.95 0 9.9 0 15 0 C15 4.95 15 9.9 15 15 C10.05 15 5.1 15 0 15 C0 10.05 0 5.1 0 0 Z " fill="#FFFFFF" transform="translate(120,30)"/>
<path d="M0 0 C4.95 0 9.9 0 15 0 C15 4.95 15 9.9 15 15 C10.05 15 5.1 15 0 15 C0 10.05 0 5.1 0 0 Z " fill="#FFFFFF" transform="translate(30,30)"/>
<path d="M0 0 C4.95 0 9.9 0 15 0 C15 4.95 15 9.9 15 15 C10.05 15 5.1 15 0 15 C0 10.05 0 5.1 0 0 Z " fill="#EEEEEE" transform="translate(15,30)"/>
<path d="M0 0 C4.95 0 9.9 0 15 0 C15 4.95 15 9.9 15 15 C10.05 15 5.1 15 0 15 C0 10.05 0 5.1 0 0 Z " fill="#FFFFFF" transform="translate(0,30)"/>
<path d="M0 0 C4.95 0 9.9 0 15 0 C15 4.95 15 9.9 15 15 C10.05 15 5.1 15 0 15 C0 10.05 0 5.1 0 0 Z " fill="#EEEEEE" transform="translate(330,15)"/>
<path d="M0 0 C4.95 0 9.9 0 15 0 C15 4.95 15 9.9 15 15 C10.05 15 5.1 15 0 15 C0 10.05 0 5.1 0 0 Z " fill="#FFFFFF" transform="translate(315,15)"/>
<path d="M0 0 C4.95 0 9.9 0 15 0 C15 4.95 15 9.9 15 15 C10.05 15 5.1 15 0 15 C0 10.05 0 5.1 0 0 Z " fill="#FFFFFF" transform="translate(285,15)"/>
<path d="M0 0 C4.95 0 9.9 0 15 0 C15 4.95 15 9.9 15 15 C10.05 15 5.1 15 0 15 C0 10.05 0 5.1 0 0 Z " fill="#EEEEEE" transform="translate(60,15)"/>
<path d="M0 0 C4.95 0 9.9 0 15 0 C15 4.95 15 9.9 15 15 C10.05 15 5.1 15 0 15 C0 10.05 0 5.1 0 0 Z " fill="#FFFFFF" transform="translate(45,15)"/>
<path d="M0 0 C4.95 0 9.9 0 15 0 C15 4.95 15 9.9 15 15 C10.05 15 5.1 15 0 15 C0 10.05 0 5.1 0 0 Z " fill="#EEEEEE" transform="translate(30,15)"/>
<path d="M0 0 C4.95 0 9.9 0 15 0 C15 4.95 15 9.9 15 15 C10.05 15 5.1 15 0 15 C0 10.05 0 5.1 0 0 Z " fill="#FFFFFF" transform="translate(15,15)"/>
<path d="M0 0 C4.95 0 9.9 0 15 0 C15 4.95 15 9.9 15 15 C10.05 15 5.1 15 0 15 C0 10.05 0 5.1 0 0 Z " fill="#EEEEEE" transform="translate(0,15)"/>
<path d="M0 0 C4.95 0 9.9 0 15 0 C15 4.95 15 9.9 15 15 C10.05 15 5.1 15 0 15 C0 10.05 0 5.1 0 0 Z " fill="#FFFFFF" transform="translate(300,0)"/>
<path d="M0 0 C4.95 0 9.9 0 15 0 C15 4.95 15 9.9 15 15 C10.05 15 5.1 15 0 15 C0 10.05 0 5.1 0 0 Z " fill="#FFFFFF" transform="translate(270,0)"/>
<path d="M0 0 C4.95 0 9.9 0 15 0 C15 4.95 15 9.9 15 15 C10.05 15 5.1 15 0 15 C0 10.05 0 5.1 0 0 Z " fill="#EEEEEE" transform="translate(75,0)"/>
<path d="M0 0 C4.95 0 9.9 0 15 0 C15 4.95 15 9.9 15 15 C10.05 15 5.1 15 0 15 C0 10.05 0 5.1 0 0 Z " fill="#FFFFFF" transform="translate(60,0)"/>
<path d="M0 0 C4.95 0 9.9 0 15 0 C15 4.95 15 9.9 15 15 C10.05 15 5.1 15 0 15 C0 10.05 0 5.1 0 0 Z " fill="#EEEEEE" transform="translate(45,0)"/>
<path d="M0 0 C4.95 0 9.9 0 15 0 C15 4.95 15 9.9 15 15 C10.05 15 5.1 15 0 15 C0 10.05 0 5.1 0 0 Z " fill="#FFFFFF" transform="translate(30,0)"/>
<path d="M0 0 C4.95 0 9.9 0 15 0 C15 4.95 15 9.9 15 15 C10.05 15 5.1 15 0 15 C0 10.05 0 5.1 0 0 Z " fill="#FFFFFF" transform="translate(0,0)"/>
<path d="M0 0 C0.33 0 0.66 0 1 0 C1 13.53 1 27.06 1 41 C0.01 41 -0.98 41 -2 41 C-2 45.95 -2 50.9 -2 56 C-4.64 56 -7.28 56 -10 56 C-11.30293921 53.39412158 -10.76269536 52.62096105 -9.890625 49.88671875 C-9.6318457 49.05793213 -9.37306641 48.22914551 -9.10644531 47.37524414 C-8.82381836 46.48828857 -8.54119141 45.60133301 -8.25 44.6875 C-7.6849357 42.84713955 -7.12242833 41.00599206 -6.5625 39.1640625 C-6.15451172 37.82263184 -6.15451172 37.82263184 -5.73828125 36.45410156 C-2.12608123 24.44688111 -0.98338397 12.44854645 0 0 Z " fill="#ECECEC" transform="translate(347,184)"/>
<path d="M0 0 C0.88945312 0.00644531 1.77890625 0.01289063 2.6953125 0.01953125 C3.61570313 0.03628906 4.53609375 0.05304687 5.484375 0.0703125 C6.42023438 0.07933594 7.35609375 0.08835937 8.3203125 0.09765625 C10.62510989 0.12117459 12.92977533 0.15704424 15.234375 0.1953125 C15.234375 4.8153125 15.234375 9.4353125 15.234375 14.1953125 C10.284375 14.1953125 5.334375 14.1953125 0.234375 14.1953125 C0.234375 10.2353125 0.234375 6.2753125 0.234375 2.1953125 C-2.735625 2.1953125 -5.705625 2.1953125 -8.765625 2.1953125 C-5.02111768 0.32305884 -3.91535309 -0.05019683 0 0 Z " fill="#FDFDFD" transform="translate(164.765625,15.8046875)"/>
<path d="M0 0 C12.625 -0.25 12.625 -0.25 16 2 C15.67 6.29 15.34 10.58 15 15 C10.05 15 5.1 15 0 15 C0 10.05 0 5.1 0 0 Z " fill="#EDEDED" transform="translate(60,255)"/>
<path d="M0 0 C4.62 0 9.24 0 14 0 C15.63356321 4.90068963 15.05529694 9.85738476 15 15 C10.05 15 5.1 15 0 15 C0 10.05 0 5.1 0 0 Z " fill="#EEEEEE" transform="translate(45,240)"/>
<path d="M0 0 C4.95 0 9.9 0 15 0 C15 4.95 15 9.9 15 15 C10.38 15.33 5.76 15.66 1 16 C-0.11031666 10.4484167 -0.06806353 5.64927335 0 0 Z " fill="#EDEDED" transform="translate(315,60)"/>
<path d="M0 0 C0 4.95 0 9.9 0 15 C-4.95 15 -9.9 15 -15 15 C-15.47360328 5.17273193 -15.47360328 5.17273193 -13.6875 0.75 C-9.21689514 -2.16109154 -5.15249727 -0.79741029 0 0 Z " fill="#FDFDFD" transform="translate(210,195)"/>
<path d="M0 0 C0 4.95 0 9.9 0 15 C-4.95 15 -9.9 15 -15 15 C-15.36734694 3.6122449 -15.36734694 3.6122449 -13.875 1.125 C-9.86165427 -1.28300744 -4.48263837 -0.14460124 0 0 Z " fill="#FFFFFF" transform="translate(150,195)"/>
<path d="M0 0 C0 4.95 0 9.9 0 15 C-4.95 15 -9.9 15 -15 15 C-15.69786096 6.39304813 -15.69786096 6.39304813 -13.98046875 2.96484375 C-9.72771531 -1.99084415 -6.07026581 -1.28763214 0 0 Z " fill="#FFFFFF" transform="translate(75,60)"/>
<path d="M0 0 C4.62 0 9.24 0 14 0 C14 4.95 14 9.9 14 15 C9.38 15 4.76 15 0 15 C0 10.05 0 5.1 0 0 Z " fill="#EEEEEE" transform="translate(45,210)"/>
<path d="M0 0 C4.62 0 9.24 0 14 0 C14 4.95 14 9.9 14 15 C9.38 15 4.76 15 0 15 C0 10.05 0 5.1 0 0 Z " fill="#EEEEEE" transform="translate(76,180)"/>
<path d="M0 0 C4.62 0 9.24 0 14 0 C14 4.95 14 9.9 14 15 C9.38 15 4.76 15 0 15 C0 10.05 0 5.1 0 0 Z " fill="#EEEEEE" transform="translate(45,180)"/>
<path d="M0 0 C4.62 0 9.24 0 14 0 C14 4.95 14 9.9 14 15 C9.38 15 4.76 15 0 15 C0 10.05 0 5.1 0 0 Z " fill="#EEEEEE" transform="translate(76,150)"/>
<path d="M0 0 C4.62 0 9.24 0 14 0 C14 4.95 14 9.9 14 15 C9.38 15 4.76 15 0 15 C0 10.05 0 5.1 0 0 Z " fill="#EEEEEE" transform="translate(45,150)"/>
<path d="M0 0 C4.62 0 9.24 0 14 0 C14 4.95 14 9.9 14 15 C9.38 15 4.76 15 0 15 C0 10.05 0 5.1 0 0 Z " fill="#EEEEEE" transform="translate(45,120)"/>
<path d="M0 0 C4.62 0 9.24 0 14 0 C14 4.95 14 9.9 14 15 C4.0390625 15.1953125 4.0390625 15.1953125 1 15 C0.34 14.34 -0.32 13.68 -1 13 C-0.96631321 8.63194681 -0.42669049 4.35224295 0 0 Z " fill="#ECECEC" transform="translate(16,180)"/>
<path d="M0 0 C1.340625 0.33 2.68125 0.66 4.0625 1 C4.0625 5.95 4.0625 10.9 4.0625 16 C-0.8875 16 -5.8375 16 -10.9375 16 C-12.68211753 9.48676124 -12.68211753 9.48676124 -10.76171875 5.65234375 C-7.56267932 1.48256132 -5.41668187 -0.60948401 0 0 Z " fill="#FEFEFE" transform="translate(235.9375,164)"/>
<path d="M0 0 C6.13596133 -0.08522169 11.93184334 0.10101383 18 1 C17.01 1.66 16.02 2.32 15 3 C14.63539547 5.66653905 14.63539547 5.66653905 14.8125 8.625 C14.874375 10.39875 14.93625 12.1725 15 14 C10.05 14 5.1 14 0 14 C0 9.38 0 4.76 0 0 Z " fill="#EAEAEA" transform="translate(180,16)"/>
<path d="M0 0 C9.9 0 19.8 0 30 0 C29.67 1.32 29.34 2.64 29 4 C27.62328125 4.02126953 27.62328125 4.02126953 26.21875 4.04296875 C18.60459148 4.33889718 12.7841547 4.75628399 7 10 C4.65674336 12.55139853 4.65674336 12.55139853 3 15 C2.34 15.66 1.68 16.32 1 17 C0 16 0 16 -0.09765625 12.40234375 C-0.09191272 10.91402745 -0.07889891 9.42573704 -0.0625 7.9375 C-0.041875 5.318125 -0.02125 2.69875 0 0 Z " fill="#FBFBFB" transform="translate(60,90)"/>
<path d="M0 0 C4.95 0 9.9 0 15 0 C15 4.95 15 9.9 15 15 C6.16071429 15.66964286 6.16071429 15.66964286 2.4375 13.125 C-1.09245698 8.59941413 -0.45102724 5.63784056 0 0 Z " fill="#EEEEEE" transform="translate(285,30)"/>
<path d="M0 0 C7.92 0 15.84 0 24 0 C24 0.33 24 0.66 24 1 C21.03 1 18.06 1 15 1 C15 4.96 15 8.92 15 13 C10.05 13 5.1 13 0 13 C0 8.71 0 4.42 0 0 Z " fill="#FFFFFF" transform="translate(255,257)"/>
<path d="M0 0 C4.95 0 9.9 0 15 0 C15 4.95 15 9.9 15 15 C7.32352941 15.69786096 7.32352941 15.69786096 4.06640625 13.98046875 C1.47064762 11.72085153 0.1586427 10.04908883 -0.36328125 6.59765625 C-0.375 4.125 -0.375 4.125 0 0 Z " fill="#EEEEEE" transform="translate(300,45)"/>
<path d="M0 0 C0.33 0 0.66 0 1 0 C1 2.31 1 4.62 1 7 C5.29 7 9.58 7 14 7 C14 11.95 14 16.9 14 22 C10.04 22 6.08 22 2 22 C0.44532049 14.51810486 -0.26581195 7.6347098 0 0 Z " fill="#FDFDFD" transform="translate(16,188)"/>
<path d="M0 0 C3.96 0 7.92 0 12 0 C12 4.95 12 9.9 12 15 C1.16015625 15.09765625 1.16015625 15.09765625 -2 15 C-3 14 -3 14 -3.1875 10.625 C-3 7 -3 7 -1 4 C-0.67 2.68 -0.34 1.36 0 0 Z " fill="#ECECEC" transform="translate(18,150)"/>
<path d="M0 0 C1.69141656 0.08963062 3.37959602 0.24577676 5.0625 0.4375 C7.5065625 0.7159375 7.5065625 0.7159375 10 1 C10 5.95 10 10.9 10 16 C6.04 16 2.08 16 -2 16 C-2.33 20.29 -2.66 24.58 -3 29 C-3.33 29 -3.66 29 -4 29 C-4.44363175 19.25653231 -3.43028116 10.41891352 -1 1 C-0.67 0.67 -0.34 0.34 0 0 Z " fill="#FAFAFA" transform="translate(20,134)"/>
<path d="M0 0 C4.95 0 9.9 0 15 0 C15 3.3 15 6.6 15 10 C13.68 10.33 12.36 10.66 11 11 C11 11.66 11 12.32 11 13 C7.26513121 13.5745952 3.78706732 14 0 14 C0 9.38 0 4.76 0 0 Z " fill="#EEEEEE" transform="translate(210,315)"/>
<path d="M0 0 C2.97 0.33 5.94 0.66 9 1 C9 5.95 9 10.9 9 16 C4.05 16 -0.9 16 -6 16 C-5.19525189 11.17151132 -4.60225453 8.73248296 -2.4375 4.625 C-1.98246094 3.75101563 -1.52742188 2.87703125 -1.05859375 1.9765625 C-0.70925781 1.32429687 -0.35992187 0.67203125 0 0 Z " fill="#FCFCFC" transform="translate(336,239)"/>
<path d="M0 0 C4.95 0 9.9 0 15 0 C15 4.62 15 9.24 15 14 C8.24951974 14 6.48984261 13.85471816 1 11 C-0.71466036 7.57067929 -0.05404056 3.78283935 0 0 Z " fill="#EDEDED" transform="translate(120,315)"/>
<path d="M0 0 C4.29 0 8.58 0 13 0 C14.25194573 6.25972864 12.9893335 9.0319995 11 15 C7.37 15 3.74 15 0 15 C0 10.05 0 5.1 0 0 Z " fill="#EDEDED" transform="translate(315,210)"/>
<path d="M0 0 C0.66 0.33 1.32 0.66 2 1 C1.01 2.485 1.01 2.485 0 4 C0 6.31 0 8.62 0 11 C4.95 11 9.9 11 15 11 C15 15.62 15 20.24 15 25 C13.68 24.01 12.36 23.02 11 22 C10.37351563 21.8865625 9.74703125 21.773125 9.1015625 21.65625 C5.74629045 20.60850705 3.725703 17.99526495 1.375 15.5 C-1.95724215 11.79727917 -1.95724215 11.79727917 -6 9 C-5.52797514 4.75177626 -3.03344482 2.80010291 0 0 Z " fill="#ECECEC" transform="translate(225,169)"/>
<path d="M0 0 C4.95 0.33 9.9 0.66 15 1 C15 4.96 15 8.92 15 13 C10.05 13 5.1 13 0 13 C0 8.71 0 4.42 0 0 Z " fill="#ECECEC" transform="translate(150,17)"/>
<path d="M0 0 C4.95 0 9.9 0 15 0 C15 3.96 15 7.92 15 12 C10.05 12 5.1 12 0 12 C0 8.04 0 4.08 0 0 Z " fill="#EEEEEE" transform="translate(240,258)"/>
<path d="M0 0 C4.95 0 9.9 0 15 0 C15 3.96 15 7.92 15 12 C10.05 12 5.1 12 0 12 C0 8.04 0 4.08 0 0 Z " fill="#EEEEEE" transform="translate(210,258)"/>
<path d="M0 0 C4.95 0 9.9 0 15 0 C15 3.96 15 7.92 15 12 C10.05 12 5.1 12 0 12 C0 8.04 0 4.08 0 0 Z " fill="#EEEEEE" transform="translate(180,258)"/>
<path d="M0 0 C4.95 0 9.9 0 15 0 C15 3.96 15 7.92 15 12 C10.05 12 5.1 12 0 12 C0 8.04 0 4.08 0 0 Z " fill="#EEEEEE" transform="translate(150,258)"/>
<path d="M0 0 C4.95 0 9.9 0 15 0 C15 3.96 15 7.92 15 12 C10.05 12 5.1 12 0 12 C0 8.04 0 4.08 0 0 Z " fill="#EEEEEE" transform="translate(120,258)"/>
<path d="M0 0 C4.95 0 9.9 0 15 0 C15 3.96 15 7.92 15 12 C10.05 12 5.1 12 0 12 C0 8.04 0 4.08 0 0 Z " fill="#EEEEEE" transform="translate(90,258)"/>
<path d="M0 0 C9.9 0 19.8 0 30 0 C30 0.33 30 0.66 30 1 C25.05 1 20.1 1 15 1 C15 4.3 15 7.6 15 11 C10.05 11 5.1 11 0 11 C0 7.37 0 3.74 0 0 Z " fill="#FFFFFF" transform="translate(225,109)"/>
<path d="M0 0 C0 0.33 0 0.66 0 1 C-1.65 1 -3.3 1 -5 1 C-5 4.63 -5 8.26 -5 12 C-9.95 12 -14.9 12 -20 12 C-20.33 9.69 -20.66 7.38 -21 5 C-21.66 4.34 -22.32 3.68 -23 3 C-15.17683695 0.70629774 -8.15475474 -0.433422 0 0 Z " fill="#FAFAFA" transform="translate(155,18)"/>
<path d="M0 0 C6.05503233 -0.22018299 11.11840613 0.52960153 17 2 C16.67 5.3 16.34 8.6 16 12 C11.05 12 6.1 12 1 12 C0.67 8.04 0.34 4.08 0 0 Z " fill="#FEFEFE" transform="translate(194,18)"/>
<path d="M0 0 C4.95 0 9.9 0 15 0 C15 4.29 15 8.58 15 13 C10.1001072 12.49311454 5.55643866 12.0003877 1 10 C0 7 0 7 0 0 Z " fill="#EBEBEB" transform="translate(225,0)"/>
<path d="M0 0 C7 0 7 0 9.375 1.875 C11.66904568 6.28662631 11.73572981 10.04493399 12 15 C8.04 15 4.08 15 0 15 C0 10.05 0 5.1 0 0 Z " fill="#ECECEC" transform="translate(315,120)"/>
<path d="M0 0 C4.95 0 9.9 0 15 0 C15 3.3 15 6.6 15 10 C10.05 10 5.1 10 0 10 C0 6.7 0 3.4 0 0 Z " fill="#EEEEEE" transform="translate(240,110)"/>
<path d="M0 0 C4.95 0 9.9 0 15 0 C15 3.3 15 6.6 15 10 C10.05 10 5.1 10 0 10 C0 6.7 0 3.4 0 0 Z " fill="#EEEEEE" transform="translate(210,110)"/>
<path d="M0 0 C4.95 0 9.9 0 15 0 C15 3.3 15 6.6 15 10 C10.05 10 5.1 10 0 10 C0 6.7 0 3.4 0 0 Z " fill="#EEEEEE" transform="translate(180,110)"/>
<path d="M0 0 C4.95 0 9.9 0 15 0 C15 3.3 15 6.6 15 10 C10.05 10 5.1 10 0 10 C0 6.7 0 3.4 0 0 Z " fill="#EEEEEE" transform="translate(150,110)"/>
<path d="M0 0 C4.95 0 9.9 0 15 0 C15 3.3 15 6.6 15 10 C10.05 10 5.1 10 0 10 C0 6.7 0 3.4 0 0 Z " fill="#EEEEEE" transform="translate(120,110)"/>
<path d="M0 0 C0.66 0.33 1.32 0.66 2 1 C1.67 5.95 1.34 10.9 1 16 C-6.25 16.4375 -6.25 16.4375 -8.51269531 16.56811523 C-11.77672382 16.77573835 -14.86545184 17.03863085 -18 18 C-14.24011823 13.39414483 -10.36303633 9.42876079 -5.8359375 5.578125 C-3.7854109 3.81554469 -1.87227771 1.95028928 0 0 Z " fill="#EBEBEB" transform="translate(104,224)"/>
<path d="M0 0 C3.63 0 7.26 0 11 0 C11 4.95 11 9.9 11 15 C8.36 15 5.72 15 3 15 C1.094753 9.89665983 -0.42589023 5.53657294 0 0 Z " fill="#ECECEC" transform="translate(19,210)"/>
<path d="M0 0 C0.99 0 1.98 0 3 0 C3 6.6 3 13.2 3 20 C-2.94 20 -8.88 20 -15 20 C-15 18.35 -15 16.7 -15 15 C-10.05 15 -5.1 15 0 15 C0 10.05 0 5.1 0 0 Z " fill="#EFEFEF" transform="translate(345,330)"/>
<path d="M0 0 C0 9.9 0 19.8 0 30 C-0.33 30 -0.66 30 -1 30 C-1 25.38 -1 20.76 -1 16 C-3.31 16 -5.62 16 -8 16 C-8 11.05 -8 6.1 -8 1 C-1 0 -1 0 0 0 Z " fill="#FFFFFF" transform="translate(278,179)"/>
<path d="M0 0 C3.85507075 1.60931019 6.46961652 4.09855204 9.5 6.9375 C10.55716359 7.92201255 11.61445943 8.9063831 12.671875 9.890625 C13.21521484 10.39916016 13.75855469 10.90769531 14.31835938 11.43164062 C17.11114659 14.03629583 19.93175155 16.61046445 22.75 19.1875 C23.76575433 20.11834848 24.78139146 21.04932487 25.796875 21.98046875 C26.52390625 22.64691406 27.2509375 23.31335938 28 24 C23.70272603 25.30660357 20.39784135 24.6596762 16 24 C16.00902344 23.41992188 16.01804688 22.83984375 16.02734375 22.2421875 C15.89394873 18.72751859 15.72865559 16.00319155 13.62109375 13.1015625 C9.61405535 9.42620289 6.39253354 8.22010341 1 8 C0.67 5.36 0.34 2.72 0 0 Z " fill="#F4F4F4" transform="translate(239,217)"/>
<path d="M0 0 C0 3.63 0 7.26 0 11 C-4.95 11 -9.9 11 -15 11 C-15 6 -15 6 -14 4 C-11.78515625 3.18359375 -11.78515625 3.18359375 -9.0625 2.4375 C-0.28497409 0 -0.28497409 0 0 0 Z " fill="#ECECEC" transform="translate(195,199)"/>
<path d="M0 0 C4.95 0 9.9 0 15 0 C15 1.32 15 2.64 15 4 C15.99 4.33 16.98 4.66 18 5 C12.06682122 7.10396411 6.17222879 8.75971762 0 10 C-1.6415049 6.7169902 -0.51888624 3.57454967 0 0 Z " fill="#F9F9F9" transform="translate(120,0)"/>
<path d="M0 0 C4.27077656 -0.05794812 8.54145236 -0.09357874 12.8125 -0.125 C14.02744141 -0.14175781 15.24238281 -0.15851563 16.49414062 -0.17578125 C17.65751953 -0.18222656 18.82089844 -0.18867188 20.01953125 -0.1953125 C21.62985229 -0.21102295 21.62985229 -0.21102295 23.27270508 -0.22705078 C26 0 26 0 29 2 C15.54337491 4.24946569 2.64307417 5.42098629 -11 5 C-11 4.67 -11 4.34 -11 4 C-5.555 3.505 -5.555 3.505 0 3 C0 2.01 0 1.02 0 0 Z " fill="#F5F5F5" transform="translate(180,330)"/>
<path d="M0 0 C0.99 0.33 1.98 0.66 3 1 C3 3.31 3 5.62 3 8 C0.36 8 -2.28 8 -5 8 C-5 5 -5 5 -2.5 2.3125 C-1.675 1.549375 -0.85 0.78625 0 0 Z M-9 8 C-8.34 8.33 -7.68 8.66 -7 9 C-7.639375 9.45375 -8.27875 9.9075 -8.9375 10.375 C-11.98225157 14.25013836 -11.81649865 18.1922647 -12 23 C-14.64 23 -17.28 23 -20 23 C-20 18.66825307 -17.34177417 16.77646347 -14.5 13.8125 C-13.97535156 13.25369141 -13.45070313 12.69488281 -12.91015625 12.11914062 C-11.61338387 10.73984636 -10.30753741 9.36909356 -9 8 Z " fill="#E7E7E7" transform="translate(72,52)"/>
<path d="M0 0 C3.3 0 6.6 0 10 0 C10 4.95 10 9.9 10 15 C8.35 15 6.7 15 5 15 C3.57380339 12.33776633 2.67111108 9.93611099 2 7 C1.33847444 4.6652039 0.67258667 2.33163378 0 0 Z " fill="#EDEDED" transform="translate(335,105)"/>
<path d="M0 0 C4.95 0 9.9 0 15 0 C15.33 2.31 15.66 4.62 16 7 C16.66 7.66 17.32 8.32 18 9 C2.28571429 7.28571429 2.28571429 7.28571429 0 5 C0 3.35 0 1.7 0 0 Z " fill="#F9F9F9" transform="translate(210,0)"/>
<path d="M0 0 C2.31 0 4.62 0 7 0 C7 4.95 7 9.9 7 15 C5.02 15 3.04 15 1 15 C0.67 15.66 0.34 16.32 0 17 C0 11.39 0 5.78 0 0 Z " fill="#FFFFFF" transform="translate(293,225)"/>
<path d="M0 0 C2.31 0 4.62 0 7 0 C7 4.95 7 9.9 7 15 C4.69 15 2.38 15 0 15 C0 10.05 0 5.1 0 0 Z " fill="#EEEEEE" transform="translate(270,195)"/>
<path d="M0 0 C2.31 0 4.62 0 7 0 C7 4.95 7 9.9 7 15 C4.69 15 2.38 15 0 15 C0 10.05 0 5.1 0 0 Z " fill="#EEEEEE" transform="translate(270,165)"/>
<path d="M0 0 C2.31 0 4.62 0 7 0 C7 4.95 7 9.9 7 15 C4.69 15 2.38 15 0 15 C0 10.05 0 5.1 0 0 Z " fill="#EEEEEE" transform="translate(270,135)"/>
<path d="M0 0 C-1.58015623 1.60729631 -3.16425652 3.21071576 -4.75 4.8125 C-5.63171875 5.70582031 -6.5134375 6.59914062 -7.421875 7.51953125 C-9.53448851 9.55212152 -11.60794665 11.31773818 -14 13 C-14.66 12.67 -15.32 12.34 -16 12 C-15.67 8.04 -15.34 4.08 -15 0 C-12.87562788 -0.19448477 -10.75046809 -0.38038289 -8.625 -0.5625 C-7.44164062 -0.66691406 -6.25828125 -0.77132812 -5.0390625 -0.87890625 C-2 -1 -2 -1 0 0 Z " fill="#FAFAFA" transform="translate(240,135)"/>
<path d="M0 0 C6.27 0.33 12.54 0.66 19 1 C17.68 1.33 16.36 1.66 15 2 C15 3.65 15 5.3 15 7 C10.05 7 5.1 7 0 7 C0 4.69 0 2.38 0 0 Z " fill="#FEFEFE" transform="translate(165,203)"/>
<path d="M0 0 C0.66 0.33 1.32 0.66 2 1 C2 4.96 2 8.92 2 13 C-1.96 13 -5.92 13 -10 13 C-9.34 12.236875 -8.68 11.47375 -8 10.6875 C-5.70149462 8.15722061 -5.70149462 8.15722061 -6 5 C-4.17806158 3.0750353 -2.10764717 1.62464469 0 0 Z " fill="#ECECEC" transform="translate(118,212)"/>
<path d="M0 0 C4.62 0 9.24 0 14 0 C14 4.29 14 8.58 14 13 C12.34050228 11.57757338 10.68126232 10.15484477 9.0234375 8.73046875 C7.67961097 7.5812117 6.33066453 6.43791326 4.9765625 5.30078125 C4.34492188 4.76839844 3.71328125 4.23601562 3.0625 3.6875 C2.47597656 3.19636719 1.88945312 2.70523438 1.28515625 2.19921875 C0.86105469 1.80347656 0.43695313 1.40773437 0 1 C0 0.67 0 0.34 0 0 Z " fill="#EEEEEE" transform="translate(241,195)"/>
<path d="M0 0 C1.175625 0.9075 2.35125 1.815 3.5625 2.75 C7.23421271 5.51196571 10.96315562 7.81337596 15 10 C14.67 10.66 14.34 11.32 14 12 C9.38 12 4.76 12 0 12 C0 8.04 0 4.08 0 0 Z " fill="#EEEEEE" transform="translate(90,138)"/>
<path d="M0 0 C0 4.29 0 8.58 0 13 C-3.96 12.67 -7.92 12.34 -12 12 C-12 9 -12 9 -9.8828125 6.73828125 C-8.97273438 5.93777344 -8.06265625 5.13726562 -7.125 4.3125 C-5.76761719 3.10013672 -5.76761719 3.10013672 -4.3828125 1.86328125 C-2 0 -2 0 0 0 Z " fill="#F8F8F8" transform="translate(278,123)"/>
<path d="M0 0 C4.29 0 8.58 0 13 0 C8.88380164 4.91935902 4.59589638 9.52647956 0 14 C-2.01362453 9.97275094 -0.41158984 4.29882718 0 0 Z " fill="#FEFEFE" transform="translate(45,45)"/>
<path d="M0 0 C1.98 0 3.96 0 6 0 C6 4.95 6 9.9 6 15 C4.02 15 2.04 15 0 15 C0 10.05 0 5.1 0 0 Z " fill="#EFEFEF" transform="translate(294,210)"/>
<path d="M0 0 C1.98 0 3.96 0 6 0 C6 4.95 6 9.9 6 15 C4.02 15 2.04 15 0 15 C0 10.05 0 5.1 0 0 Z " fill="#EFEFEF" transform="translate(294,180)"/>
<path d="M0 0 C1.98 0 3.96 0 6 0 C6 4.95 6 9.9 6 15 C4.02 15 2.04 15 0 15 C0 10.05 0 5.1 0 0 Z " fill="#EFEFEF" transform="translate(294,150)"/>
<path d="M0 0 C1.546875 1.3303125 1.546875 1.3303125 3.125 2.6875 C6.39205431 5.48878282 9.6873127 8.25289346 13 11 C12.67 11.66 12.34 12.32 12 13 C8.37 13 4.74 13 1 13 C0.67 8.71 0.34 4.42 0 0 Z " fill="#ECECEC" transform="translate(75,122)"/>
<path d="M0 0 C0 4.62 0 9.24 0 14 C-7.625 15 -7.625 15 -11 15 C-9.71481447 12.68367725 -8.42228734 10.37203058 -7.125 8.0625 C-6.76019531 7.40314453 -6.39539063 6.74378906 -6.01953125 6.06445312 C-2.59855769 0 -2.59855769 0 0 0 Z " fill="#F9F9F9" transform="translate(330,256)"/>
<path d="M0 0 C3.96 0 7.92 0 12 0 C12 2.97 12 5.94 12 9 C11.01 9.33 10.02 9.66 9 10 C6.73828125 8.671875 6.73828125 8.671875 4.3125 6.75 C3.50425781 6.12609375 2.69601563 5.5021875 1.86328125 4.859375 C1.24839844 4.24578125 0.63351563 3.6321875 0 3 C0 2.01 0 1.02 0 0 Z " fill="#EBEBEB" transform="translate(78,300)"/>
<path d="M0 0 C3.96 0 7.92 0 12 0 C10.15117797 3.69764405 9.01842239 5.15326897 6 7.75 C4.948125 8.67039063 4.948125 8.67039063 3.875 9.609375 C2 11 2 11 0 11 C0 7.37 0 3.74 0 0 Z " fill="#FAFAFA" transform="translate(210,150)"/>
<path d="M0 0 C4.29 0 8.58 0 13 0 C13 3.96 13 7.92 13 12 C11.96875 11.113125 10.9375 10.22625 9.875 9.3125 C7.4621265 7.23870648 5.02720565 5.19926452 2.5625 3.1875 C1.716875 2.465625 0.87125 1.74375 0 1 C0 0.67 0 0.34 0 0 Z " fill="#EEEEEE" transform="translate(257,210)"/>
<path d="M0 0 C4.95 0 9.9 0 15 0 C15 1.65 15 3.3 15 5 C10.05 5 5.1 5 0 5 C0 3.35 0 1.7 0 0 Z " fill="#FFFFFF" transform="translate(315,345)"/>
<path d="M0 0 C4.95 0 9.9 0 15 0 C15 1.65 15 3.3 15 5 C10.05 5 5.1 5 0 5 C0 3.35 0 1.7 0 0 Z " fill="#EEEEEE" transform="translate(300,345)"/>
<path d="M0 0 C4.95 0 9.9 0 15 0 C15 1.65 15 3.3 15 5 C10.05 5 5.1 5 0 5 C0 3.35 0 1.7 0 0 Z " fill="#FFFFFF" transform="translate(285,345)"/>
<path d="M0 0 C4.95 0 9.9 0 15 0 C15 1.65 15 3.3 15 5 C10.05 5 5.1 5 0 5 C0 3.35 0 1.7 0 0 Z " fill="#EEEEEE" transform="translate(270,345)"/>
<path d="M0 0 C4.95 0 9.9 0 15 0 C15 1.65 15 3.3 15 5 C10.05 5 5.1 5 0 5 C0 3.35 0 1.7 0 0 Z " fill="#FFFFFF" transform="translate(255,345)"/>
<path d="M0 0 C4.95 0 9.9 0 15 0 C15 1.65 15 3.3 15 5 C10.05 5 5.1 5 0 5 C0 3.35 0 1.7 0 0 Z " fill="#FFFFFF" transform="translate(225,345)"/>
<path d="M0 0 C4.95 0 9.9 0 15 0 C15 1.65 15 3.3 15 5 C10.05 5 5.1 5 0 5 C0 3.35 0 1.7 0 0 Z " fill="#FFFFFF" transform="translate(105,345)"/>
<path d="M0 0 C4.95 0 9.9 0 15 0 C15 1.65 15 3.3 15 5 C10.05 5 5.1 5 0 5 C0 3.35 0 1.7 0 0 Z " fill="#EEEEEE" transform="translate(90,345)"/>
<path d="M0 0 C4.95 0 9.9 0 15 0 C15 1.65 15 3.3 15 5 C10.05 5 5.1 5 0 5 C0 3.35 0 1.7 0 0 Z " fill="#FFFFFF" transform="translate(75,345)"/>
<path d="M0 0 C4.95 0 9.9 0 15 0 C15 1.65 15 3.3 15 5 C10.05 5 5.1 5 0 5 C0 3.35 0 1.7 0 0 Z " fill="#EEEEEE" transform="translate(60,345)"/>
<path d="M0 0 C4.95 0 9.9 0 15 0 C15 1.65 15 3.3 15 5 C10.05 5 5.1 5 0 5 C0 3.35 0 1.7 0 0 Z " fill="#FFFFFF" transform="translate(45,345)"/>
<path d="M0 0 C4.95 0 9.9 0 15 0 C15 1.65 15 3.3 15 5 C10.05 5 5.1 5 0 5 C0 3.35 0 1.7 0 0 Z " fill="#EEEEEE" transform="translate(30,345)"/>
<path d="M0 0 C4.95 0 9.9 0 15 0 C15 1.65 15 3.3 15 5 C10.05 5 5.1 5 0 5 C0 3.35 0 1.7 0 0 Z " fill="#EEEEEE" transform="translate(0,345)"/>
<path d="M0 0 C1.65 0 3.3 0 5 0 C5 4.95 5 9.9 5 15 C3.35 15 1.7 15 0 15 C0 10.05 0 5.1 0 0 Z " fill="#EEEEEE" transform="translate(295,120)"/>
<path d="M0 0 C4.09614769 0.86649278 6.47535725 1.46190487 9.4375 4.5 C11 7 11 7 11 9 C7.37 9 3.74 9 0 9 C0 6.03 0 3.06 0 0 Z " fill="#EDEDED" transform="translate(270,51)"/>
<path d="M0 0 C0.66 0.33 1.32 0.66 2 1 C1.67 3.64 1.34 6.28 1 9 C-2.96 9 -6.92 9 -11 9 C-8.93905488 4.87810975 -8.32498924 4.24281077 -4.5 2.1875 C-3.7059375 1.74792969 -2.911875 1.30835938 -2.09375 0.85546875 C-1.4028125 0.57316406 -0.711875 0.29085938 0 0 Z " fill="#F8F8F8" transform="translate(269,321)"/>
<path d="M0 0 C3.63 0 7.26 0 11 0 C4.08792373 8.14088983 4.08792373 8.14088983 2 10 C1.34 10 0.68 10 0 10 C0 6.7 0 3.4 0 0 Z " fill="#FBFBFB" transform="translate(195,165)"/>
<path d="M0 0 C3.92505231 1.96252615 5.98275613 3.90335497 9 7 C9.66 7.33 10.32 7.66 11 8 C10.67 8.66 10.34 9.32 10 10 C6.7 10 3.4 10 0 10 C0 6.7 0 3.4 0 0 Z " fill="#ECECEC" transform="translate(285,65)"/>
<path d="M0 0 C6.25976842 -0.21070749 12.24904541 0.60615685 18.4375 1.5 C19.96407227 1.71462891 19.96407227 1.71462891 21.52148438 1.93359375 C24.01496134 2.28478769 26.50772922 2.64036313 29 3 C29 3.33 29 3.66 29 4 C19.76 4 10.52 4 1 4 C0.67 2.68 0.34 1.36 0 0 Z " fill="#F6F6F6" transform="translate(134,346)"/>
<path d="M0 0 C4.95 0 9.9 0 15 0 C15 0.99 15 1.98 15 3 C8.2168636 4.42002108 1.93302093 5.22731216 -5 5 C-5 4.67 -5 4.34 -5 4 C-3.35 3.67 -1.7 3.34 0 3 C0 2.01 0 1.02 0 0 Z " fill="#EBEBEB" transform="translate(165,330)"/>
<path d="M0 0 C0.99 1.32 1.98 2.64 3 4 C4.00962421 5.2177147 5.03023841 6.42641494 6.0625 7.625 C6.56910156 8.21539062 7.07570313 8.80578125 7.59765625 9.4140625 C8.6891314 10.64843273 9.83488458 11.83488458 11 13 C7.53278671 14.73360665 3.76147685 13.48361845 0 13 C0 8.71 0 4.42 0 0 Z " fill="#F6F6F6" transform="translate(60,242)"/>
<path d="M0 0 C2.31 0 4.62 0 7 0 C7 3.63 7 7.26 7 11 C6.01 11 5.02 11 4 11 C1.57396616 8.01944414 0.08667557 5.99676908 -0.25 2.125 C-0.1675 1.42375 -0.085 0.7225 0 0 Z " fill="#ECECEC" transform="translate(38,255)"/>
<path d="M0 0 C0.66 0.33 1.32 0.66 2 1 C-7.88945466 11.70105125 -7.88945466 11.70105125 -15.4375 12.25 C-16.283125 12.1675 -17.12875 12.085 -18 12 C-14.25 10 -14.25 10 -12 10 C-12 8.02 -12 6.04 -12 4 C-11.38511719 3.96261719 -10.77023438 3.92523438 -10.13671875 3.88671875 C-8.92435547 3.78810547 -8.92435547 3.78810547 -7.6875 3.6875 C-6.88699219 3.62949219 -6.08648437 3.57148438 -5.26171875 3.51171875 C-2.63727666 2.91793306 -1.69179328 2.04219706 0 0 Z " fill="#F7F7F7" transform="translate(192,176)"/>
<path d="M0 0 C5.97201091 0.53129376 10.94616743 1.84610941 16.5 4.0625 C17.22703125 4.34416016 17.9540625 4.62582031 18.703125 4.91601562 C20.47191255 5.60258448 22.23643041 6.30013682 24 7 C24 7.33 24 7.66 24 8 C19.71 8 15.42 8 11 8 C11 6.68 11 5.36 11 4 C7.37 3.01 3.74 2.02 0 1 C0 0.67 0 0.34 0 0 Z " fill="#F9F9F9" transform="translate(214,22)"/>
<path d="M0 0 C-1.45217676 1.50596108 -2.91192861 3.00462104 -4.375 4.5 C-5.18710938 5.3353125 -5.99921875 6.170625 -6.8359375 7.03125 C-9 9 -9 9 -11 9 C-11 6.03 -11 3.06 -11 0 C-2.25 -1.125 -2.25 -1.125 0 0 Z " fill="#FCFCFC" transform="translate(131,180)"/>
<path d="M0 0 C2.62697064 -0.22137393 5.00893964 -0.28162025 7.625 -0.1875 C8.33140625 -0.17396484 9.0378125 -0.16042969 9.765625 -0.14648438 C11.51074128 -0.1111104 13.25546608 -0.05730221 15 0 C15 1.65 15 3.3 15 5 C9.39 4.34 3.78 3.68 -2 3 C-1.34 2.01 -0.68 1.02 0 0 Z " fill="#E4E4E4" transform="translate(195,0)"/>
<path d="M0 0 C3.9252025 3.70090521 6.94580156 7.54959656 10 12 C6.93109813 13.53445094 4.29905734 12.54984289 1 12 C0.67 8.04 0.34 4.08 0 0 Z " fill="#F7F7F7" transform="translate(29,273)"/>
<path d="M0 0 C4.95 0 9.9 0 15 0 C15 0.66 15 1.32 15 2 C12.03195838 3.97869441 10.90215354 4.34161439 7.5 4.6875 C6.7265625 4.77386719 5.953125 4.86023438 5.15625 4.94921875 C3 5 3 5 0 4 C0 2.68 0 1.36 0 0 Z " fill="#E7E7E7" transform="translate(135,0)"/>
<path d="M0 0 C3.96 0 7.92 0 12 0 C11 3 11 3 7.6875 4.6875 C4 6 4 6 0 6 C0 4.02 0 2.04 0 0 Z " fill="#ECECEC" transform="translate(90,15)"/>
<path d="M0 0 C0.33 0 0.66 0 1 0 C1 8.58 1 17.16 1 26 C0.34 26 -0.32 26 -1 26 C-1.33 27.98 -1.66 29.96 -2 32 C-2.33 32 -2.66 32 -3 32 C-2.05032415 21.32864245 -1.02029037 10.66478185 0 0 Z " fill="#DCDCDC" transform="translate(347,184)"/>
<path d="M0 0 C0 2.97 0 5.94 0 9 C-2.64 9 -5.28 9 -8 9 C-8 6 -8 6 -6.7578125 4.39453125 C-5.94957031 3.61142578 -5.94957031 3.61142578 -5.125 2.8125 C-4.59132813 2.28269531 -4.05765625 1.75289063 -3.5078125 1.20703125 C-2 0 -2 0 0 0 Z " fill="#EEEEEE" transform="translate(60,66)"/>
<path d="M0 0 C0.10808032 7.09727428 -0.06145994 13.96094956 -1 21 C-3 19 -3 19 -3.22705078 17.12060547 C-3.21657715 16.37697754 -3.20610352 15.63334961 -3.1953125 14.8671875 C-3.18886719 14.06152344 -3.18242187 13.25585938 -3.17578125 12.42578125 C-3.15064453 11.16314453 -3.15064453 11.16314453 -3.125 9.875 C-3.11597656 9.02550781 -3.10695313 8.17601562 -3.09765625 7.30078125 C-3.07405647 5.20040116 -3.03818483 3.10016556 -3 1 C-1 0 -1 0 0 0 Z " fill="#F8F8F8" transform="translate(333,179)"/>
<path d="M0 0 C0.66 0.33 1.32 0.66 2 1 C0.54782324 2.50596108 -0.91192861 4.00462104 -2.375 5.5 C-3.18710938 6.3353125 -3.99921875 7.170625 -4.8359375 8.03125 C-7 10 -7 10 -9 10 C-9 7.36 -9 4.72 -9 2 C-6.94921875 1.77213542 -4.8984375 1.54427083 -2.84765625 1.31640625 C-0.98859771 1.18113386 -0.98859771 1.18113386 0 0 Z " fill="#FBFBFB" transform="translate(114,193)"/>
<path d="M0 0 C0.99 0 1.98 0 3 0 C3 4.95 3 9.9 3 15 C2.01 15 1.02 15 0 15 C0 10.05 0 5.1 0 0 Z " fill="#FFFFFF" transform="translate(345,315)"/>
<path d="M0 0 C0.99 0 1.98 0 3 0 C3 4.95 3 9.9 3 15 C2.01 15 1.02 15 0 15 C0 10.05 0 5.1 0 0 Z " fill="#EEEEEE" transform="translate(345,300)"/>
<path d="M0 0 C0.99 0 1.98 0 3 0 C3 4.95 3 9.9 3 15 C2.01 15 1.02 15 0 15 C0 10.05 0 5.1 0 0 Z " fill="#FFFFFF" transform="translate(345,285)"/>
<path d="M0 0 C0.99 0 1.98 0 3 0 C3 4.95 3 9.9 3 15 C2.01 15 1.02 15 0 15 C0 10.05 0 5.1 0 0 Z " fill="#EEEEEE" transform="translate(345,270)"/>
<path d="M0 0 C0.99 0 1.98 0 3 0 C3 4.95 3 9.9 3 15 C2.01 15 1.02 15 0 15 C0 10.05 0 5.1 0 0 Z " fill="#FFFFFF" transform="translate(345,255)"/>
<path d="M0 0 C0.99 0 1.98 0 3 0 C3 4.95 3 9.9 3 15 C2.01 15 1.02 15 0 15 C0 10.05 0 5.1 0 0 Z " fill="#FFFFFF" transform="translate(345,225)"/>
<path d="M0 0 C0.99 0 1.98 0 3 0 C3 4.95 3 9.9 3 15 C2.01 15 1.02 15 0 15 C0 10.05 0 5.1 0 0 Z " fill="#EEEEEE" transform="translate(345,120)"/>
<path d="M0 0 C0.99 0 1.98 0 3 0 C3 4.95 3 9.9 3 15 C2.01 15 1.02 15 0 15 C0 10.05 0 5.1 0 0 Z " fill="#FFFFFF" transform="translate(345,105)"/>
<path d="M0 0 C0.99 0 1.98 0 3 0 C3 4.95 3 9.9 3 15 C2.01 15 1.02 15 0 15 C0 10.05 0 5.1 0 0 Z " fill="#EEEEEE" transform="translate(345,90)"/>
<path d="M0 0 C4.95 0 9.9 0 15 0 C15 0.99 15 1.98 15 3 C10.05 3 5.1 3 0 3 C0 2.01 0 1.02 0 0 Z " fill="#EEEEEE" transform="translate(255,90)"/>
<path d="M0 0 C4.95 0 9.9 0 15 0 C15 0.99 15 1.98 15 3 C10.05 3 5.1 3 0 3 C0 2.01 0 1.02 0 0 Z " fill="#EEEEEE" transform="translate(225,90)"/>
<path d="M0 0 C4.95 0 9.9 0 15 0 C15 0.99 15 1.98 15 3 C10.05 3 5.1 3 0 3 C0 2.01 0 1.02 0 0 Z " fill="#EEEEEE" transform="translate(195,90)"/>
<path d="M0 0 C4.95 0 9.9 0 15 0 C15 0.99 15 1.98 15 3 C10.05 3 5.1 3 0 3 C0 2.01 0 1.02 0 0 Z " fill="#EEEEEE" transform="translate(165,90)"/>
<path d="M0 0 C4.95 0 9.9 0 15 0 C15 0.99 15 1.98 15 3 C10.05 3 5.1 3 0 3 C0 2.01 0 1.02 0 0 Z " fill="#EEEEEE" transform="translate(135,90)"/>
<path d="M0 0 C4.95 0 9.9 0 15 0 C15 0.99 15 1.98 15 3 C10.05 3 5.1 3 0 3 C0 2.01 0 1.02 0 0 Z " fill="#EEEEEE" transform="translate(105,90)"/>
<path d="M0 0 C4.95 0 9.9 0 15 0 C15 0.99 15 1.98 15 3 C10.05 3 5.1 3 0 3 C0 2.01 0 1.02 0 0 Z " fill="#EEEEEE" transform="translate(75,90)"/>
<path d="M0 0 C1.75 0.125 1.75 0.125 4 1 C6.25 4.0625 6.25 4.0625 8 7 C7 8 7 8 3.4375 8.0625 C2.303125 8.041875 1.16875 8.02125 0 8 C0 5.36 0 2.72 0 0 Z " fill="#EBEBEB" transform="translate(300,82)"/>
<path d="M0 0 C0.99 0 1.98 0 3 0 C3 4.95 3 9.9 3 15 C2.01 15 1.02 15 0 15 C0 10.05 0 5.1 0 0 Z " fill="#FFFFFF" transform="translate(345,75)"/>
<path d="M0 0 C0.99 0 1.98 0 3 0 C3 4.95 3 9.9 3 15 C2.01 15 1.02 15 0 15 C0 10.05 0 5.1 0 0 Z " fill="#EEEEEE" transform="translate(345,60)"/>
<path d="M0 0 C0.99 0 1.98 0 3 0 C3 4.95 3 9.9 3 15 C2.01 15 1.02 15 0 15 C0 10.05 0 5.1 0 0 Z " fill="#EEEEEE" transform="translate(345,30)"/>
<path d="M0 0 C0.99 0 1.98 0 3 0 C3 4.95 3 9.9 3 15 C2.01 15 1.02 15 0 15 C0 10.05 0 5.1 0 0 Z " fill="#EEEEEE" transform="translate(345,0)"/>
<path d="M0 0 C5.29012124 4.40843437 10.18808428 9.07559794 15 14 C14.01 14 13.02 14 12 14 C11.401875 13.360625 10.80375 12.72125 10.1875 12.0625 C7.49796404 9.52665181 5.61713638 9.32883058 2 9 C1.34 6.03 0.68 3.06 0 0 Z " fill="#FDFDFD" transform="translate(43,291)"/>
<path d="M0 0 C0.66 0.33 1.32 0.66 2 1 C0.38113585 2.67262717 -1.2452729 4.33795537 -2.875 6 C-3.77992187 6.928125 -4.68484375 7.85625 -5.6171875 8.8125 C-8 11 -8 11 -10 11 C-10 8.69 -10 6.38 -10 4 C-8.906875 3.896875 -7.81375 3.79375 -6.6875 3.6875 C-3.14440371 3.02692273 -2.06756277 2.7972908 0 0 Z " fill="#F9F9F9" transform="translate(100,206)"/>
<path d="M0 0 C1.65 0 3.3 0 5 0 C5.6875 1.625 5.6875 1.625 6 4 C4.5625 7.25 4.5625 7.25 3 10 C2.01 10 1.02 10 0 10 C0 6.7 0 3.4 0 0 Z " fill="#E7E7E7" transform="translate(15,90)"/>
<path d="M0 0 C0.66 0.33 1.32 0.66 2 1 C0.0238076 3.00301854 -1.95574474 5.00249867 -3.9375 7 C-4.50146484 7.57234375 -5.06542969 8.1446875 -5.64648438 8.734375 C-7.07878776 10.17525505 -8.53741129 11.58987143 -10 13 C-10.33 13 -10.66 13 -11 13 C-11 10.69 -11 8.38 -11 6 C-9.9275 5.7525 -8.855 5.505 -7.75 5.25 C-4.00350563 4.00116854 -2.47926118 2.97511342 0 0 Z " fill="#F4F4F4" transform="translate(86,219)"/>
<path d="M0 0 C0.66 0.33 1.32 0.66 2 1 C2 2.98 2 4.96 2 7 C-0.31 7 -2.62 7 -5 7 C-5 6.01 -5 5.02 -5 4 C-2.5 1.8125 -2.5 1.8125 0 0 Z " fill="#E9E9E9" transform="translate(238,158)"/>
<path d="M0 0 C6.27 0 12.54 0 19 0 C19 0.33 19 0.66 19 1 C14.05 1 9.1 1 4 1 C7.34452097 5.20402626 7.34452097 5.20402626 11 9 C7.25983417 9 6.54723807 8.0658409 3.8125 5.625 C3.09707031 4.99851562 2.38164063 4.37203125 1.64453125 3.7265625 C0 2 0 2 0 0 Z " fill="#F5F5F5" transform="translate(86,109)"/>
<path d="M0 0 C2.31 0 4.62 0 7 0 C7.0825 0.9075 7.165 1.815 7.25 2.75 C8.09248732 6.40077839 9.17881618 7.63384583 12 10 C9 10 9 10 6.73828125 8.06640625 C5.93777344 7.24011719 5.13726562 6.41382812 4.3125 5.5625 C3.50425781 4.73878906 2.69601563 3.91507812 1.86328125 3.06640625 C0 1 0 1 0 0 Z " fill="#F5F5F5" transform="translate(98,120)"/>
<path d="M0 0 C2.94956528 1.36944102 5.52468811 2.87830409 8 5 C8 5.66 8 6.32 8 7 C5.36 7 2.72 7 0 7 C0 4.69 0 2.38 0 0 Z " fill="#F8F8F8" transform="translate(60,308)"/>
<path d="M0 0 C2.99220268 1.36370299 5.29026529 2.94908083 7.75 5.125 C8.67039063 5.93324219 8.67039063 5.93324219 9.609375 6.7578125 C10.06828125 7.16773438 10.5271875 7.57765625 11 8 C10.34 8.66 9.68 9.32 9 10 C8.62875 9.525625 8.2575 9.05125 7.875 8.5625 C5.37353038 6.47794198 3.18406582 6.35378509 0 6 C0 4.02 0 2.04 0 0 Z " fill="#F4F4F4" transform="translate(225,204)"/>
<path d="M0 0 C0.99 0.33 1.98 0.66 3 1 C2.34 6.94 1.68 12.88 1 19 C0.67 19 0.34 19 0 19 C0 12.73 0 6.46 0 0 Z " fill="#DCDCDC" transform="translate(0,142)"/>
<path d="M0 0 C2.64 0 5.28 0 8 0 C8 1.65 8 3.3 8 5 C7.01 5.495 7.01 5.495 6 6 C3.5249829 4.88568235 1.32116581 3.41849022 -1 2 C-0.67 1.34 -0.34 0.68 0 0 Z " fill="#E7E7E7" transform="translate(247,15)"/>
<path d="M0 0 C0.66 0.33 1.32 0.66 2 1 C1.195625 1.763125 0.39125 2.52625 -0.4375 3.3125 C-3.16799024 5.79430898 -3.16799024 5.79430898 -4 9 C-5.64333504 10.03789581 -7.31243867 11.03567924 -9 12 C-10.75149165 13.58245275 -10.75149165 13.58245275 -12 15 C-12.66 14.67 -13.32 14.34 -14 14 C-9.38 9.38 -4.76 4.76 0 0 Z " fill="#FCFCFC" transform="translate(304,291)"/>
<path d="M0 0 C0 2.97 0 5.94 0 9 C-1.65 9 -3.3 9 -5 9 C-4.47731534 6.23723823 -3.89130413 3.6739124 -3 1 C-1 0 -1 0 0 0 Z " fill="#F5F5F5" transform="translate(30,111)"/>
<path d="M0 0 C0.66 0.33 1.32 0.66 2 1 C1.525625 1.37125 1.05125 1.7425 0.5625 2.125 C-1.52205802 4.62646962 -1.64621491 6.81593418 -2 10 C-3.65 10 -5.3 10 -7 10 C-5.15083921 5.93184627 -3.33557632 2.9905167 0 0 Z " fill="#E6E6E6" transform="translate(257,140)"/>
<path d="M0 0 C0.53625 0.28875 1.0725 0.5775 1.625 0.875 C4.35280484 2.16711808 7.12612718 3.08558592 10 4 C10.33 5.65 10.66 7.3 11 9 C8 9 8 9 5.95703125 7.28515625 C5.24933594 6.55167969 4.54164062 5.81820312 3.8125 5.0625 C3.09707031 4.33160156 2.38164063 3.60070312 1.64453125 2.84765625 C0 1 0 1 0 0 Z " fill="#F6F6F6" transform="translate(110,131)"/>
<path d="M0 0 C4.75 0.75 4.75 0.75 7 3 C7 3.66 7 4.32 7 5 C4.69 5 2.38 5 0 5 C0 3.35 0 1.7 0 0 Z " fill="#EFEFEF" transform="translate(255,40)"/>
<path d="M0 0 C2.31 0 4.62 0 7 0 C7 0.99 7 1.98 7 3 C4.69 3.33 2.38 3.66 0 4 C0 2.68 0 1.36 0 0 Z " fill="#ECECEC" transform="translate(240,315)"/>
<path d="M0 0 C0.99 0 1.98 0 3 0 C3.625 2.3125 3.625 2.3125 4 5 C3.01 6.485 3.01 6.485 2 8 C1.34 7.67 0.68 7.34 0 7 C0 4.69 0 2.38 0 0 Z " fill="#EFEFEF" transform="translate(0,135)"/>
<path d="M0 0 C0 1.65 0 3.3 0 5 C-2.31 5.66 -4.62 6.32 -7 7 C-3.13157895 0 -3.13157895 0 0 0 Z " fill="#F3F3F3" transform="translate(315,280)"/>
<path d="M0 0 C0.99 0.99 1.98 1.98 3 3 C0.0534615 4.80066242 -2.88801935 6.50163895 -6 8 C-2.25 2.25 -2.25 2.25 0 0 Z " fill="#F4F4F4" transform="translate(145,187)"/>
<path d="M0 0 C0.66 0.33 1.32 0.66 2 1 C1.67 2.32 1.34 3.64 1 5 C-0.65 5 -2.3 5 -4 5 C-4.33 4.34 -4.66 3.68 -5 3 C-2.625 1.4375 -2.625 1.4375 0 0 Z " fill="#E8E8E8" transform="translate(89,40)"/>
<path d="M0 0 C0.99 0 1.98 0 3 0 C3 1.65 3 3.3 3 5 C1.35 4.67 -0.3 4.34 -2 4 C-1.34 2.68 -0.68 1.36 0 0 Z " fill="#EBEBEB" transform="translate(42,85)"/>
<path d="M0 0 C2.31 0.33 4.62 0.66 7 1 C7 1.66 7 2.32 7 3 C4.69 3 2.38 3 0 3 C0 2.01 0 1.02 0 0 Z " fill="#FCFCFC" transform="translate(120,342)"/>
<path d="M0 0 C0.99 0.33 1.98 0.66 3 1 C1.37660195 2.70884005 -0.29319053 4.37446717 -2 6 C-2.66 6 -3.32 6 -4 6 C-2.84826645 3.53199953 -1.95216435 1.95216435 0 0 Z " fill="#F5F5F5" transform="translate(110,219)"/>
</svg>
