<?xml version="1.0" encoding="UTF-8"?>
<svg version="1.1" xmlns="http://www.w3.org/2000/svg" width="311" height="162">
<path d="M0 0 C102.63 0 205.26 0 311 0 C311 53.46 311 106.92 311 162 C208.37 162 105.74 162 0 162 C0 108.54 0 55.08 0 0 Z " fill="#2193D1" transform="translate(0,0)"/>
<path d="M0 0 C36.5727645 -0.04030303 36.5727645 -0.04030303 51.84960938 -0.04882812 C62.41528812 -0.05477138 72.98095891 -0.06177379 83.54663086 -0.07543945 C91.24012065 -0.08538551 98.93360401 -0.09185324 106.62710005 -0.09408849 C110.70329652 -0.09539574 114.77947461 -0.09848243 118.85566521 -0.10573006 C122.68787755 -0.11248904 126.52006384 -0.11461721 130.35228157 -0.11310768 C131.76285061 -0.11338406 133.17342047 -0.11538991 134.58398438 -0.11920547 C136.50165689 -0.12414075 138.41934321 -0.12239802 140.33702087 -0.12025452 C141.41275329 -0.12117631 142.4884857 -0.1220981 143.59681606 -0.12304783 C146 0 146 0 147 1 C147.10262337 2.94228287 147.13572074 4.88826949 147.1418457 6.83325195 C147.15239738 8.70573357 147.15239738 8.70573357 147.16316223 10.61604309 C147.16588607 11.62325377 147.16588607 11.62325377 147.16866493 12.65081215 C147.17581507 14.74820152 147.191471 16.84535482 147.21000671 18.94267273 C147.26253988 24.90730514 147.31044549 30.87181125 147.32592773 36.83666992 C147.3360114 40.48204149 147.36534751 44.12682422 147.40724754 47.77196312 C147.41956071 49.16136406 147.4246782 50.55084818 147.42244911 51.9403019 C147.42009571 53.88645246 147.44445657 55.83257972 147.4699707 57.77856445 C147.47583694 58.88585403 147.48170319 59.99314362 147.48774719 61.13398743 C148.11286634 64.63147796 149.38916779 65.69541664 152 68 C152 68.66 152 69.32 152 70 C153.051875 70.28875 154.10375 70.5775 155.1875 70.875 C158.23298554 71.77366787 161.07108341 72.79605847 164 74 C164.12955078 72.09927734 164.12955078 72.09927734 164.26171875 70.16015625 C165.82423457 50.42311428 165.82423457 50.42311428 172.9609375 44.32421875 C175.57891362 42.62403885 177.92894946 42.34898302 181 42 C181.33 39.69 181.66 37.38 182 35 C181.38125 34.938125 180.7625 34.87625 180.125 34.8125 C178 34 178 34 176.8828125 31.7890625 C174.84230962 25.34251802 175.3239135 18.18845003 178 12 C179.91808109 12.45237761 181.83442033 12.91214463 183.75 13.375 C184.81734375 13.63023438 185.8846875 13.88546875 186.984375 14.1484375 C191.76179609 15.497502 191.76179609 15.497502 194 17 C195.58753024 21.76259073 196.36937745 25.95184155 196 31 C195.67 31.33 195.34 31.66 195 32 C194.95919217 33.99958364 194.95745644 36.00045254 195 38 C195.639375 38.103125 196.27875 38.20625 196.9375 38.3125 C197.618125 38.539375 198.29875 38.76625 199 39 C199.33 39.99 199.66 40.98 200 42 C202.18146145 42.61797251 202.18146145 42.61797251 204.75 43 C207.96998806 43.88309263 209.57399471 44.35099058 211.43505859 47.1862793 C211.79422363 48.07742432 212.15338867 48.96856934 212.5234375 49.88671875 C212.93271484 50.87462402 213.34199219 51.8625293 213.76367188 52.88037109 C214.3756543 54.4245874 214.3756543 54.4245874 215 56 C215.41314453 56.97662598 215.82628906 57.95325195 216.25195312 58.95947266 C217.49355235 61.89776121 218.68831998 64.85165527 219.875 67.8125 C220.29007813 68.80958984 220.70515625 69.80667969 221.1328125 70.83398438 C224.79464954 80.00688616 224.79464954 80.00688616 223 85 C221.10878207 87.25726011 219.62707151 88.68646424 217 90 C210.46666667 90.23333333 210.46666667 90.23333333 208 89 C207.855625 89.639375 207.71125 90.27875 207.5625 90.9375 C207 93 207 93 206 94 C203.59582226 94.11353963 201.22154754 94.16418398 198.81640625 94.16796875 C198.08687241 94.17129715 197.35733856 94.17462555 196.60569763 94.17805481 C195.05297476 94.18313201 193.50024093 94.18546289 191.94750977 94.18530273 C189.60348612 94.18746224 187.25995417 94.20553282 184.91601562 94.22460938 C166.58682054 94.29341027 166.58682054 94.29341027 160 91 C160 90.34 160 89.68 160 89 C159.41476563 88.74347656 158.82953125 88.48695312 158.2265625 88.22265625 C155.80765392 86.89437838 154.26801128 85.43475199 152.375 83.4375 C149.95478041 80.85984611 149.95478041 80.85984611 147 79 C147 88.24 147 97.48 147 107 C144.03 107 141.06 107 138 107 C137.97494385 105.65776367 137.9498877 104.31552734 137.92407227 102.93261719 C137.8299021 97.95286508 137.72970471 92.97324933 137.62768555 87.99365234 C137.58437309 85.83841135 137.54269537 83.68313686 137.50268555 81.52783203 C137.44489382 78.42991033 137.38122477 75.33215666 137.31640625 72.234375 C137.29133751 70.78886261 137.29133751 70.78886261 137.26576233 69.31414795 C137.24581711 68.41351624 137.22587189 67.51288452 137.20532227 66.58496094 C137.18977798 65.79442322 137.1742337 65.0038855 137.15821838 64.18939209 C137.00142547 62.01972541 136.59384319 60.08863467 136 58 C136.33 58 136.66 58 137 58 C137.33 46.78 137.66 35.56 138 24 C111.27 24 84.54 24 57 24 C57 51.39 57 78.78 57 107 C38.19 107 19.38 107 0 107 C0 71.69 0 36.38 0 0 Z " fill="#FAFBFB" transform="translate(48,25)"/>
<path d="M0 0 C26.73 0 53.46 0 81 0 C81 31 81 62 81 93 C54.27 93 27.54 93 0 93 C0 62.31 0 31.62 0 0 Z " fill="#034875" transform="translate(105,49)"/>
<path d="M0 0 C1.91808109 0.45237761 3.83442033 0.91214463 5.75 1.375 C6.81734375 1.63023438 7.8846875 1.88546875 8.984375 2.1484375 C13.76179609 3.497502 13.76179609 3.497502 16 5 C17.58753024 9.76259073 18.36937745 13.95184155 18 19 C17.505 19.495 17.505 19.495 17 20 C16.95919217 21.99958364 16.95745644 24.00045254 17 26 C17.639375 26.103125 18.27875 26.20625 18.9375 26.3125 C19.618125 26.539375 20.29875 26.76625 21 27 C21.495 28.485 21.495 28.485 22 30 C24.18146145 30.61797251 24.18146145 30.61797251 26.75 31 C29.96998806 31.88309263 31.57399471 32.35099058 33.43505859 35.1862793 C33.79422363 36.07742432 34.15338867 36.96856934 34.5234375 37.88671875 C34.93271484 38.87462402 35.34199219 39.8625293 35.76367188 40.88037109 C36.3756543 42.4245874 36.3756543 42.4245874 37 44 C37.41314453 44.97662598 37.82628906 45.95325195 38.25195312 46.95947266 C39.49355235 49.89776121 40.68831998 52.85165527 41.875 55.8125 C42.29007812 56.80958984 42.70515625 57.80667969 43.1328125 58.83398438 C46.79464954 68.00688616 46.79464954 68.00688616 45 73 C43.10878207 75.25726011 41.62707151 76.68646424 39 78 C32.46666667 78.23333333 32.46666667 78.23333333 30 77 C29.855625 77.639375 29.71125 78.27875 29.5625 78.9375 C29 81 29 81 28 82 C25.59582226 82.11353963 23.22154754 82.16418398 20.81640625 82.16796875 C20.08687241 82.17129715 19.35733856 82.17462555 18.60569763 82.17805481 C17.05297476 82.18313201 15.50024093 82.18546289 13.94750977 82.18530273 C11.60348612 82.18746224 9.25995417 82.20553282 6.91601562 82.22460938 C-11.41317946 82.29341027 -11.41317946 82.29341027 -18 79 C-18 78.34 -18 77.68 -18 77 C-18.58523437 76.74347656 -19.17046875 76.48695312 -19.7734375 76.22265625 C-22.19234608 74.89437838 -23.73198872 73.43475199 -25.625 71.4375 C-28.04521959 68.85984611 -28.04521959 68.85984611 -31 67 C-31 76.24 -31 85.48 -31 95 C-33.97 95 -36.94 95 -40 95 C-40.02505615 93.65776367 -40.0501123 92.31552734 -40.07592773 90.93261719 C-40.1700979 85.95286508 -40.27029529 80.97324933 -40.37231445 75.99365234 C-40.41562691 73.83841135 -40.45730463 71.68313686 -40.49731445 69.52783203 C-40.55510618 66.42991033 -40.61877523 63.33215666 -40.68359375 60.234375 C-40.70030624 59.27070007 -40.71701874 58.30702515 -40.73423767 57.31414795 C-40.75418289 56.41351624 -40.77412811 55.51288452 -40.79467773 54.58496094 C-40.81022202 53.79442322 -40.8257663 53.0038855 -40.84178162 52.18939209 C-40.99857453 50.01972541 -41.40615681 48.08863467 -42 46 C-41.67 46 -41.34 46 -41 46 C-40.67 35.11 -40.34 24.22 -40 13 C-39.67 13 -39.34 13 -39 13 C-38.98018066 14.04978027 -38.96036133 15.09956055 -38.93994141 16.18115234 C-38.86397802 20.06893261 -38.77524702 23.95633403 -38.68261719 27.84375 C-38.64428896 29.52759329 -38.60944288 31.21151955 -38.578125 32.89550781 C-38.53255713 35.31345306 -38.47455077 37.73082528 -38.4140625 40.1484375 C-38.39673569 41.28132706 -38.39673569 41.28132706 -38.37905884 42.43710327 C-38.39669934 46.67825198 -38.39669934 46.67825198 -36 50 C-34.576875 50.433125 -34.576875 50.433125 -33.125 50.875 C-29.77609422 52.08060608 -28.22510929 53.26140395 -26 56 C-26 56.66 -26 57.32 -26 58 C-24.948125 58.28875 -23.89625 58.5775 -22.8125 58.875 C-19.76701446 59.77366787 -16.92891659 60.79605847 -14 62 C-13.91363281 60.73285156 -13.82726562 59.46570313 -13.73828125 58.16015625 C-12.17576543 38.42311428 -12.17576543 38.42311428 -5.0390625 32.32421875 C-2.42108638 30.62403885 -0.07105054 30.34898302 3 30 C3.33 27.69 3.66 25.38 4 23 C3.071875 22.9071875 3.071875 22.9071875 2.125 22.8125 C0 22 0 22 -1.1171875 19.7890625 C-3.15769038 13.34251802 -2.6760865 6.18845003 0 0 Z " fill="#FBC83C" transform="translate(226,37)"/>
<path d="M0 0 C26.73 0 53.46 0 81 0 C81 31 81 62 81 93 C54.27 93 27.54 93 0 93 C0 90.03 0 87.06 0 84 C0.66 84.33 1.32 84.66 2 85 C4.17674783 85.15469367 6.3578348 85.25002106 8.5390625 85.31640625 C9.84101562 85.35830078 11.14296875 85.40019531 12.484375 85.44335938 C13.86458045 85.48317299 15.24478883 85.52288522 16.625 85.5625 C18.01303415 85.60569407 19.40105528 85.64930865 20.7890625 85.69335938 C24.19260256 85.79972 27.59621778 85.90174714 31 86 C30.505 85.01 30.505 85.01 30 84 C18.615 83.505 18.615 83.505 7 83 C7 82.67 7 82.34 7 82 C9.54139938 81.82770174 12.08285881 81.66076461 14.625 81.5 C15.3888501 81.45157959 16.1527002 81.40315918 16.93969727 81.35327148 C23.09347253 80.9912847 29.17620284 80.98324348 35.33984375 81.16015625 C38.1564824 81.2857402 38.1564824 81.2857402 40 79 C41.5 80.25 41.5 80.25 43 82 C43 83.32 43 84.64 43 86 C53.56 86 64.12 86 75 86 C75 81.71 75 77.42 75 73 C74.05680908 73.00523682 73.11361816 73.01047363 72.1418457 73.01586914 C68.62881861 73.03295311 65.11583593 73.04547066 61.6027832 73.05493164 C60.08487245 73.05994766 58.5669665 73.06676203 57.04907227 73.07543945 C54.86212984 73.08762497 52.67525154 73.09325572 50.48828125 73.09765625 C49.17384033 73.10289307 47.85939941 73.10812988 46.50512695 73.11352539 C43.51794875 73.01677552 40.89407389 72.70343764 38 72 C38.495 70.515 38.495 70.515 39 69 C52.86 69.495 52.86 69.495 67 70 C67 69.01 67 68.02 67 67 C67.66 67 68.32 67 69 67 C69.495 65.02 69.495 65.02 70 63 C60.43 63 50.86 63 41 63 C41 62.01 41 61.02 41 60 C51.89 60 62.78 60 74 60 C74 59.34 74 58.68 74 58 C73.1529248 58.00523682 72.30584961 58.01047363 71.43310547 58.01586914 C68.26855727 58.03298535 65.1040328 58.04548626 61.93945312 58.05493164 C60.5738853 58.05993786 59.20832276 58.06674482 57.84277344 58.07543945 C55.87176882 58.08766831 53.9007239 58.09272866 51.9296875 58.09765625 C50.15440674 58.10551147 50.15440674 58.10551147 48.34326172 58.11352539 C45.13846468 58.00470177 42.14523388 57.60517483 39 57 C39 55.68 39 54.36 39 53 C39.99 53 40.98 53 42 53 C42 53.66 42 54.32 42 55 C53.22 55 64.44 55 76 55 C76 54.34 76 53.68 76 53 C65.11 53 54.22 53 43 53 C43 52.67 43 52.34 43 52 C52.24 51.67 61.48 51.34 71 51 C71.495 50.01 71.495 50.01 72 49 C71.67 48.01 71.34 47.02 71 46 C72.32 45.67 73.64 45.34 75 45 C64.44 45 53.88 45 43 45 C43 44.67 43 44.34 43 44 C53.56 44 64.12 44 75 44 C75 40.04 75 36.08 75 32 C64.44 32 53.88 32 43 32 C43 34.97 43 37.94 43 41 C42.67 40.34 42.34 39.68 42 39 C41.34 39 40.68 39 40 39 C39.67 38.34 39.34 37.68 39 37 C38.505 37.99 38.505 37.99 38 39 C37.01 38.67 36.02 38.34 35 38 C35.66 37.01 36.32 36.02 37 35 C26.44 34.67 15.88 34.34 5 34 C5.33 33.01 5.66 32.02 6 31 C6.07051114 28.26134713 6.09357765 25.54972412 6.0625 22.8125 C6.05798828 22.06291016 6.05347656 21.31332031 6.04882812 20.54101562 C6.03706354 18.69397617 6.01912865 16.84697787 6 15 C6.33 15 6.66 15 7 15 C7 17.64 7 20.28 7 23 C7.82467773 22.9263623 8.64935547 22.85272461 9.49902344 22.77685547 C17.2716611 22.16400075 24.96854439 21.93460765 32.765625 22.0078125 C33.69959106 22.01568787 34.63355713 22.02356323 35.5958252 22.03167725 C39.47276316 22.06814914 43.34942988 22.11096322 47.22607422 22.17138672 C50.09346017 22.21351935 52.96051582 22.2370675 55.828125 22.2578125 C57.14517426 22.28574387 57.14517426 22.28574387 58.48883057 22.3142395 C59.70720612 22.31942093 59.70720612 22.31942093 60.95019531 22.32470703 C61.66218079 22.33438507 62.37416626 22.34406311 63.10772705 22.35403442 C65.53954602 21.89905375 66.43371678 20.8587394 68 19 C67.34 18.67 66.68 18.34 66 18 C66.495 16.515 66.495 16.515 67 15 C50.17 14.67 33.34 14.34 16 14 C16 13.67 16 13.34 16 13 C13.03 12.67 10.06 12.34 7 12 C7 11.67 7 11.34 7 11 C29.11 11 51.22 11 74 11 C73.505 9.515 73.505 9.515 73 8 C40.33 7.505 40.33 7.505 7 7 C7 6.67 7 6.34 7 6 C31.09 6 55.18 6 80 6 C79.505 5.01 79.505 5.01 79 4 C43.36 4.495 43.36 4.495 7 5 C6.67 7.97 6.34 10.94 6 14 C5.01 14.495 5.01 14.495 4 15 C4 12.36 4 9.72 4 7 C3.01 7 2.02 7 1 7 C0.67 4.69 0.34 2.38 0 0 Z " fill="#175570" transform="translate(105,49)"/>
<path d="M0 0 C1.39702148 0.01546875 1.39702148 0.01546875 2.82226562 0.03125 C5.33518079 0.12559772 7.62020068 0.27570381 10.0625 0.875 C12.0859375 3.11328125 12.0859375 3.11328125 13.0625 5.875 C13.37574219 6.67035156 13.68898438 7.46570313 14.01171875 8.28515625 C17.20792611 19.76782714 17.01154237 32.18074579 15.0625 43.875 C-0.4475 43.875 -15.9575 43.875 -31.9375 43.875 C-31.9375 11.875 -31.9375 11.875 -20.9375 0.875 C-14.11762801 -0.55313202 -6.92438128 -0.25664136 0 0 Z " fill="#1A2D37" transform="translate(242.9375,118.125)"/>
<path d="M0 0 C0.33 0 0.66 0 1 0 C1 15.84 1 31.68 1 48 C-25.73 48 -52.46 48 -80 48 C-80 45.03 -80 42.06 -80 39 C-79.34 39.33 -78.68 39.66 -78 40 C-75.82325217 40.15469367 -73.6421652 40.25002106 -71.4609375 40.31640625 C-70.15898438 40.35830078 -68.85703125 40.40019531 -67.515625 40.44335938 C-66.13541955 40.48317299 -64.75521117 40.52288522 -63.375 40.5625 C-61.98696585 40.60569407 -60.59894472 40.64930865 -59.2109375 40.69335938 C-55.80739744 40.79972 -52.40378222 40.90174714 -49 41 C-49.33 40.34 -49.66 39.68 -50 39 C-61.385 38.505 -61.385 38.505 -73 38 C-73 37.67 -73 37.34 -73 37 C-70.45860062 36.82770174 -67.91714119 36.66076461 -65.375 36.5 C-64.6111499 36.45157959 -63.8472998 36.40315918 -63.06030273 36.35327148 C-56.90652747 35.9912847 -50.82379716 35.98324348 -44.66015625 36.16015625 C-41.8435176 36.2857402 -41.8435176 36.2857402 -40 34 C-38.5 35.25 -38.5 35.25 -37 37 C-37 38.32 -37 39.64 -37 41 C-26.44 41 -15.88 41 -5 41 C-5 36.71 -5 32.42 -5 28 C-5.94319092 28.00523682 -6.88638184 28.01047363 -7.8581543 28.01586914 C-11.37118139 28.03295311 -14.88416407 28.04547066 -18.3972168 28.05493164 C-19.91512755 28.05994766 -21.4330335 28.06676203 -22.95092773 28.07543945 C-25.13787016 28.08762497 -27.32474846 28.09325572 -29.51171875 28.09765625 C-30.82615967 28.10289307 -32.14060059 28.10812988 -33.49487305 28.11352539 C-36.48205125 28.01677552 -39.10592611 27.70343764 -42 27 C-41.505 25.515 -41.505 25.515 -41 24 C-27.14 24.495 -27.14 24.495 -13 25 C-13 24.01 -13 23.02 -13 22 C-12.34 22 -11.68 22 -11 22 C-10.67 20.68 -10.34 19.36 -10 18 C-19.57 18 -29.14 18 -39 18 C-39 17.01 -39 16.02 -39 15 C-28.11 15 -17.22 15 -6 15 C-6 14.34 -6 13.68 -6 13 C-6.8470752 13.00523682 -7.69415039 13.01047363 -8.56689453 13.01586914 C-11.73144273 13.03298535 -14.8959672 13.04548626 -18.06054688 13.05493164 C-19.4261147 13.05993786 -20.79167724 13.06674482 -22.15722656 13.07543945 C-24.12823118 13.08766831 -26.0992761 13.09272866 -28.0703125 13.09765625 C-29.84559326 13.10551147 -29.84559326 13.10551147 -31.65673828 13.11352539 C-34.86153532 13.00470177 -37.85476612 12.60517483 -41 12 C-41 10.68 -41 9.36 -41 8 C-40.01 8 -39.02 8 -38 8 C-38 8.66 -38 9.32 -38 10 C-26.12 10 -14.24 10 -2 10 C-2.495 8.515 -2.495 8.515 -3 7 C-1.44444444 1.44444444 -1.44444444 1.44444444 0 0 Z " fill="#024872" transform="translate(185,94)"/>
<path d="M0 0 C0.33 0 0.66 0 1 0 C1.01981934 1.04978027 1.03963867 2.09956055 1.06005859 3.18115234 C1.13602198 7.06893261 1.22475298 10.95633403 1.31738281 14.84375 C1.35571104 16.52759329 1.39055712 18.21151955 1.421875 19.89550781 C1.46744287 22.31345306 1.52544923 24.73082528 1.5859375 27.1484375 C1.60326431 28.28132706 1.60326431 28.28132706 1.62094116 29.43710327 C1.60330066 33.67825198 1.60330066 33.67825198 4 37 C5.423125 37.433125 5.423125 37.433125 6.875 37.875 C10.22390578 39.08060608 11.77489071 40.26140395 14 43 C14 43.66 14 44.32 14 45 C15.051875 45.28875 16.10375 45.5775 17.1875 45.875 C20.22818711 46.77225193 23.08712344 47.76423419 26 49 C26.33 46.69 26.66 44.38 27 42 C30 44 30 44 30.68359375 45.828125 C31.02479789 48.17021759 31.09729516 50.38392907 31.0625 52.75 C31.05347656 53.54921875 31.04445312 54.3484375 31.03515625 55.171875 C31.02355469 55.77515625 31.01195312 56.3784375 31 57 C30.67 57 30.34 57 30 57 C29.67 58.65 29.34 60.3 29 62 C29.66 62 30.32 62 31 62 C31.33 59.69 31.66 57.38 32 55 C32.66 55 33.32 55 34 55 C34.185625 54.1028125 34.185625 54.1028125 34.375 53.1875 C35 51 35 51 37 48 C37.08121924 49.60332791 37.13929134 51.20784026 37.1875 52.8125 C37.23970703 54.15248047 37.23970703 54.15248047 37.29296875 55.51953125 C36.94553239 58.46115912 36.15348936 59.0921341 34 61 C34.2818047 63.32488881 34.95446418 64.90892835 36 67 C39.3 67 42.6 67 46 67 C46 66.01 46 65.02 46 64 C51.02551569 61.56338633 55.31712747 61.0978645 60.671875 62.8984375 C63.1406402 63.88175923 65.57749061 64.90816478 68 66 C68 66.99 68 67.98 68 69 C63.34099845 69.04991513 58.68215697 69.0859601 54.02294922 69.10986328 C52.44219242 69.11984159 50.86145369 69.13342907 49.28076172 69.15087891 C28.74342105 69.37171053 28.74342105 69.37171053 22 66 C22 65.34 22 64.68 22 64 C21.41476563 63.74347656 20.82953125 63.48695312 20.2265625 63.22265625 C17.80765392 61.89437838 16.26801128 60.43475199 14.375 58.4375 C11.95478041 55.85984611 11.95478041 55.85984611 9 54 C9 63.24 9 72.48 9 82 C6.03 82 3.06 82 0 82 C-0.02505615 80.65776367 -0.0501123 79.31552734 -0.07592773 77.93261719 C-0.1700979 72.95286508 -0.27029529 67.97324933 -0.37231445 62.99365234 C-0.41562691 60.83841135 -0.45730463 58.68313686 -0.49731445 56.52783203 C-0.55510618 53.42991033 -0.61877523 50.33215666 -0.68359375 47.234375 C-0.70030624 46.27070007 -0.71701874 45.30702515 -0.73423767 44.31414795 C-0.75418289 43.41351624 -0.77412811 42.51288452 -0.79467773 41.58496094 C-0.81022202 40.79442322 -0.8257663 40.0038855 -0.84178162 39.18939209 C-0.99857453 37.01972541 -1.40615681 35.08863467 -2 33 C-1.67 33 -1.34 33 -1 33 C-0.67 22.11 -0.34 11.22 0 0 Z " fill="#F0C744" transform="translate(186,50)"/>
<path d="M0 0 C46.86 0 93.72 0 142 0 C142 0.33 142 0.66 142 1 C137.05 1 132.1 1 127 1 C127.495 2.485 127.495 2.485 128 4 C127.0625 7.1875 127.0625 7.1875 126 10 C124.35 10 122.7 10 121 10 C120.505 8.515 120.505 8.515 120 7 C119.34 7.99 118.68 8.98 118 10 C118 9.01 118 8.02 118 7 C117.34 7 116.68 7 116 7 C116 7.99 116 8.98 116 10 C113.52076199 10.02685095 111.0418116 10.04676547 108.5625 10.0625 C107.85544922 10.07087891 107.14839844 10.07925781 106.41992188 10.08789062 C104.61306441 10.09653588 102.80612397 10.05220011 101 10 C100.505 9.505 100.505 9.505 100 9 C99.67 9.66 99.34 10.32 99 11 C98.01 10.67 97.02 10.34 96 10 C95.67 10 95.34 10 95 10 C93.68 10 92.36 10 91 10 C90.505 5.545 90.505 5.545 90 1 C87.69 1.33 85.38 1.66 83 2 C83.825 2.391875 84.65 2.78375 85.5 3.1875 C86.325 3.785625 87.15 4.38375 88 5 C88.3125 7.6875 88.3125 7.6875 88 10 C81.33333333 10 74.66666667 10 68 10 C67.505 8.515 67.505 8.515 67 7 C66.34 7.99 65.68 8.98 65 10 C61.47999913 11.43407443 57.74408292 11.14128615 54 11 C53.505 10.505 53.505 10.505 53 10 C50.66702567 9.95907063 48.33294775 9.95758277 46 10 C45.505 8.515 45.505 8.515 45 7 C44.34 7.99 43.68 8.98 43 10 C40.25373178 10.13288395 37.72501077 10.1388213 35 10 C33.68 10 32.36 10 31 10 C30.67 10 30.34 10 30 10 C29.875 3.25 29.875 3.25 31 1 C24.73 1 18.46 1 12 1 C12 1.66 12 2.32 12 3 C12.66 3.33 13.32 3.66 14 4 C14.66 4.33 15.32 4.66 16 5 C17.70702735 5.06996014 19.41668003 5.08440154 21.125 5.0625 C22.03507812 5.05347656 22.94515625 5.04445313 23.8828125 5.03515625 C24.58148438 5.02355469 25.28015625 5.01195312 26 5 C26 6.65 26 8.3 26 10 C25.67 8.68 25.34 7.36 25 6 C24.34 6 23.68 6 23 6 C23 7.32 23 8.64 23 10 C19.65747276 10.07427838 17.1964086 10.06546953 14 9 C14 8.34 14 7.68 14 7 C13.34 7 12.68 7 12 7 C12 7.66 12 8.32 12 9 C10.02 9.33 8.04 9.66 6 10 C5.875 7.125 5.875 7.125 6 4 C6.66 3.34 7.32 2.68 8 2 C5.36 1.67 2.72 1.34 0 1 C0 0.67 0 0.34 0 0 Z " fill="#F3FBF6" transform="translate(50,30)"/>
<path d="M0 0 C0.495 1.98 0.495 1.98 1 4 C-1.31 4.33 -3.62 4.66 -6 5 C-5.505 6.98 -5.505 6.98 -5 9 C-33.215 9.495 -33.215 9.495 -62 10 C-62 10.33 -62 10.66 -62 11 C-44.84 11.33 -27.68 11.66 -10 12 C-10.66 12.33 -11.32 12.66 -12 13 C-11.505 16.465 -11.505 16.465 -11 20 C-14.15334826 21.05111609 -16.35512283 21.12070472 -19.66479492 21.11352539 C-20.82577194 21.11344986 -21.98674896 21.11337433 -23.1829071 21.11329651 C-24.43610245 21.10813522 -25.68929779 21.10297394 -26.98046875 21.09765625 C-28.26359451 21.0962413 -29.54672028 21.09482635 -30.86872864 21.09336853 C-34.27670241 21.08955405 -37.68463343 21.07973291 -41.09259033 21.06866455 C-44.57148663 21.05842743 -48.05038985 21.05386598 -51.52929688 21.04882812 C-58.35288212 21.03810967 -65.17643901 21.02104609 -72 21 C-72.58126276 16.48814266 -73.13921726 12.11913275 -73.125 7.5625 C-73.12757812 6.71816406 -73.13015625 5.87382813 -73.1328125 5.00390625 C-73 3 -73 3 -72 2 C-69.76070114 1.90563471 -67.5183825 1.88257673 -65.27709961 1.88647461 C-64.5746965 1.88632858 -63.8722934 1.88618256 -63.14860535 1.8860321 C-60.81648722 1.88673128 -58.484448 1.89452383 -56.15234375 1.90234375 C-54.53951562 1.90420792 -52.92668693 1.90563182 -51.31385803 1.90663147 C-47.06084643 1.91045677 -42.80786876 1.92028715 -38.55487061 1.93133545 C-34.2182257 1.94154931 -29.88157533 1.94612904 -25.54492188 1.95117188 C-17.02993231 1.96190941 -8.51497037 1.97898597 0 2 C0 1.34 0 0.68 0 0 Z " fill="#014A74" transform="translate(184,51)"/>
<path d="M0 0 C20.79 0 41.58 0 63 0 C63 0.66 63 1.32 63 2 C62.34 2 61.68 2 61 2 C61 2.99 61 3.98 61 5 C57.63346113 6.06513937 54.86101408 5.97679383 51.359375 5.66015625 C50.28945312 5.56669922 49.21953125 5.47324219 48.1171875 5.37695312 C47.00601563 5.27318359 45.89484375 5.16941406 44.75 5.0625 C43.62335938 4.96259766 42.49671875 4.86269531 41.3359375 4.75976562 C38.55670092 4.51246068 35.77816827 4.25898716 33 4 C33 4.66 33 5.32 33 6 C36.7513465 7.17125374 40.49631612 7.22059865 44.390625 7.31640625 C45.09523865 7.33718735 45.79985229 7.35796844 46.52581787 7.37937927 C48.76711681 7.44453837 51.00852864 7.50360248 53.25 7.5625 C54.77344897 7.60571726 56.29688671 7.64933257 57.8203125 7.69335938 C61.54675591 7.80018491 65.27332494 7.90154639 69 8 C69 12.29 69 16.58 69 21 C58.44 21 47.88 21 37 21 C37 19.68 37 18.36 37 17 C33.95086772 15.98888907 33.95086772 15.98888907 31 17 C31 16.01 31 15.02 31 14 C20.77 14 10.54 14 0 14 C-0.33 13.01 -0.66 12.02 -1 11 C8.9 11 18.8 11 29 11 C29 10.01 29 9.02 29 8 C19.43 8 9.86 8 0 8 C0 5.36 0 2.72 0 0 Z " fill="#02466E" transform="translate(111,114)"/>
<path d="M0 0 C26.73 0 53.46 0 81 0 C81 11.55 81 23.1 81 35 C80.67 35 80.34 35 80 35 C80 31.04 80 27.08 80 23 C78.576875 23.04125 77.15375 23.0825 75.6875 23.125 C72.01939967 23.23132175 71.20380017 23.13586678 68 21 C68 20.34 68 19.68 68 19 C67.34 18.67 66.68 18.34 66 18 C66.495 16.515 66.495 16.515 67 15 C50.17 14.67 33.34 14.34 16 14 C16 13.67 16 13.34 16 13 C13.03 12.67 10.06 12.34 7 12 C7 11.67 7 11.34 7 11 C29.11 11 51.22 11 74 11 C73.505 9.515 73.505 9.515 73 8 C40.33 7.505 40.33 7.505 7 7 C7 6.67 7 6.34 7 6 C31.09 6 55.18 6 80 6 C79.505 5.01 79.505 5.01 79 4 C43.36 4.495 43.36 4.495 7 5 C6.67 7.97 6.34 10.94 6 14 C5.01 14.495 5.01 14.495 4 15 C4 12.36 4 9.72 4 7 C3.01 7 2.02 7 1 7 C0.67 4.69 0.34 2.38 0 0 Z " fill="#04436B" transform="translate(105,49)"/>
<path d="M0 0 C48.18 0 96.36 0 146 0 C146 1.32 146 2.64 146 4 C143.3309359 5.33453205 141.28274949 5.14001805 138.29269409 5.15821838 C137.07830658 5.1680072 135.86391907 5.17779602 134.61273193 5.18788147 C133.25988809 5.19378602 131.90704383 5.19959644 130.55419922 5.20532227 C129.13520012 5.21489839 127.7162039 5.22490831 126.29721069 5.23532104 C122.43796639 5.26240501 118.57870982 5.28339563 114.71942282 5.30332303 C110.68883103 5.32516108 106.65827723 5.35256042 102.62771606 5.37937927 C94.99212088 5.42933571 87.35650465 5.47426357 79.72086823 5.51740164 C71.02930559 5.56674883 62.33778106 5.62167628 53.64625525 5.67708123 C35.76420553 5.79094656 17.88211987 5.89777567 0 6 C0 4.02 0 2.04 0 0 Z " fill="#F0F6F9" transform="translate(48,25)"/>
<path d="M0 0 C4.09455249 4.98046476 5.9469936 10.92231396 8.25 16.875 C8.72179687 18.04675781 9.19359375 19.21851563 9.6796875 20.42578125 C10.12054688 21.56144531 10.56140625 22.69710937 11.015625 23.8671875 C11.42071289 24.89956543 11.82580078 25.93194336 12.24316406 26.99560547 C13.10754713 30.42692742 12.91723466 32.60094233 12 36 C9.16535025 39.38329164 7.32603919 40.86622555 2.90234375 41.3125 C-1.96000523 40.9231227 -5.20362848 39.29318567 -9.4375 37 C-10.53481445 36.42765625 -10.53481445 36.42765625 -11.65429688 35.84375 C-13.44289665 34.90853443 -15.22242596 33.95600621 -17 33 C-15.68 27.72 -14.36 22.44 -13 17 C-12.67 17 -12.34 17 -12 17 C-11.67 19.64 -11.34 22.28 -11 25 C-8.69 25.33 -6.38 25.66 -4 26 C-4.185625 25.46375 -4.37125 24.9275 -4.5625 24.375 C-5.12161365 21.3398116 -4.60391499 19.01957493 -4 16 C-3.855625 14.9275 -3.71125 13.855 -3.5625 12.75 C-3 10 -3 10 -1 8 C-1.66 8 -2.32 8 -3 8 C-3 7.01 -3 6.02 -3 5 C-3.66 5 -4.32 5 -5 5 C-5 4.01 -5 3.02 -5 2 C-4.01 2 -3.02 2 -2 2 C-1.67 2.66 -1.34 3.32 -1 4 C-0.67 2.68 -0.34 1.36 0 0 Z " fill="#FCC83E" transform="translate(259,74)"/>
<path d="M0 0 C1.29997925 0.00303635 1.29997925 0.00303635 2.6262207 0.00613403 C3.51027588 0.00517731 4.39433105 0.00422058 5.30517578 0.00323486 C7.178142 0.00255302 9.05111056 0.0044076 10.92407227 0.00857544 C13.80140458 0.01392364 16.67858078 0.0086306 19.5559082 0.00222778 C21.37101272 0.00288856 23.18611713 0.00416972 25.0012207 0.00613403 C25.86787354 0.0041098 26.73452637 0.00208557 27.62744141 0 C33.69877061 0.02399644 33.69877061 0.02399644 34.8137207 1.13894653 C34.88631016 3.32534106 34.89745853 5.51395042 34.8762207 7.70144653 C34.86719727 8.8989856 34.85817383 10.09652466 34.84887695 11.33035278 C34.83727539 12.25718872 34.82567383 13.18402466 34.8137207 14.13894653 C28.99300448 14.16359291 23.17231836 14.18178083 17.3515625 14.19387817 C15.36978629 14.19891921 13.38801382 14.20575191 11.40625 14.21438599 C8.56419962 14.22646168 5.72219823 14.23217698 2.88012695 14.23660278 C1.54263145 14.24434471 1.54263145 14.24434471 0.17811584 14.25224304 C-1.94368531 14.2524383 -4.06538709 14.20104683 -6.1862793 14.13894653 C-7.1862793 13.13894653 -7.1862793 13.13894653 -7.3190918 10.45144653 C-7.31651367 9.35832153 -7.31393555 8.26519653 -7.3112793 7.13894653 C-7.31385742 6.04582153 -7.31643555 4.95269653 -7.3190918 3.82644653 C-7.07032151 -1.20749331 -4.40806471 0.01742252 0 0 Z " fill="#0E4B71" transform="translate(62.186279296875,48.861053466796875)"/>
<path d="M0 0 C5.67830078 -0.02464705 11.35657069 -0.04283462 17.03491211 -0.05493164 C18.96818585 -0.05997256 20.90145576 -0.06680519 22.8347168 -0.07543945 C25.60726872 -0.08751565 28.37977041 -0.09323057 31.15234375 -0.09765625 C32.45702858 -0.10539818 32.45702858 -0.10539818 33.78807068 -0.11329651 C35.85905814 -0.11349185 37.92994324 -0.06208168 40 0 C41 1 41 1 41.09765625 3.94140625 C41.08605469 5.13636719 41.07445312 6.33132812 41.0625 7.5625 C41.05347656 8.76003906 41.04445312 9.95757812 41.03515625 11.19140625 C41.02355469 12.11824219 41.01195312 13.04507813 41 14 C35.17928378 14.02464638 29.35859766 14.0428343 23.5378418 14.05493164 C21.55606559 14.05997267 19.57429311 14.06680538 17.5925293 14.07543945 C14.75047891 14.08751515 11.90847753 14.09323045 9.06640625 14.09765625 C7.72891075 14.10539818 7.72891075 14.10539818 6.36439514 14.11329651 C4.24259399 14.11349177 2.1208922 14.0621003 0 14 C-1 13 -1 13 -1.1328125 10.56640625 C-1.13023438 9.57511719 -1.12765625 8.58382812 -1.125 7.5625 C-1.12757812 6.57378906 -1.13015625 5.58507812 -1.1328125 4.56640625 C-1 2 -1 2 0 0 Z " fill="#CEDEE3" transform="translate(56,70)"/>
<path d="M0 0 C1.29997925 0.00303635 1.29997925 0.00303635 2.6262207 0.00613403 C3.51027588 0.00517731 4.39433105 0.00422058 5.30517578 0.00323486 C7.178142 0.00255302 9.05111056 0.0044076 10.92407227 0.00857544 C13.80140458 0.01392364 16.67858078 0.0086306 19.5559082 0.00222778 C21.37101272 0.00288856 23.18611713 0.00416972 25.0012207 0.00613403 C25.86787354 0.0041098 26.73452637 0.00208557 27.62744141 0 C33.69877061 0.02399644 33.69877061 0.02399644 34.8137207 1.13894653 C34.91251635 2.94923153 34.94343585 4.7634738 34.9387207 6.57644653 C34.94258789 8.05951294 34.94258789 8.05951294 34.9465332 9.57254028 C34.8137207 12.13894653 34.8137207 12.13894653 33.8137207 14.13894653 C20.6137207 14.13894653 7.4137207 14.13894653 -6.1862793 14.13894653 C-7.49792772 11.51564969 -7.31890776 9.50196028 -7.3112793 6.57644653 C-7.31385742 5.58515747 -7.31643555 4.59386841 -7.3190918 3.57254028 C-7.0570239 -1.2294685 -4.12861835 0.01631803 0 0 Z " fill="#D0DCE3" transform="translate(62.186279296875,110.86105346679688)"/>
<path d="M0 0 C13.2 0 26.4 0 40 0 C41 2 41 2 41 13 C27.14 13 13.28 13 -1 13 C-1 2 -1 2 0 0 Z " fill="#CDDAE2" transform="translate(56,91)"/>
<path d="M0 0 C6.93 0 13.86 0 21 0 C21 10 21 10 19 16 C25.435 19.465 25.435 19.465 32 23 C31.67 24.65 31.34 26.3 31 28 C30.67 27.34 30.34 26.68 30 26 C28.00371336 25.6451046 26.00309329 25.31421071 24 25 C23.09507812 24.48953125 23.09507812 24.48953125 22.171875 23.96875 C18.54704613 22.35191986 14.87173649 22.96726224 10.97265625 23.125 C7.82196628 22.99251369 5.7759338 22.47918319 3 21 C0.05742993 14.52634585 0.39908119 6.98392084 0 0 Z " fill="#C58B74" transform="translate(224,90)"/>
<path d="M0 0 C3.95819611 -0.08678303 7.91614934 -0.14031733 11.875 -0.1875 C13.00292969 -0.21263672 14.13085938 -0.23777344 15.29296875 -0.26367188 C16.36933594 -0.27333984 17.44570312 -0.28300781 18.5546875 -0.29296875 C20.04718018 -0.31653442 20.04718018 -0.31653442 21.56982422 -0.34057617 C22.37178223 -0.22818604 23.17374023 -0.1157959 24 0 C24.66 0.99 25.32 1.98 26 3 C26.66 2.34 27.32 1.68 28 1 C28 1.66 28 2.32 28 3 C28.66 3 29.32 3 30 3 C30.33 2.34 30.66 1.68 31 1 C31 2.32 31 3.64 31 5 C33.97 5 36.94 5 40 5 C40 5.33 40 5.66 40 6 C49.57 6.33 59.14 6.66 69 7 C69 7.66 69 8.32 69 9 C57.78 9 46.56 9 35 9 C35 8.34 35 7.68 35 7 C34.01 7 33.02 7 32 7 C32 8.32 32 9.64 32 11 C43.55 11.33 55.1 11.66 67 12 C67 12.66 67 13.32 67 14 C56.11 14 45.22 14 34 14 C34 14.99 34 15.98 34 17 C43.57 17 53.14 17 63 17 C63 17.66 63 18.32 63 19 C58.60364953 19.16726689 54.20712239 19.32786093 49.81030273 19.48217773 C48.31349062 19.53566434 46.81674337 19.5909987 45.32006836 19.64819336 C43.17315668 19.72991956 41.02610207 19.8050746 38.87890625 19.87890625 C36.93866577 19.94960327 36.93866577 19.94960327 34.95922852 20.02172852 C32 20 32 20 31 19 C31 15.04 31 11.08 31 7 C20.44 7 9.88 7 -1 7 C-0.67 4.69 -0.34 2.38 0 0 Z " fill="#637D63" transform="translate(112,95)"/>
<path d="M0 0 C0.495 1.98 0.495 1.98 1 4 C-1.31 4.33 -3.62 4.66 -6 5 C-5.505 6.98 -5.505 6.98 -5 9 C-6.06115776 9.01213028 -6.06115776 9.01213028 -7.14375305 9.02450562 C-13.80938581 9.10243337 -20.47482258 9.18971838 -27.14019489 9.28752708 C-30.56697348 9.33748172 -33.99372136 9.38381157 -37.4206543 9.421875 C-41.36004083 9.46578887 -45.29911308 9.52543728 -49.23828125 9.5859375 C-51.0852636 9.60326431 -51.0852636 9.60326431 -52.96955872 9.62094116 C-54.68099312 9.6507457 -54.68099312 9.6507457 -56.42700195 9.68115234 C-57.432939 9.69447601 -58.43887604 9.70779968 -59.47529602 9.7215271 C-62.24506609 9.83105755 -62.24506609 9.83105755 -65 12 C-68.6875 11.625 -68.6875 11.625 -72 11 C-72.33 11.66 -72.66 12.32 -73 13 C-73.02688151 11.35425434 -73.04634123 9.70838587 -73.0625 8.0625 C-73.07410156 7.14597656 -73.08570312 6.22945312 -73.09765625 5.28515625 C-73 3 -73 3 -72 2 C-69.76070114 1.90563471 -67.5183825 1.88257673 -65.27709961 1.88647461 C-64.5746965 1.88632858 -63.8722934 1.88618256 -63.14860535 1.8860321 C-60.81648722 1.88673128 -58.484448 1.89452383 -56.15234375 1.90234375 C-54.53951562 1.90420792 -52.92668693 1.90563182 -51.31385803 1.90663147 C-47.06084643 1.91045677 -42.80786876 1.92028715 -38.55487061 1.93133545 C-34.2182257 1.94154931 -29.88157533 1.94612904 -25.54492188 1.95117188 C-17.02993231 1.96190941 -8.51497037 1.97898597 0 2 C0 1.34 0 0.68 0 0 Z " fill="#215F86" transform="translate(184,51)"/>
<path d="M0 0 C1.98 0 3.96 0 6 0 C5.01 0.495 5.01 0.495 4 1 C4 35.65 4 70.3 4 106 C3.01 105.34 2.02 104.68 1 104 C0.67 105.98 0.34 107.96 0 110 C-0.66 110 -1.32 110 -2 110 C-3.24085503 105.21320224 -3.10832617 100.55949098 -3.0534668 95.6550293 C-3.04707184 94.72105316 -3.04067688 93.78707703 -3.03408813 92.82479858 C-3.01133123 89.74119881 -2.98070357 86.65774096 -2.94921875 83.57421875 C-2.92997826 81.42576762 -2.91092272 79.27731482 -2.89204407 77.12886047 C-2.85107675 72.62565763 -2.80586094 68.12251998 -2.75805664 63.61938477 C-2.69753359 57.85954033 -2.65057721 52.09967466 -2.60722637 46.33967876 C-2.57179248 41.90170431 -2.52756384 37.46384901 -2.48087502 33.02598 C-2.45988502 30.90302132 -2.44196645 28.7800299 -2.4272213 26.65701866 C-2.40554616 23.68222111 -2.37161955 20.70779678 -2.3347168 17.7331543 C-2.33098557 16.86275009 -2.32725433 15.99234589 -2.32341003 15.0955658 C-2.24131614 9.75697083 -1.48205059 5.13404128 0 0 Z " fill="#319BD0" transform="translate(44,24)"/>
<path d="M0 0 C0.33 0 0.66 0 1 0 C1 1.65 1 3.3 1 5 C1.66 5 2.32 5 3 5 C8 5 13 5 18 5 C18 7.97 18 10.94 18 14 C15.03 14 12.06 14 9 14 C8.67 13.01 8.34 12.02 8 11 C8 12.32 8 13.64 8 15 C8.99 15 9.98 15 11 15 C11 16.32 11 17.64 11 19 C11.66 19.33 12.32 19.66 13 20 C13 21.98 13 23.96 13 26 C12.67 25.34 12.34 24.68 12 24 C9 22.66666667 9 22.66666667 6 24 C6.99 24.66 7.98 25.32 9 26 C9.66 25.67 10.32 25.34 11 25 C11.66 26.32 12.32 27.64 13 29 C11.35 29 9.7 29 8 29 C8.33 30.98 8.66 32.96 9 35 C9.66 35 10.32 35 11 35 C11 36.32 11 37.64 11 39 C8.03 39 5.06 39 2 39 C1.67 39.99 1.34 40.98 1 42 C0.34 42 -0.32 42 -1 42 C-1.02470469 36.50073576 -1.04286223 31.00150378 -1.05493164 25.50219727 C-1.05996279 23.63109779 -1.06678835 21.76000225 -1.07543945 19.88891602 C-1.08755829 17.20067372 -1.09324047 14.51248336 -1.09765625 11.82421875 C-1.10281754 10.98662521 -1.10797882 10.14903168 -1.11329651 9.28605652 C-1.11362064 5.93624258 -1.06684515 3.20053544 0 0 Z " fill="#1885BF" transform="translate(1,59)"/>
<path d="M0 0 C1.91808109 0.45237761 3.83442033 0.91214463 5.75 1.375 C6.81734375 1.63023438 7.8846875 1.88546875 8.984375 2.1484375 C13.76179609 3.497502 13.76179609 3.497502 16 5 C17.58753024 9.76259073 18.36937745 13.95184155 18 19 C17.67 19.33 17.34 19.66 17 20 C16.95907063 22.33297433 16.95758277 24.66705225 17 27 C12.71 27 8.42 27 4 27 C4 25.68 4 24.36 4 23 C3.071875 22.9071875 3.071875 22.9071875 2.125 22.8125 C0 22 0 22 -1.1171875 19.7890625 C-3.15769038 13.34251802 -2.6760865 6.18845003 0 0 Z " fill="#BC7F6D" transform="translate(226,37)"/>
<path d="M0 0 C10.56 0 21.12 0 32 0 C32 4.29 32 8.58 32 13 C21.44 13 10.88 13 0 13 C0 8.71 0 4.42 0 0 Z " fill="#2AB8E4" transform="translate(148,122)"/>
<path d="M0 0 C5.39838928 0.04217492 9.58006793 1.04715617 13.9375 4.3125 C16.14664 7.62621 16.16231553 8.6571021 16.0625 12.5 C16.04445312 13.40105469 16.02640625 14.30210938 16.0078125 15.23046875 C15.98460937 15.91753906 15.96140625 16.60460937 15.9375 17.3125 C16.9275 17.6425 17.9175 17.9725 18.9375 18.3125 C18.6075 21.9425 18.2775 25.5725 17.9375 29.3125 C12.1875 30.4375 12.1875 30.4375 9.9375 29.3125 C9.9375 30.9625 9.9375 32.6125 9.9375 34.3125 C9.2775 33.9825 8.6175 33.6525 7.9375 33.3125 C7.89495644 31.31295254 7.89669217 29.31208364 7.9375 27.3125 C8.2675 26.9825 8.5975 26.6525 8.9375 26.3125 C9.18483137 22.16973125 9.18483137 22.16973125 7.9375 18.3125 C7.897508 16.31289988 7.89403201 14.31202758 7.9375 12.3125 C2.63710141 10.64695973 -2.53543087 9.03974594 -8.0625 8.3125 C-9.0525 11.7775 -9.0525 11.7775 -10.0625 15.3125 C-10.3925 15.3125 -10.7225 15.3125 -11.0625 15.3125 C-11.0625 12.3425 -11.0625 9.3725 -11.0625 6.3125 C-10.0725 5.9825 -9.0825 5.6525 -8.0625 5.3125 C-6.9124169 3.34577085 -6.9124169 3.34577085 -6.0625 1.3125 C-4.37252987 -0.37747013 -2.31386714 0.06047246 0 0 Z " fill="#203841" transform="translate(234.0625,29.6875)"/>
<path d="M0 0 C10.56 0 21.12 0 32 0 C32 3.96 32 7.92 32 12 C21.44 12 10.88 12 0 12 C0 8.04 0 4.08 0 0 Z " fill="#2CBBE9" transform="translate(111,102)"/>
<path d="M0 0 C10.56 0 21.12 0 32 0 C32 3.96 32 7.92 32 12 C21.44 12 10.88 12 0 12 C0 8.04 0 4.08 0 0 Z " fill="#2ABCE9" transform="translate(148,81)"/>
<path d="M0 0 C26.73 0 53.46 0 81 0 C81 0.66 81 1.32 81 2 C80.34 2 79.68 2 79 2 C79 2.66 79 3.32 79 4 C43.36 4.495 43.36 4.495 7 5 C6.67 7.97 6.34 10.94 6 14 C5.01 14.495 5.01 14.495 4 15 C4 12.36 4 9.72 4 7 C3.01 7 2.02 7 1 7 C0.67 4.69 0.34 2.38 0 0 Z " fill="#115076" transform="translate(105,49)"/>
<path d="M0 0 C4.44736742 -0.09932276 8.89413713 -0.17168003 13.34228516 -0.21972656 C14.85346736 -0.23976791 16.36457272 -0.26700905 17.87548828 -0.30175781 C20.05520643 -0.35061109 22.23389431 -0.37304224 24.4140625 -0.390625 C25.7232666 -0.41157227 27.0324707 -0.43251953 28.38134766 -0.45410156 C32.60630501 0.07608469 34.76298272 1.27324229 38 4 C38.375 6.75 38.375 6.75 38 9 C31.33333333 9 24.66666667 9 18 9 C17.67 8.01 17.34 7.02 17 6 C16.01 7.485 16.01 7.485 15 9 C11.47999913 10.43407443 7.74408292 10.14128615 4 10 C3.67 9.67 3.34 9.34 3 9 C0.66702567 8.95907063 -1.66705225 8.95758277 -4 9 C-4.33 8.01 -4.66 7.02 -5 6 C-5.66 6.99 -6.32 7.98 -7 9 C-7 7.35 -7 5.7 -7 4 C-6.195625 4.185625 -5.39125 4.37125 -4.5625 4.5625 C-3.716875 4.706875 -2.87125 4.85125 -2 5 C-1.67 4.67 -1.34 4.34 -1 4 C-0.01 4 0.98 4 2 4 C1.34 2.68 0.68 1.36 0 0 Z " fill="#CFCFCF" transform="translate(100,31)"/>
<path d="M0 0 C16.335 0.495 16.335 0.495 33 1 C33 1.99 33 2.98 33 4 C23.1 4 13.2 4 3 4 C3.33 4.66 3.66 5.32 4 6 C14.23 6.33 24.46 6.66 35 7 C35 7.66 35 8.32 35 9 C28.565 9.495 28.565 9.495 22 10 C24.31 10.66 26.62 11.32 29 12 C29 12.66 29 13.32 29 14 C19.43 14 9.86 14 0 14 C-2.51042311 8.97915378 -1.95411396 7.37773324 -1 2 C-0.67 1.34 -0.34 0.68 0 0 Z " fill="#8D8C56" transform="translate(107,121)"/>
<path d="M0 0 C1.32 0.33 2.64 0.66 4 1 C4.144375 1.9075 4.28875 2.815 4.4375 3.75 C4.86409473 6.21476956 5.35074221 8.58847107 6 11 C5.01 11.495 5.01 11.495 4 12 C3.67 10.35 3.34 8.7 3 7 C2.01 7 1.02 7 0 7 C0 7.99 0 8.98 0 10 C0.66 10 1.32 10 2 10 C2 10.99 2 11.98 2 13 C2.66 13 3.32 13 4 13 C4 14.98 4 16.96 4 19 C3.34 19 2.68 19 2 19 C2.020625 19.86625 2.04125 20.7325 2.0625 21.625 C2.00261044 24.85903648 1.60419067 27.82799897 1 31 C-1.31 31 -3.62 31 -6 31 C-6.66 28.69 -7.32 26.38 -8 24 C-8.33 24 -8.66 24 -9 24 C-9 22.02 -9 20.04 -9 18 C-8.01 18 -7.02 18 -6 18 C-6 16.68 -6 15.36 -6 14 C-7.65 14.33 -9.3 14.66 -11 15 C-10.67 12.36 -10.34 9.72 -10 7 C-8.02 7.495 -8.02 7.495 -6 8 C-5.938125 7.38125 -5.87625 6.7625 -5.8125 6.125 C-5 4 -5 4 -2.4375 2.75 C-1.633125 2.5025 -0.82875 2.255 0 2 C0 1.34 0 0.68 0 0 Z " fill="#F7C438" transform="translate(254,69)"/>
<path d="M0 0 C0.33 0 0.66 0 1 0 C1.33 34.32 1.66 68.64 2 104 C20.81 104 39.62 104 59 104 C59 107.3 59 110.6 59 114 C58.67 114 58.34 114 58 114 C58 111.69 58 109.38 58 107 C57.38914047 107.00222061 56.77828094 107.00444122 56.14891052 107.00672913 C49.77335191 107.02890569 43.39780432 107.04395817 37.0222168 107.05493164 C34.64493362 107.05995076 32.26765352 107.06676746 29.89038086 107.07543945 C26.46727743 107.08761112 23.04421493 107.09325262 19.62109375 107.09765625 C18.56353378 107.10281754 17.50597382 107.10797882 16.41636658 107.11329651 C11.16506204 107.11369294 6.17313329 106.92115559 1 106 C-1.24339675 100.60683029 -1.2389906 95.86807804 -1.13525391 90.13916016 C-1.12579239 89.16292694 -1.11633087 88.18669373 -1.10658264 87.18087769 C-1.07301067 83.96674439 -1.02486613 80.75300532 -0.9765625 77.5390625 C-0.9503845 75.30562356 -0.92511836 73.07217376 -0.90072632 70.8387146 C-0.83418217 64.96960677 -0.75526597 59.1007282 -0.67376709 53.23181152 C-0.59274289 47.23926572 -0.52342758 41.24658573 -0.453125 35.25390625 C-0.31353875 23.50244333 -0.16088103 11.75118933 0 0 Z " fill="#1B89B9" transform="translate(46,28)"/>
<path d="M0 0 C1.03253906 0.00676758 1.03253906 0.00676758 2.0859375 0.01367188 C3.76566335 0.02533664 5.44534375 0.04326729 7.125 0.0625 C6.465 0.7225 5.805 1.3825 5.125 2.0625 C5.785 2.3925 6.445 2.7225 7.125 3.0625 C6.795 3.7225 6.465 4.3825 6.125 5.0625 C5.465 4.7325 4.805 4.4025 4.125 4.0625 C4.455 5.3825 4.785 6.7025 5.125 8.0625 C8.095 8.5575 8.095 8.5575 11.125 9.0625 C11.125 8.4025 11.125 7.7425 11.125 7.0625 C12.115 7.0625 13.105 7.0625 14.125 7.0625 C14.455 8.7125 14.785 10.3625 15.125 12.0625 C15.125 11.0725 15.125 10.0825 15.125 9.0625 C16.115 9.3925 17.105 9.7225 18.125 10.0625 C18.125 11.7125 18.125 13.3625 18.125 15.0625 C12.375 15.1875 12.375 15.1875 10.125 14.0625 C9.795 14.7225 9.465 15.3825 9.125 16.0625 C9.125 14.7425 9.125 13.4225 9.125 12.0625 C7.475 12.3925 5.825 12.7225 4.125 13.0625 C4.125 12.0725 4.125 11.0825 4.125 10.0625 C3.465 10.0625 2.805 10.0625 2.125 10.0625 C1.795 11.0525 1.465 12.0425 1.125 13.0625 C-0.195 12.7325 -1.515 12.4025 -2.875 12.0625 C-3.205 12.7225 -3.535 13.3825 -3.875 14.0625 C-4.205 11.7525 -4.535 9.4425 -4.875 7.0625 C-5.535 7.0625 -6.195 7.0625 -6.875 7.0625 C-7.205 8.7125 -7.535 10.3625 -7.875 12.0625 C-8.865 12.3925 -9.855 12.7225 -10.875 13.0625 C-10.875 13.7225 -10.875 14.3825 -10.875 15.0625 C-11.865 15.0625 -12.855 15.0625 -13.875 15.0625 C-13.94847656 14.12277344 -13.94847656 14.12277344 -14.0234375 13.1640625 C-14.09820312 12.34679688 -14.17296875 11.52953125 -14.25 10.6875 C-14.31960938 9.87539062 -14.38921875 9.06328125 -14.4609375 8.2265625 C-14.70392588 5.85915809 -14.70392588 5.85915809 -16.875 4.0625 C-15.10795186 1.80460516 -14.08514148 1.110032 -11.25 0.46875 C-7.48376218 0.01540656 -3.78531232 -0.0476832 0 0 Z " fill="#3CA1D6" transform="translate(281.875,-0.0625)"/>
<path d="M0 0 C5.61 0 11.22 0 17 0 C17.04125 2.76375 17.0825 5.5275 17.125 8.375 C17.14320801 9.24431152 17.16141602 10.11362305 17.18017578 11.00927734 C17.19473738 13.00703478 17.09956726 15.00467217 17 17 C16.34 17.66 15.68 18.32 15 19 C14.22227595 21.33317216 13.57584432 23.61435923 13 26 C13 25.34 13 24.68 13 24 C12.01 24 11.02 24 10 24 C10 20.7 10 17.4 10 14 C6.7 14 3.4 14 0 14 C0 12.68 0 11.36 0 10 C0.66 10 1.32 10 2 10 C2 8.35 2 6.7 2 5 C1.01 4.67 0.02 4.34 -1 4 C-0.67 2.68 -0.34 1.36 0 0 Z " fill="#1D8DC7" transform="translate(294,64)"/>
<path d="M0 0 C8 6 8 6 8.90820312 9.43505859 C8.86630859 10.66047363 8.82441406 11.88588867 8.78125 13.1484375 C8.76993042 13.80582916 8.75861084 14.46322083 8.74694824 15.14053345 C8.70247612 17.22177292 8.60224391 19.29587979 8.5 21.375 C8.45983192 22.79286851 8.42333688 24.21084612 8.390625 25.62890625 C8.30285793 29.0882195 8.16505283 32.54341275 8 36 C5.36 36 2.72 36 0 36 C0 24.12 0 12.24 0 0 Z " fill="#FCFCFB" transform="translate(187,96)"/>
<path d="M0 0 C13.2 0 26.4 0 40 0 C39.34 1.32 38.68 2.64 38 4 C37.01 4.33 36.02 4.66 35 5 C35.495 6.485 35.495 6.485 36 8 C24.45 8 12.9 8 1 8 C0 6 0 6 0 0 Z " fill="#CDDAE2" transform="translate(56,70)"/>
<path d="M0 0 C0.33 0 0.66 0 1 0 C1.33 2.64 1.66 5.28 2 8 C3.423125 8.0928125 3.423125 8.0928125 4.875 8.1875 C5.90625 8.455625 6.9375 8.72375 8 9 C9.375 11.5625 9.375 11.5625 10 14 C9.34 14 8.68 14 8 14 C8 13.34 8 12.68 8 12 C6.35 12.66 4.7 13.32 3 14 C3.33 14.66 3.66 15.32 4 16 C5.9490625 15.814375 5.9490625 15.814375 7.9375 15.625 C8.66839844 15.55539063 9.39929688 15.48578125 10.15234375 15.4140625 C11.06693359 15.20910156 11.06693359 15.20910156 12 15 C12.33 14.34 12.66 13.68 13 13 C13.33 14.65 13.66 16.3 14 18 C14.33 16.35 14.66 14.7 15 13 C15.33 13 15.66 13 16 13 C16.33 14.98 16.66 16.96 17 19 C17.268125 18.0925 17.53625 17.185 17.8125 16.25 C18.89576294 13.28528037 19.98359457 11.3830246 22 9 C22 9.99 22 10.98 22 12 C23.32 12.33 24.64 12.66 26 13 C25.67641073 16.55948201 25.3899006 18.53463476 23.0625 21.3125 C19.32238104 24.37259733 16.81830404 24.38585017 12 24 C9.04329244 22.92305816 6.32612457 21.49685796 3.5625 20 C2.83095703 19.6184375 2.09941406 19.236875 1.34570312 18.84375 C-0.44289665 17.90853443 -2.22242596 16.95600621 -4 16 C-2.68 10.72 -1.36 5.44 0 0 Z " fill="#F7C636" transform="translate(246,91)"/>
<path d="M0 0 C10.89 0 21.78 0 33 0 C32.34 2.64 31.68 5.28 31 8 C20.77 8 10.54 8 0 8 C0 5.36 0 2.72 0 0 Z " fill="#024D77" transform="translate(111,114)"/>
<path d="M0 0 C9.24 0 18.48 0 28 0 C28 1.32 28 2.64 28 4 C29.98 3.67 31.96 3.34 34 3 C34 4.98 34 6.96 34 9 C23.11 8.67 12.22 8.34 1 8 C0.67 7.01 0.34 6.02 0 5 C0.66 4.67 1.32 4.34 2 4 C1.01 3.34 0.02 2.68 -1 2 C-0.67 1.34 -0.34 0.68 0 0 Z " fill="#778558" transform="translate(110,86)"/>
<path d="M0 0 C0.33 0 0.66 0 1 0 C1.01981934 1.04978027 1.03963867 2.09956055 1.06005859 3.18115234 C1.13602198 7.06893261 1.22475298 10.95633403 1.31738281 14.84375 C1.35571104 16.52759329 1.39055712 18.21151955 1.421875 19.89550781 C1.46744287 22.31345306 1.52544923 24.73082528 1.5859375 27.1484375 C1.60326431 28.28132706 1.60326431 28.28132706 1.62094116 29.43710327 C1.60330066 33.67825198 1.60330066 33.67825198 4 37 C5.423125 37.433125 5.423125 37.433125 6.875 37.875 C10.22390578 39.08060608 11.77489071 40.26140395 14 43 C14 43.66 14 44.32 14 45 C12.04072937 46.7143618 10.04119788 48.38405168 8 50 C3.125 48.125 3.125 48.125 2 47 C1.67 58.55 1.34 70.1 1 82 C0.67 82 0.34 82 0 82 C-0.01030746 81.44511902 -0.02061493 80.89023804 -0.03123474 80.31854248 C-0.13941316 74.54346198 -0.25400195 68.76853393 -0.37231445 62.99365234 C-0.41562691 60.83841135 -0.45730463 58.68313686 -0.49731445 56.52783203 C-0.55510618 53.42991033 -0.61877523 50.33215666 -0.68359375 47.234375 C-0.70030624 46.27070007 -0.71701874 45.30702515 -0.73423767 44.31414795 C-0.75418289 43.41351624 -0.77412811 42.51288452 -0.79467773 41.58496094 C-0.81022202 40.79442322 -0.8257663 40.0038855 -0.84178162 39.18939209 C-0.99857453 37.01972541 -1.40615681 35.08863467 -2 33 C-1.67 33 -1.34 33 -1 33 C-0.67 22.11 -0.34 11.22 0 0 Z " fill="#B7A19E" transform="translate(186,50)"/>
<path d="M0 0 C5.61 0 11.22 0 17 0 C18.25541557 3.76624671 17.37061958 5.37188934 16 9 C14.35 9 12.7 9 11 9 C10.67 8.01 10.34 7.02 10 6 C9.01 7.485 9.01 7.485 8 9 C8 8.01 8 7.02 8 6 C7.34 6 6.68 6 6 6 C6 6.99 6 7.98 6 9 C3.52076199 9.02685095 1.0418116 9.04676547 -1.4375 9.0625 C-2.14455078 9.07087891 -2.85160156 9.07925781 -3.58007812 9.08789062 C-5.38693559 9.09653588 -7.19387603 9.05220011 -9 9 C-9.33 8.67 -9.66 8.34 -10 8 C-10.33 8.66 -10.66 9.32 -11 10 C-11.99 9.67 -12.98 9.34 -14 9 C-14 6 -14 6 -13 4 C-12.01 4 -11.02 4 -10 4 C-8.26576658 3.69411946 -6.53667265 3.35826964 -4.8125 3 C-3.91144531 2.814375 -3.01039063 2.62875 -2.08203125 2.4375 C-1.39496094 2.293125 -0.70789063 2.14875 0 2 C0 1.34 0 0.68 0 0 Z " fill="#DFDFDF" transform="translate(160,31)"/>
<path d="M0 0 C22.11 0 44.22 0 67 0 C67 0.99 67 1.98 67 3 C44.89 3 22.78 3 0 3 C0 2.01 0 1.02 0 0 Z " fill="#ECF0F3" transform="translate(112,57)"/>
<path d="M0 0 C10.56 0 21.12 0 32 0 C32 0.33 32 0.66 32 1 C24.08 1 16.16 1 8 1 C8 1.99 8 2.98 8 4 C16.91 4 25.82 4 35 4 C35 5.32 35 6.64 35 8 C23.66666667 8 12.33333333 8 1 8 C0 6 0 6 0 0 Z " fill="#A3BECD" transform="translate(56,112)"/>
<path d="M0 0 C0.33 0 0.66 0 1 0 C1.08121924 1.60332791 1.13929134 3.20784026 1.1875 4.8125 C1.22230469 5.70582031 1.25710937 6.59914063 1.29296875 7.51953125 C0.94553239 10.46115912 0.15348936 11.0921341 -2 13 C-1.7181953 15.32488881 -1.04553582 16.90892835 0 19 C3.3 19 6.6 19 10 19 C10 18.01 10 17.02 10 16 C15.02551569 13.56338633 19.31712747 13.0978645 24.671875 14.8984375 C27.1406402 15.88175923 29.57749061 16.90816478 32 18 C32 18.99 32 19.98 32 21 C27.23115433 21.07425143 22.4626464 21.12864936 17.69335938 21.16479492 C16.07155494 21.17986565 14.44979116 21.20032593 12.828125 21.22631836 C10.49468954 21.26277829 8.16179369 21.27974314 5.828125 21.29296875 C5.10506165 21.30845261 4.38199829 21.32393646 3.63702393 21.33988953 C-0.5371452 21.34127964 -2.97325996 20.96853351 -6 18 C-5.34 18 -4.68 18 -4 18 C-4.04125 17.195625 -4.0825 16.39125 -4.125 15.5625 C-3.92669159 9.91071033 -3.16286565 4.74429847 0 0 Z " fill="#FAC83A" transform="translate(222,98)"/>
<path d="M0 0 C2.475 0.495 2.475 0.495 5 1 C6.58075341 8.20120997 5.04583668 14.04415527 3 21 C3 21.66 3 22.32 3 23 C2.34 23 1.68 23 1 23 C1 22.34 1 21.68 1 21 C-9.89 21 -20.78 21 -32 21 C-32 20.67 -32 20.34 -32 20 C-22.76 19.67 -13.52 19.34 -4 19 C-3.67 18.34 -3.34 17.68 -3 17 C-3.33 16.01 -3.66 15.02 -4 14 C-2.68 13.67 -1.36 13.34 0 13 C-10.56 13 -21.12 13 -32 13 C-32 12.67 -32 12.34 -32 12 C-21.44 12 -10.88 12 0 12 C0 8.04 0 4.08 0 0 Z " fill="#145A7E" transform="translate(180,81)"/>
<path d="M0 0 C0.66 0 1.32 0 2 0 C2 3.3 2 6.6 2 10 C2.99 10 3.98 10 5 10 C5 10.66 5 11.32 5 12 C6.65 11.67 8.3 11.34 10 11 C10 11.66 10 12.32 10 13 C10.66 13 11.32 13 12 13 C12 12.01 12 11.02 12 10 C11.01 10 10.02 10 9 10 C9 8.68 9 7.36 9 6 C9.99 6 10.98 6 12 6 C13.76615118 10.70973649 14.48594831 15.03083364 15 20 C10.71 20 6.42 20 2 20 C2 18.68 2 17.36 2 16 C1.360625 15.87625 0.72125 15.7525 0.0625 15.625 C-0.618125 15.41875 -1.29875 15.2125 -2 15 C-3.32229189 12.35541621 -3.09677194 10.32238699 -3.0625 7.375 C-3.05347656 6.37210938 -3.04445312 5.36921875 -3.03515625 4.3359375 C-3.02355469 3.56507812 -3.01195312 2.79421875 -3 2 C-2.01 2.33 -1.02 2.66 0 3 C0 2.01 0 1.02 0 0 Z M3 12 C3.33 12.99 3.66 13.98 4 15 C5.65 15 7.3 15 9 15 C6.32752366 12.65712582 6.32752366 12.65712582 3 12 Z " fill="#C08777" transform="translate(228,44)"/>
<path d="M0 0 C6.93 0 13.86 0 21 0 C20 6 20 6 18.6875 7.9375 C17 9 17 9 15.0625 8.8125 C12.96795522 7.9873763 10.98408958 7.06290513 9 6 C9.66 7.32 10.32 8.64 11 10 C5.25 9.125 5.25 9.125 3 8 C3 8.99 3 9.98 3 11 C2.34 11 1.68 11 1 11 C-0.26086514 7.05979642 0 4.52419701 0 0 Z " fill="#566A66" transform="translate(224,90)"/>
<path d="M0 0 C0.33 0 0.66 0 1 0 C1.33 22.77 1.66 45.54 2 69 C2.66 69 3.32 69 4 69 C4 61.08 4 53.16 4 45 C4.66 45 5.32 45 6 45 C6 52.92 6 60.84 6 69 C14.25 69 22.5 69 31 69 C31 69.33 31 69.66 31 70 C30.16227051 70.02505615 29.32454102 70.0501123 28.46142578 70.07592773 C25.35647744 70.17100357 22.25169819 70.27024025 19.14697266 70.37231445 C17.14105193 70.43698251 15.13497772 70.49683106 13.12890625 70.55664062 C11.87207031 70.59853516 10.61523438 70.64042969 9.3203125 70.68359375 C8.15773926 70.72025146 6.99516602 70.75690918 5.79736328 70.79467773 C3.0464499 70.81821659 3.0464499 70.81821659 1 72 C1 74.64 1 77.28 1 80 C0.67 80 0.34 80 0 80 C0 53.6 0 27.2 0 0 Z " fill="#054165" transform="translate(105,51)"/>
<path d="M0 0 C16.17 0 32.34 0 49 0 C49.495 1.485 49.495 1.485 50 3 C33.17 3 16.34 3 -1 3 C-0.67 2.01 -0.34 1.02 0 0 Z " fill="#F8FDFB" transform="translate(121,63)"/>
<path d="M0 0 C2.64 0 5.28 0 8 0 C8 2.97 8 5.94 8 9 C6.68 8.67 5.36 8.34 4 8 C3.34 8.33 2.68 8.66 2 9 C2 8.01 2 7.02 2 6 C-8.23 6 -18.46 6 -29 6 C-29.33 5.01 -29.66 4.02 -30 3 C-20.1 3 -10.2 3 0 3 C0 2.01 0 1.02 0 0 Z " fill="#1A516F" transform="translate(140,122)"/>
<path d="M0 0 C8.58 0 17.16 0 26 0 C26.33 0.66 26.66 1.32 27 2 C27.99 2.66 28.98 3.32 30 4 C29 5 29 5 26.04077148 5.11352539 C24.74727783 5.10828857 23.45378418 5.10305176 22.12109375 5.09765625 C21.09110008 5.09553383 21.09110008 5.09553383 20.04029846 5.09336853 C17.83932199 5.08775479 15.63844591 5.07520007 13.4375 5.0625 C11.94856917 5.05748676 10.45963676 5.05292355 8.97070312 5.04882812 C5.31376925 5.03778093 1.65689442 5.02050713 -2 5 C-2 4.34 -2 3.68 -2 3 C-1.34 3 -0.68 3 0 3 C0 2.01 0 1.02 0 0 Z " fill="#CCDDE4" transform="translate(63,99)"/>
<path d="M0 0 C2.31 0 4.62 0 7 0 C7.33 0.99 7.66 1.98 8 3 C21.365 3.495 21.365 3.495 35 4 C35.495 5.485 35.495 5.485 36 7 C24.45 7 12.9 7 1 7 C0.67 4.69 0.34 2.38 0 0 Z " fill="#92B1C0" transform="translate(56,71)"/>
<path d="M0 0 C0.66 0 1.32 0 2 0 C2 4.62 2 9.24 2 14 C1.01 14 0.02 14 -1 14 C-1.33 15.32 -1.66 16.64 -2 18 C-5.3 17.67 -8.6 17.34 -12 17 C-11.67 16.34 -11.34 15.68 -11 15 C-11.33 14.67 -11.66 14.34 -12 14 C-11.51671752 11.5835876 -10.78055939 9.34167817 -10 7 C-10 6.34 -10 5.68 -10 5 C-9.01 5 -8.02 5 -7 5 C-7 5.99 -7 6.98 -7 8 C-6.34 8 -5.68 8 -5 8 C-5 7.01 -5 6.02 -5 5 C-4.34 5.33 -3.68 5.66 -3 6 C-3 6.66 -3 7.32 -3 8 C-2.34 8.33 -1.68 8.66 -1 9 C-0.67 6.03 -0.34 3.06 0 0 Z " fill="#1683BD" transform="translate(309,84)"/>
<path d="M0 0 C0.99 0 1.98 0 3 0 C3 0.66 3 1.32 3 2 C9.27 2 15.54 2 22 2 C22 2.33 22 2.66 22 3 C24.31 3.66 26.62 4.32 29 5 C29 5.66 29 6.32 29 7 C24.90666095 7.07408587 20.81358067 7.1285704 16.71972656 7.16479492 C15.32675378 7.17989358 13.93382862 7.20037444 12.54101562 7.22631836 C10.54057115 7.26265122 8.53978173 7.27811192 6.5390625 7.29296875 C4.73236084 7.31653442 4.73236084 7.31653442 2.88916016 7.34057617 C1.9357373 7.22818604 0.98231445 7.1157959 0 7 C-0.66 6.01 -1.32 5.02 -2 4 C-1.34 4 -0.68 4 0 4 C0 2.68 0 1.36 0 0 Z " fill="#62795E" transform="translate(107,128)"/>
<path d="M0 0 C5.94 0 11.88 0 18 0 C18.33 0.99 18.66 1.98 19 3 C21.00016466 4.20882096 21.00016466 4.20882096 23 5 C18.27003206 5.9341316 13.6801336 6.15174471 8.875 6.125 C8.17246094 6.12886719 7.46992188 6.13273437 6.74609375 6.13671875 C3.35752363 6.13031314 0.23840671 6.05709649 -3 5 C-3 4.34 -3 3.68 -3 3 C-2.01 3 -1.02 3 0 3 C0 2.01 0 1.02 0 0 Z " fill="#F6C938" transform="translate(229,64)"/>
<path d="M0 0 C4.9723422 1.49170266 9.41845739 3.60457417 14 6 C13.67 7.65 13.34 9.3 13 11 C12.67 10.34 12.34 9.68 12 9 C10.00371336 8.6451046 8.00309329 8.31421071 6 8 C5.09507812 7.48953125 5.09507812 7.48953125 4.171875 6.96875 C0.54704613 5.35191986 -3.12826351 5.96726224 -7.02734375 6.125 C-10.12639004 5.99468531 -12.21298651 5.31395111 -15 4 C-15 3.34 -15 2.68 -15 2 C-14.00097656 1.93941406 -13.00195312 1.87882812 -11.97265625 1.81640625 C-10.68230469 1.73261719 -9.39195312 1.64882812 -8.0625 1.5625 C-6.77472656 1.48128906 -5.48695313 1.40007812 -4.16015625 1.31640625 C-1.13976043 1.35080812 -1.13976043 1.35080812 0 0 Z " fill="#A5842B" transform="translate(242,107)"/>
<path d="M0 0 C1.98 0 3.96 0 6 0 C6 8.58 6 17.16 6 26 C5.67 25.34 5.34 24.68 5 24 C3.35 24 1.7 24 0 24 C-0.12375 23.38125 -0.2475 22.7625 -0.375 22.125 C-0.87197356 19.80879168 -0.87197356 19.80879168 -3 18 C-3 17.01 -3 16.02 -3 15 C-2.236875 14.855625 -1.47375 14.71125 -0.6875 14.5625 C2.08172908 14.0367406 2.08172908 14.0367406 5 13 C5 12.34 5 11.68 5 11 C4.01 10.67 3.02 10.34 2 10 C2 8.02 2 6.04 2 4 C1.34 4 0.68 4 0 4 C0 2.68 0 1.36 0 0 Z " fill="#127EB8" transform="translate(13,74)"/>
<path d="M0 0 C0.96550781 -0.02578125 1.93101562 -0.0515625 2.92578125 -0.078125 C6.05503676 0.29366773 7.37859423 1.16595204 9.6875 3.25 C8.0375 3.58 6.3875 3.91 4.6875 4.25 C4.6875 4.91 4.6875 5.57 4.6875 6.25 C4.048125 6.37375 3.40875 6.4975 2.75 6.625 C2.069375 6.83125 1.38875 7.0375 0.6875 7.25 C0.3575 7.91 0.0275 8.57 -0.3125 9.25 C-2.9525 8.92 -5.5925 8.59 -8.3125 8.25 C-9.3025 11.715 -9.3025 11.715 -10.3125 15.25 C-10.6425 15.25 -10.9725 15.25 -11.3125 15.25 C-11.3125 12.28 -11.3125 9.31 -11.3125 6.25 C-10.3225 5.92 -9.3325 5.59 -8.3125 5.25 C-7.1624169 3.28327085 -7.1624169 3.28327085 -6.3125 1.25 C-4.58915979 -0.47334021 -2.3456379 0.03728166 0 0 Z " fill="#1A323D" transform="translate(234.3125,29.75)"/>
<path d="M0 0 C1.32 0.33 2.64 0.66 4 1 C3.34 1 2.68 1 2 1 C2 1.99 2 2.98 2 4 C2.99 4 3.98 4 5 4 C5 2.68 5 1.36 5 0 C6.72880982 -0.05449838 8.45812712 -0.09301688 10.1875 -0.125 C11.15042969 -0.14820313 12.11335938 -0.17140625 13.10546875 -0.1953125 C16.13855137 0.00934895 18.23625009 0.78757776 21 2 C21.66 2 22.32 2 23 2 C23 3.32 23 4.64 23 6 C22.01 6 21.02 6 20 6 C18.33178677 6.32550502 16.66500443 6.65846063 15 7 C14.34 7 13.68 7 13 7 C12.67 6.34 12.34 5.68 12 5 C11.34 5 10.68 5 10 5 C9.67 5.99 9.34 6.98 9 8 C8.01 7.67 7.02 7.34 6 7 C6.66 7 7.32 7 8 7 C8 6.34 8 5.68 8 5 C6.02 5.33 4.04 5.66 2 6 C2 6.66 2 7.32 2 8 C1.34 8 0.68 8 0 8 C0 5.36 0 2.72 0 0 Z " fill="#0F486D" transform="translate(60,52)"/>
<path d="M0 0 C1.32 0.33 2.64 0.66 4 1 C3.34 1 2.68 1 2 1 C1.67 2.32 1.34 3.64 1 5 C-5.94157498 5.16799036 -12.88330157 5.32792417 -19.82519531 5.48217773 C-22.1881941 5.53564586 -24.55115145 5.59097883 -26.9140625 5.64819336 C-30.30459656 5.72997008 -33.69522166 5.80510471 -37.0859375 5.87890625 C-38.14743011 5.90594131 -39.20892273 5.93297638 -40.30258179 5.96083069 C-41.77388046 5.99097511 -41.77388046 5.99097511 -43.27490234 6.02172852 C-44.57396011 6.05170677 -44.57396011 6.05170677 -45.89926147 6.08229065 C-48 6 -48 6 -50 5 C-50 4.34 -50 3.68 -50 3 C-33.17 3 -16.34 3 1 3 C0.505 1.515 0.505 1.515 0 0 Z " fill="#346481" transform="translate(170,63)"/>
<path d="M0 0 C1.96035175 0.44962196 3.91824309 0.90998248 5.875 1.375 C7.51082031 1.75785156 7.51082031 1.75785156 9.1796875 2.1484375 C12 3 12 3 14 5 C13.67 5.66 13.34 6.32 13 7 C12.01 7 11.02 7 10 7 C10 7.99 10 8.98 10 10 C8.35 9.67 6.7 9.34 5 9 C4.67 9.66 4.34 10.32 4 11 C4 9.68 4 8.36 4 7 C3.34 7 2.68 7 2 7 C2 7.99 2 8.98 2 10 C1.34 10 0.68 10 0 10 C-0.33 12.31 -0.66 14.62 -1 17 C-1.33 17 -1.66 17 -2 17 C-2.3690205 5.47835991 -2.3690205 5.47835991 0 0 Z " fill="#A57767" transform="translate(226,37)"/>
<path d="M0 0 C3.63 0 7.26 0 11 0 C10.01 0.33 9.02 0.66 8 1 C8.66 1.33 9.32 1.66 10 2 C10.59355614 4.64860427 10.74209269 7.29197322 11 10 C8.66705225 10.04241723 6.33297433 10.04092937 4 10 C3.67 9.67 3.34 9.34 3 9 C0.66702567 8.95907063 -1.66705225 8.95758277 -4 9 C-4.33 8.01 -4.66 7.02 -5 6 C-5.66 6.99 -6.32 7.98 -7 9 C-7 7.35 -7 5.7 -7 4 C-6.195625 4.185625 -5.39125 4.37125 -4.5625 4.5625 C-3.716875 4.706875 -2.87125 4.85125 -2 5 C-1.67 4.67 -1.34 4.34 -1 4 C-0.01 4 0.98 4 2 4 C1.34 2.68 0.68 1.36 0 0 Z " fill="#F3F1F3" transform="translate(100,31)"/>
<path d="M0 0 C0.33 2.64 0.66 5.28 1 8 C-0.66666667 8 -2.33333333 8 -4 8 C-3.67 8.66 -3.34 9.32 -3 10 C-2.91691362 11.37548156 -2.89263984 12.75485796 -2.90234375 14.1328125 C-2.90717773 15.34130859 -2.90717773 15.34130859 -2.91210938 16.57421875 C-2.92048828 17.41597656 -2.92886719 18.25773437 -2.9375 19.125 C-2.94201172 19.97449219 -2.94652344 20.82398437 -2.95117188 21.69921875 C-2.96297126 23.79950909 -2.98090694 25.8997633 -3 28 C-5 27 -5 27 -5.6328125 25.21484375 C-6.75543789 20.0204739 -7.19321526 15.31341973 -7 10 C-7.99 10.495 -7.99 10.495 -9 11 C-8.49697411 6.59852343 -6.97554199 4.24604581 -4 1 C-2 0 -2 0 0 0 Z " fill="#E6B633" transform="translate(225,68)"/>
<path d="M0 0 C0.80179688 0.00451172 1.60359375 0.00902344 2.4296875 0.01367188 C4.41149006 0.02546832 6.39325433 0.04340395 8.375 0.0625 C8.375 4.0225 8.375 7.9825 8.375 12.0625 C6.395 12.0625 4.415 12.0625 2.375 12.0625 C1.715 11.0725 1.055 10.0825 0.375 9.0625 C1.695 9.0625 3.015 9.0625 4.375 9.0625 C4.045 7.0825 3.715 5.1025 3.375 3.0625 C2.055 3.0625 0.735 3.0625 -0.625 3.0625 C-0.625 2.4025 -0.625 1.7425 -0.625 1.0625 C-3.59231398 2.89906989 -3.59231398 2.89906989 -5.625 5.0625 C-8.25 4.6875 -8.25 4.6875 -10.625 4.0625 C-10.625 3.0725 -10.625 2.0825 -10.625 1.0625 C-7.31505287 -0.59247356 -3.63377 -0.03834335 0 0 Z " fill="#064169" transform="translate(88.625,49.9375)"/>
<path d="M0 0 C6.6 0 13.2 0 20 0 C20 0.66 20 1.32 20 2 C14 4 14 4 8 6 C7.67 5.67 7.34 5.34 7 5 C6.34 6.32 5.68 7.64 5 9 C3.68 9 2.36 9 1 9 C0.67 6.03 0.34 3.06 0 0 Z " fill="#F6F4F6" transform="translate(140,31)"/>
<path d="M0 0 C0.33 0.66 0.66 1.32 1 2 C1.99 2.33 2.98 2.66 4 3 C3.67 3.99 3.34 4.98 3 6 C2.34 6 1.68 6 1 6 C0.67 7.65 0.34 9.3 0 11 C-0.99 11.33 -1.98 11.66 -3 12 C-3 12.66 -3 13.32 -3 14 C-3.99 14 -4.98 14 -6 14 C-6.07347656 13.06027344 -6.07347656 13.06027344 -6.1484375 12.1015625 C-6.22320312 11.28429688 -6.29796875 10.46703125 -6.375 9.625 C-6.44460938 8.81289062 -6.51421875 8.00078125 -6.5859375 7.1640625 C-6.82892588 4.79665809 -6.82892588 4.79665809 -9 3 C-6.38997624 -0.48003168 -4.1689578 -0.27793052 0 0 Z " fill="#2294D1" transform="translate(274,1)"/>
<path d="M0 0 C3 2 3 2 3.68359375 3.828125 C4.02479789 6.17021759 4.09729516 8.38392907 4.0625 10.75 C4.05347656 11.54921875 4.04445312 12.3484375 4.03515625 13.171875 C4.02355469 13.77515625 4.01195312 14.3784375 4 15 C3.67 15 3.34 15 3 15 C2.67 16.65 2.34 18.3 2 20 C2.66 20 3.32 20 4 20 C4.33 17.69 4.66 15.38 5 13 C5.66 13 6.32 13 7 13 C6.34 16.63 5.68 20.26 5 24 C3.02 23.67 1.04 23.34 -1 23 C-0.34 22.34 0.32 21.68 1 21 C0.80217135 18.99306994 0.80217135 18.99306994 0.125 16.875 C-0.07867187 16.15054688 -0.28234375 15.42609375 -0.4921875 14.6796875 C-0.65976563 14.12539062 -0.82734375 13.57109375 -1 13 C-1.66 13.99 -2.32 14.98 -3 16 C-2.125 11.25 -2.125 11.25 -1 9 C-1.99 8.67 -2.98 8.34 -4 8 C-2.68 8 -1.36 8 0 8 C0 5.36 0 2.72 0 0 Z " fill="#F3C432" transform="translate(213,92)"/>
<path d="M0 0 C9.9 0 19.8 0 30 0 C30 0.99 30 1.98 30 3 C20.1 3 10.2 3 0 3 C0 2.01 0 1.02 0 0 Z " fill="#7A9CB0" transform="translate(61,96)"/>
<path d="M0 0 C3 1 3 1 3 1 Z M-5 1 C-4.39414062 1.0721875 -3.78828125 1.144375 -3.1640625 1.21875 C2.91834595 1.8924937 8.88302138 2.11713363 15 2 C15 3.65 15 5.3 15 7 C14.67 5.68 14.34 4.36 14 3 C13.34 3 12.68 3 12 3 C12 4.32 12 5.64 12 7 C8.65747276 7.07427838 6.1964086 7.06546953 3 6 C3 5.34 3 4.68 3 4 C2.34 4 1.68 4 1 4 C1 4.66 1 5.32 1 6 C-0.98 6.33 -2.96 6.66 -5 7 C-5 5.02 -5 3.04 -5 1 Z " fill="#666666" transform="translate(61,33)"/>
<path d="M0 0 C0.33 0 0.66 0 1 0 C1 11.22 1 22.44 1 34 C0.01 33.67 -0.98 33.34 -2 33 C-2.495 31.515 -2.495 31.515 -3 30 C-3 33.3 -3 36.6 -3 40 C-3.33 40 -3.66 40 -4 40 C-4 35.71 -4 31.42 -4 27 C-3.34 27 -2.68 27 -2 27 C-2 27.66 -2 28.32 -2 29 C-1.34 29 -0.68 29 0 29 C0 24.38 0 19.76 0 15 C-1.98 15 -3.96 15 -6 15 C-4.68 14.67 -3.36 14.34 -2 14 C-2 13.01 -2 12.02 -2 11 C-3.65 10.67 -5.3 10.34 -7 10 C-7 9.67 -7 9.34 -7 9 C-5.02 9 -3.04 9 -1 9 C-1.33 8.01 -1.66 7.02 -2 6 C-1.0625 2.8125 -1.0625 2.8125 0 0 Z " fill="#03507F" transform="translate(184,95)"/>
<path d="M0 0 C0.33 0 0.66 0 1 0 C1 15.18 1 30.36 1 46 C-4 41 -4 41 -4.48828125 38.32421875 C-4.43027344 37.45410156 -4.37226563 36.58398438 -4.3125 35.6875 C-4.24482422 34.36298828 -4.24482422 34.36298828 -4.17578125 33.01171875 C-4.11777344 32.34785156 -4.05976563 31.68398437 -4 31 C-3.01 31.33 -2.02 31.66 -1 32 C-1.66 32 -2.32 32 -3 32 C-2.01 32.99 -1.02 33.98 0 35 C0 23.45 0 11.9 0 0 Z " fill="#054368" transform="translate(185,94)"/>
<path d="M0 0 C10.56 0 21.12 0 32 0 C32 0.33 32 0.66 32 1 C22.43 1 12.86 1 3 1 C3 1.66 3 2.32 3 3 C11.91 3 20.82 3 30 3 C29.67 3.99 29.34 4.98 29 6 C28.67 5.67 28.34 5.34 28 5 C26.14825294 4.84213692 24.2909089 4.74892644 22.43359375 4.68359375 C20.7465332 4.62075195 20.7465332 4.62075195 19.02539062 4.55664062 C17.24938477 4.49766602 17.24938477 4.49766602 15.4375 4.4375 C14.24962891 4.39431641 13.06175781 4.35113281 11.83789062 4.30664062 C8.89205216 4.20016454 5.9461257 4.09815159 3 4 C3 4.66 3 5.32 3 6 C2.34 6 1.68 6 1 6 C0.67 6.66 0.34 7.32 0 8 C0 5.36 0 2.72 0 0 Z " fill="#32B6E2" transform="translate(148,81)"/>
<path d="M0 0 C0.99 0 1.98 0 3 0 C3 3.63 3 7.26 3 11 C2.67 10.34 2.34 9.68 2 9 C1.01 9.33 0.02 9.66 -1 10 C-2.84610532 10.08239169 -4.69505164 10.10743359 -6.54296875 10.09765625 C-7.61611328 10.09443359 -8.68925781 10.09121094 -9.79492188 10.08789062 C-10.91447266 10.07951172 -12.03402344 10.07113281 -13.1875 10.0625 C-14.31865234 10.05798828 -15.44980469 10.05347656 -16.61523438 10.04882812 C-19.41020927 10.03703498 -22.2050782 10.0205765 -25 10 C-25 9.34 -25 8.68 -25 8 C-17.08 7.67 -9.16 7.34 -1 7 C-0.67 4.69 -0.34 2.38 0 0 Z " fill="#30BBEA" transform="translate(177,123)"/>
<path d="M0 0 C1.14656064 2.21122408 2.11509221 4.329931 2.9375 6.6875 C3.288125 7.450625 3.63875 8.21375 4 9 C4.99 9.33 5.98 9.66 7 10 C6.67 12.31 6.34 14.62 6 17 C4.68 17.33 3.36 17.66 2 18 C0.15924441 15.23886662 -0.39565399 14.10806518 -1 11 C-1.226875 9.845 -1.45375 8.69 -1.6875 7.5 C-1.99542768 4.05121003 -1.90001676 2.79414229 0 0 Z " fill="#1C6383" transform="translate(223,50)"/>
<path d="M0 0 C0.33 0 0.66 0 1 0 C0.979375 0.928125 0.95875 1.85625 0.9375 2.8125 C0.84230396 6.02286011 0.84230396 6.02286011 2 9 C2.66 9.33 3.32 9.66 4 10 C3.34 10 2.68 10 2 10 C2.66 11.65 3.32 13.3 4 15 C4.66 15 5.32 15 6 15 C6.23053497 17.84326464 6.35903101 19.46145349 4.75 21.875 C3 23 3 23 0.890625 22.5703125 C0.26671875 22.38210937 -0.3571875 22.19390625 -1 22 C-1.02903577 18.89585298 -1.0468107 15.79174091 -1.0625 12.6875 C-1.07087891 11.80642578 -1.07925781 10.92535156 -1.08789062 10.01757812 C-1.09111328 9.17001953 -1.09433594 8.32246094 -1.09765625 7.44921875 C-1.10289307 6.66893311 -1.10812988 5.88864746 -1.11352539 5.0847168 C-1 3 -1 3 0 0 Z " fill="#1C8BC6" transform="translate(1,59)"/>
<path d="M0 0 C0.33 0.99 0.66 1.98 1 3 C0.67 3.66 0.34 4.32 0 5 C-1.97909398 5.02686553 -3.95828971 5.04633375 -5.9375 5.0625 C-7.03964844 5.07410156 -8.14179688 5.08570313 -9.27734375 5.09765625 C-12 5 -12 5 -13 4 C-13.33 4.66 -13.66 5.32 -14 6 C-14.99 5.67 -15.98 5.34 -17 5 C-17 2 -17 2 -16 0 C-15.01 0 -14.02 0 -13 0 C-12.0925 -0.185625 -11.185 -0.37125 -10.25 -0.5625 C-6.61298561 -1.05209809 -3.59660768 -0.64738938 0 0 Z " fill="#B6B6B6" transform="translate(163,35)"/>
<path d="M0 0 C2.31 0 4.62 0 7 0 C6.67 1.98 6.34 3.96 6 6 C6.33 5.34 6.66 4.68 7 4 C8.32 4.33 9.64 4.66 11 5 C11 6.32 11 7.64 11 9 C7 9 3 9 -1 9 C-1.125 2.25 -1.125 2.25 0 0 Z " fill="#B2B1B2" transform="translate(81,31)"/>
<path d="M0 0 C0.99 0 1.98 0 3 0 C3.33 1.65 3.66 3.3 4 5 C4 4.01 4 3.02 4 2 C4.99 2.33 5.98 2.66 7 3 C7 4.65 7 6.3 7 8 C1.25 8.125 1.25 8.125 -1 7 C-1.33 7.66 -1.66 8.32 -2 9 C-2 7.68 -2 6.36 -2 5 C-3.65 5.33 -5.3 5.66 -7 6 C-7 5.01 -7 4.02 -7 3 C-7.66 3 -8.32 3 -9 3 C-9.33 3.99 -9.66 4.98 -10 6 C-10 4.68 -10 3.36 -10 2 C-6.7 2 -3.4 2 0 2 C0 1.34 0 0.68 0 0 Z " fill="#6DBAE3" transform="translate(293,7)"/>
<path d="M0 0 C3.76687864 1.88343932 4.79421646 2.69132469 7 6 C5.68 6.33 4.36 6.66 3 7 C3.05220703 8.80597656 3.05220703 8.80597656 3.10546875 10.6484375 C3.1336028 12.22394442 3.16090337 13.79946638 3.1875 15.375 C3.21263672 16.1690625 3.23777344 16.963125 3.26367188 17.78125 C3.29004405 19.85586148 3.15486462 21.93100865 3 24 C2.01 24.66 1.02 25.32 0 26 C0 17.42 0 8.84 0 0 Z " fill="#3696C6" transform="translate(195,104)"/>
<path d="M0 0 C4.95 0.99 9.9 1.98 15 3 C15 3.99 15 4.98 15 6 C10.05 6 5.1 6 0 6 C0 4.02 0 2.04 0 0 Z " fill="#34585C" transform="translate(226,103)"/>
<path d="M0 0 C3.63 0 7.26 0 11 0 C10.67 2.31 10.34 4.62 10 7 C8.35 7.33 6.7 7.66 5 8 C4.67 6.68 4.34 5.36 4 4 C2.35 4 0.7 4 -1 4 C-0.01 3.67 0.98 3.34 2 3 C2 2.34 2 1.68 2 1 C1.34 0.67 0.68 0.34 0 0 Z " fill="#325864" transform="translate(233,91)"/>
<path d="M0 0 C3.92835026 0.43648336 6.90309967 1.52247974 10 4 C10.3125 6.6875 10.3125 6.6875 10 9 C7 9 4 9 1 9 C0.63877119 7.68942607 0.28619689 6.37646376 -0.0625 5.0625 C-0.35833984 3.96615234 -0.35833984 3.96615234 -0.66015625 2.84765625 C-0.77230469 2.23792969 -0.88445312 1.62820312 -1 1 C-0.67 0.67 -0.34 0.34 0 0 Z " fill="#A7A7A7" transform="translate(128,31)"/>
<path d="M0 0 C0.66 0 1.32 0 2 0 C2 4.62 2 9.24 2 14 C1.01 14 0.02 14 -1 14 C-1 12.68 -1 11.36 -1 10 C-2.32 10 -3.64 10 -5 10 C-5.33 10.99 -5.66 11.98 -6 13 C-6.33 11.68 -6.66 10.36 -7 9 C-5.02 9 -3.04 9 -1 9 C-0.67 6.03 -0.34 3.06 0 0 Z M-7 14 C-5.02 14 -3.04 14 -1 14 C-1.33 15.32 -1.66 16.64 -2 18 C-2.99 18 -3.98 18 -5 18 C-5 17.01 -5 16.02 -5 15 C-5.66 14.67 -6.32 14.34 -7 14 Z " fill="#1F8EC8" transform="translate(309,84)"/>
<path d="M0 0 C0.33 0 0.66 0 1 0 C1.08121924 1.60332791 1.13929134 3.20784026 1.1875 4.8125 C1.22230469 5.70582031 1.25710937 6.59914063 1.29296875 7.51953125 C0.94553239 10.46115912 0.15348936 11.0921341 -2 13 C-1.7181953 15.32488881 -1.04553582 16.90892835 0 19 C2.35599235 19.46751788 2.35599235 19.46751788 5.0625 19.625 C5.98160156 19.69976562 6.90070313 19.77453125 7.84765625 19.8515625 C8.55792969 19.90054688 9.26820313 19.94953125 10 20 C10 20.33 10 20.66 10 21 C8.08404032 21.08133791 6.16708068 21.13934367 4.25 21.1875 C2.64898437 21.23970703 2.64898437 21.23970703 1.015625 21.29296875 C-2.30027855 20.97082786 -3.59016673 20.22851086 -6 18 C-5.34 18 -4.68 18 -4 18 C-4.04125 17.195625 -4.0825 16.39125 -4.125 15.5625 C-3.92669159 9.91071033 -3.16286565 4.74429847 0 0 Z " fill="#DFB83B" transform="translate(222,98)"/>
<path d="M0 0 C3.63 0 7.26 0 11 0 C11 2.97 11 5.94 11 9 C9.68 9 8.36 9 7 9 C7 8.34 7 7.68 7 7 C6.34 7 5.68 7 5 7 C5.33 6.34 5.66 5.68 6 5 C5.67 4.67 5.34 4.34 5 4 C3.68 4 2.36 4 1 4 C1 5.65 1 7.3 1 9 C0.67 9 0.34 9 0 9 C0 6.03 0 3.06 0 0 Z " fill="#137FBA" transform="translate(292,79)"/>
<path d="M0 0 C16.17 0 32.34 0 49 0 C49 0.33 49 0.66 49 1 C34.15 1 19.3 1 4 1 C4 1.66 4 2.32 4 3 C2.35 3 0.7 3 -1 3 C-0.67 2.01 -0.34 1.02 0 0 Z " fill="#DFE9F2" transform="translate(121,63)"/>
<path d="M0 0 C1.32 0 2.64 0 4 0 C4 0.66 4 1.32 4 2 C5.32 2 6.64 2 8 2 C8.33 3.98 8.66 5.96 9 8 C2.84765625 8.87890625 2.84765625 8.87890625 1 9 C0 8 0 8 -0.09765625 6.15234375 C-0.06510417 4.1015625 -0.03255208 2.05078125 0 0 Z " fill="#386D8D" transform="translate(84,51)"/>
<path d="M0 0 C3 1 3 1 3 1 Z M0 1 C0 1.66 0 2.32 0 3 C-8.91 3 -17.82 3 -27 3 C-27 2.34 -27 1.68 -27 1 C-23.06290089 0.80334571 -19.12531328 0.61924523 -15.1875 0.4375 C-14.06794922 0.38142578 -12.94839844 0.32535156 -11.79492188 0.26757812 C-10.72177734 0.21923828 -9.64863281 0.17089844 -8.54296875 0.12109375 C-7.0583313 0.05039673 -7.0583313 0.05039673 -5.54370117 -0.02172852 C-3 0 -3 0 0 1 Z " fill="#C5DCDA" transform="translate(91,112)"/>
<path d="M0 0 C0.33 0 0.66 0 1 0 C3.29612756 9.41002278 3.29612756 9.41002278 3 14 C-1.38889325 13.33501617 -4.9811485 11.81242323 -9 10 C-7.68 9.67 -6.36 9.34 -5 9 C-5 8.34 -5 7.68 -5 7 C-3.68 6.67 -2.36 6.34 -1 6 C-0.67 4.02 -0.34 2.04 0 0 Z " fill="#2498CC" transform="translate(209,85)"/>
<path d="M0 0 C2.97 0 5.94 0 9 0 C8.67 1.32 8.34 2.64 8 4 C6.68 4.33 5.36 4.66 4 5 C4 5.66 4 6.32 4 7 C4.66 6.34 5.32 5.68 6 5 C6 6.32 6 7.64 6 9 C5.34 9.66 4.68 10.32 4 11 C4 11.99 4 12.98 4 14 C2.68 14 1.36 14 0 14 C0.15339844 13.43796875 0.30679687 12.8759375 0.46484375 12.296875 C1.01360419 9.94161122 1.31497599 7.65451896 1.5625 5.25 C1.64628906 4.45078125 1.73007812 3.6515625 1.81640625 2.828125 C1.87699219 2.22484375 1.93757813 1.6215625 2 1 C1.34 0.67 0.68 0.34 0 0 Z " fill="#147CB9" transform="translate(302,64)"/>
<path d="M0 0 C2.31 0 4.62 0 7 0 C8.85776765 3.13498292 9.20140476 5.37471432 9 9 C7.02 9 5.04 9 3 9 C3.2784375 8.0409375 3.2784375 8.0409375 3.5625 7.0625 C3.706875 6.381875 3.85125 5.70125 4 5 C3.67 4.67 3.34 4.34 3 4 C2.01 4 1.02 4 0 4 C0 2.68 0 1.36 0 0 Z " fill="#1581BC" transform="translate(294,64)"/>
<path d="M0 0 C0.66 0 1.32 0 2 0 C2.0825 0.61875 2.165 1.2375 2.25 1.875 C2.81258459 4.18437567 2.81258459 4.18437567 5.0625 5.25 C5.701875 5.4975 6.34125 5.745 7 6 C6.4140625 12.15234375 6.4140625 12.15234375 6 14 C5.01 14.495 5.01 14.495 4 15 C3.67 14.01 3.34 13.02 3 12 C2.34 11.67 1.68 11.34 1 11 C0.5859375 8.49609375 0.5859375 8.49609375 0.375 5.4375 C0.30023438 4.42558594 0.22546875 3.41367187 0.1484375 2.37109375 C0.09945312 1.58863281 0.05046875 0.80617187 0 0 Z " fill="#2195CC" transform="translate(249,36)"/>
<path d="M0 0 C0.33 0 0.66 0 1 0 C1.17835515 4.54805635 0.99785435 7.8794254 -1 12 C-1.99 12 -2.98 12 -4 12 C-4 11.34 -4 10.68 -4 10 C-5.32 9.67 -6.64 9.34 -8 9 C-7.67 8.01 -7.34 7.02 -7 6 C-5.02 5.67 -3.04 5.34 -1 5 C-0.67 3.35 -0.34 1.7 0 0 Z " fill="#C7877D" transform="translate(244,93)"/>
<path d="M0 0 C0.99 0.99 1.98 1.98 3 3 C3.66 2.67 4.32 2.34 5 2 C5 2.66 5 3.32 5 4 C6.32 4.33 7.64 4.66 9 5 C1.08 5 -6.84 5 -15 5 C-15 4.67 -15 4.34 -15 4 C-14.16855469 3.87882812 -13.33710937 3.75765625 -12.48046875 3.6328125 C-11.39378906 3.46523438 -10.30710937 3.29765625 -9.1875 3.125 C-8.10855469 2.96257813 -7.02960938 2.80015625 -5.91796875 2.6328125 C-2.82678207 2.14867662 -2.82678207 2.14867662 0 0 Z " fill="#165075" transform="translate(88,58)"/>
<path d="M0 0 C0.99 0 1.98 0 3 0 C3.41713515 1.43146378 3.8080497 2.87058886 4.1875 4.3125 C4.40792969 5.11300781 4.62835938 5.91351563 4.85546875 6.73828125 C5 9 5 9 3.55078125 10.79296875 C3.03902344 11.19128906 2.52726563 11.58960938 2 12 C2 11.01 2 10.02 2 9 C-0.31 9.66 -2.62 10.32 -5 11 C-5 10.34 -5 9.68 -5 9 C-4.34 8.67 -3.68 8.34 -3 8 C-3.33 7.34 -3.66 6.68 -4 6 C-2.35 5.67 -0.7 5.34 1 5 C1 5.66 1 6.32 1 7 C1.66 7 2.32 7 3 7 C3 6.01 3 5.02 3 4 C2.01 4 1.02 4 0 4 C0 2.68 0 1.36 0 0 Z " fill="#CB8976" transform="translate(237,50)"/>
<path d="M0 0 C0.80179688 0.00451172 1.60359375 0.00902344 2.4296875 0.01367188 C4.41149006 0.02546832 6.39325433 0.04340395 8.375 0.0625 C7.385 1.5475 7.385 1.5475 6.375 3.0625 C2.75 3.25 2.75 3.25 -0.625 3.0625 C-0.625 2.4025 -0.625 1.7425 -0.625 1.0625 C-3.59231398 2.89906989 -3.59231398 2.89906989 -5.625 5.0625 C-8.25 4.6875 -8.25 4.6875 -10.625 4.0625 C-10.625 3.0725 -10.625 2.0825 -10.625 1.0625 C-7.31505287 -0.59247356 -3.63377 -0.03834335 0 0 Z " fill="#064873" transform="translate(88.625,49.9375)"/>
<path d="M0 0 C0.99 0 1.98 0 3 0 C4.09506492 3.28519475 4.09960608 5.73663415 4.0625 9.1875 C4.05347656 10.27417969 4.04445312 11.36085938 4.03515625 12.48046875 C4.02355469 13.31191406 4.01195312 14.14335938 4 15 C3.67 14.34 3.34 13.68 3 13 C2.34 13 1.68 13 1 13 C1 11.68 1 10.36 1 9 C0.34 9 -0.32 9 -1 9 C-0.67 6.03 -0.34 3.06 0 0 Z " fill="#EFC954" transform="translate(215,77)"/>
<path d="M0 0 C2.15377564 2.62198774 3.40072174 4.64404172 4 8 C3.34 8 2.68 8 2 8 C1.67 9.98 1.34 11.96 1 14 C0.34 14 -0.32 14 -1 14 C-1 12.02 -1 10.04 -1 8 C-1.66 8 -2.32 8 -3 8 C-3 7.01 -3 6.02 -3 5 C-3.66 5 -4.32 5 -5 5 C-5 4.01 -5 3.02 -5 2 C-4.01 2 -3.02 2 -2 2 C-1.67 2.66 -1.34 3.32 -1 4 C-0.67 2.68 -0.34 1.36 0 0 Z " fill="#F3C952" transform="translate(259,74)"/>
<path d="M0 0 C0.66 0.33 1.32 0.66 2 1 C2 2.32 2 3.64 2 5 C6.95 4.67 11.9 4.34 17 4 C17.33 2.68 17.66 1.36 18 0 C18.33 0.99 18.66 1.98 19 3 C21.00016466 4.20882096 21.00016466 4.20882096 23 5 C18.27003206 5.9341316 13.6801336 6.15174471 8.875 6.125 C8.17246094 6.12886719 7.46992188 6.13273437 6.74609375 6.13671875 C3.35752363 6.13031314 0.23840671 6.05709649 -3 5 C-3 4.34 -3 3.68 -3 3 C-2.01 3 -1.02 3 0 3 C0 2.01 0 1.02 0 0 Z " fill="#CAAE4D" transform="translate(229,64)"/>
<path d="M0 0 C2.97 0.495 2.97 0.495 6 1 C6.33 2.32 6.66 3.64 7 5 C5.02 5.99 5.02 5.99 3 7 C3 7.66 3 8.32 3 9 C2.01 9 1.02 9 0 9 C0 6.03 0 3.06 0 0 Z " fill="#93CCE9" transform="translate(268,6)"/>
<path d="M0 0 C0.33 0 0.66 0 1 0 C1 1.98 1 3.96 1 6 C0.34 6 -0.32 6 -1 6 C-1 8.64 -1 11.28 -1 14 C-1.99 13.67 -2.98 13.34 -4 13 C-4.33 13.66 -4.66 14.32 -5 15 C-5 12.36 -5 9.72 -5 7 C-4.67 7.99 -4.34 8.98 -4 10 C-3.34 10 -2.68 10 -2 10 C-2.33 9.01 -2.66 8.02 -3 7 C-3.66 6.67 -4.32 6.34 -5 6 C-5 4.68 -5 3.36 -5 2 C-3.35 2 -1.7 2 0 2 C0 1.34 0 0.68 0 0 Z " fill="#1582BC" transform="translate(297,87)"/>
<path d="M0 0 C0.33 0 0.66 0 1 0 C1 2.97 1 5.94 1 9 C1.66 9 2.32 9 3 9 C3.33 8.34 3.66 7.68 4 7 C4.125 12.75 4.125 12.75 3 15 C1.68 15 0.36 15 -1 15 C-1.02703381 13.06257659 -1.04641125 11.12504521 -1.0625 9.1875 C-1.07410156 8.10855469 -1.08570313 7.02960938 -1.09765625 5.91796875 C-1 3 -1 3 0 0 Z " fill="#1D2A2F" transform="translate(212,147)"/>
<path d="M0 0 C2.02350324 3.03525486 2.32124018 4.19426202 2.625 7.6875 C2.69976562 8.49574219 2.77453125 9.30398437 2.8515625 10.13671875 C2.92503906 11.05904297 2.92503906 11.05904297 3 12 C2.34 12 1.68 12 1 12 C0.67 14.31 0.34 16.62 0 19 C-0.66 19 -1.32 19 -2 19 C-2 17.02 -2 15.04 -2 13 C-1.67 13 -1.34 13 -1 13 C-0.67 10.36 -0.34 7.72 0 5 C-0.66 4.67 -1.32 4.34 -2 4 C-1.34 2.68 -0.68 1.36 0 0 Z " fill="#FCC94B" transform="translate(217,93)"/>
<path d="M0 0 C1.80030122 2.70045182 2.93377066 5.06677881 4.125 8.0625 C4.47820312 8.94035156 4.83140625 9.81820312 5.1953125 10.72265625 C6 13 6 13 6 15 C3.625 14.8125 3.625 14.8125 1 14 C-1.9835639 9.66027069 -0.79123975 4.90782494 0 0 Z " fill="#EFC944" transform="translate(265,88)"/>
<path d="M0 0 C1.32 0.33 2.64 0.66 4 1 C3 3 3 3 0.5 3.9375 C-0.325 4.288125 -1.15 4.63875 -2 5 C-3.33333333 8 -3.33333333 8 -2 11 C-4.64 11 -7.28 11 -10 11 C-9.67 9.68 -9.34 8.36 -9 7 C-8.01 7.33 -7.02 7.66 -6 8 C-5.938125 7.38125 -5.87625 6.7625 -5.8125 6.125 C-5 4 -5 4 -2.4375 2.75 C-1.633125 2.5025 -0.82875 2.255 0 2 C0 1.34 0 0.68 0 0 Z " fill="#E4B845" transform="translate(254,69)"/>
<path d="M0 0 C0.33 0 0.66 0 1 0 C1 1.98 1 3.96 1 6 C1.66 6 2.32 6 3 6 C2.67 7.98 2.34 9.96 2 12 C1.34 12 0.68 12 0 12 C0 11.34 0 10.68 0 10 C-1.65 10 -3.3 10 -5 10 C-5.33 10.66 -5.66 11.32 -6 12 C-6.66 12 -7.32 12 -8 12 C-8 10.35 -8 8.7 -8 7 C-5.36 7 -2.72 7 0 7 C0 4.69 0 2.38 0 0 Z " fill="#398AB6" transform="translate(252,52)"/>
<path d="M0 0 C2.64 0.33 5.28 0.66 8 1 C8 3.64 8 6.28 8 9 C6.35 9 4.7 9 3 9 C2.814375 8.071875 2.814375 8.071875 2.625 7.125 C2.12802644 4.80879168 2.12802644 4.80879168 0 3 C0 2.01 0 1.02 0 0 Z " fill="#1A89C3" transform="translate(10,89)"/>
<path d="M0 0 C0.33 2.64 0.66 5.28 1 8 C-1.33333333 8 -3.66666667 8 -6 8 C-6.33 6.68 -6.66 5.36 -7 4 C-2.25 0 -2.25 0 0 0 Z " fill="#E9C13F" transform="translate(225,68)"/>
<path d="M0 0 C2.125 0.375 2.125 0.375 4 1 C4.33 2.98 4.66 4.96 5 7 C2.03 7 -0.94 7 -4 7 C-2.92598892 4.08482708 -2.22189824 2.22189824 0 0 Z " fill="#1A8EC8" transform="translate(306,56)"/>
<path d="M0 0 C2.64 0 5.28 0 8 0 C8 0.66 8 1.32 8 2 C6.68 2 5.36 2 4 2 C4.33 3.98 4.66 5.96 5 8 C3.35 8.33 1.7 8.66 0 9 C0 6.03 0 3.06 0 0 Z " fill="#0A476F" transform="translate(56,50)"/>
<path d="M0 0 C0.66 0.33 1.32 0.66 2 1 C1.67 2.98 1.34 4.96 1 7 C0.01 6.67 -0.98 6.34 -2 6 C-2.99 6.495 -2.99 6.495 -4 7 C-4.33 7.99 -4.66 8.98 -5 10 C-5.99 9.67 -6.98 9.34 -8 9 C-8.33 8.01 -8.66 7.02 -9 6 C-8.67 5.34 -8.34 4.68 -8 4 C-6.35 4.33 -4.7 4.66 -3 5 C-3 4.01 -3 3.02 -3 2 C-2.01 2 -1.02 2 0 2 C0 1.34 0 0.68 0 0 Z " fill="#C88A78" transform="translate(239,42)"/>
<path d="M0 0 C0.33 1.32 0.66 2.64 1 4 C2.98 4 4.96 4 7 4 C6.01 4.495 6.01 4.495 5 5 C5 5.66 5 6.32 5 7 C4.34 7 3.68 7 3 7 C3 7.99 3 8.98 3 10 C3.66 10 4.32 10 5 10 C5 10.66 5 11.32 5 12 C3.0625 12.5625 3.0625 12.5625 1 13 C0 12 0 12 -0.09765625 9.27734375 C-0.08605469 8.17519531 -0.07445312 7.07304688 -0.0625 5.9375 C-0.05347656 4.83277344 -0.04445312 3.72804688 -0.03515625 2.58984375 C-0.02355469 1.73519531 -0.01195312 0.88054687 0 0 Z " fill="#125C7F" transform="translate(143,102)"/>
<path d="M0 0 C2.31 0 4.62 0 7 0 C6.690625 0.598125 6.38125 1.19625 6.0625 1.8125 C4.61867621 4.7850784 3.77208986 7.80134201 3 11 C3 10.34 3 9.68 3 9 C2.01 9 1.02 9 0 9 C0 6.03 0 3.06 0 0 Z " fill="#1582BD" transform="translate(304,79)"/>
<path d="M0 0 C0.33 0 0.66 0 1 0 C1.144375 1.11375 1.28875 2.2275 1.4375 3.375 C1.78372035 6.82142047 1.78372035 6.82142047 3 9 C5.02463255 9.65213292 5.02463255 9.65213292 7 10 C7.33 9.34 7.66 8.68 8 8 C8.33 9.65 8.66 11.3 9 13 C2.84765625 13.09765625 2.84765625 13.09765625 1 13 C0 12 0 12 -0.09765625 9.27734375 C-0.08605469 8.17519531 -0.07445312 7.07304688 -0.0625 5.9375 C-0.05347656 4.83277344 -0.04445312 3.72804687 -0.03515625 2.58984375 C-0.02355469 1.73519531 -0.01195312 0.88054688 0 0 Z " fill="#2C5D7D" transform="translate(55,50)"/>
<path d="M0 0 C0.33 0 0.66 0 1 0 C1 5.94 1 11.88 1 18 C0.01 18 -0.98 18 -2 18 C-1.8590651 15.56212615 -1.71245458 13.12482147 -1.5625 10.6875 C-1.52318359 9.99720703 -1.48386719 9.30691406 -1.44335938 8.59570312 C-1.25072585 5.52838465 -0.97677283 2.93031848 0 0 Z " fill="#2279A8" transform="translate(234,144)"/>
<path d="M0 0 C1.32 0.99 2.64 1.98 4 3 C3.67 4.32 3.34 5.64 3 7 C2.67 6.34 2.34 5.68 2 5 C1.67 5.99 1.34 6.98 1 8 C0.34 7.67 -0.32 7.34 -1 7 C-0.67 6.34 -0.34 5.68 0 5 C-7.425 4.01 -7.425 4.01 -15 3 C-15 2.67 -15 2.34 -15 2 C-10.38 2 -5.76 2 -1 2 C-0.67 1.34 -0.34 0.68 0 0 Z " fill="#044A7B" transform="translate(144,128)"/>
<path d="M0 0 C1.36125 0.37125 1.36125 0.37125 2.75 0.75 C1.76 1.41 0.77 2.07 -0.25 2.75 C-0.97382467 4.80925139 -0.97382467 4.80925139 -1.25 6.75 C-3.23 6.75 -5.21 6.75 -7.25 6.75 C-7.25 3.75 -7.25 3.75 -5.625 1.5 C-3.25 -0.25 -3.25 -0.25 0 0 Z " fill="#FAC936" transform="translate(201.25,95.25)"/>
<path d="M0 0 C0.99 0.66 1.98 1.32 3 2 C1.35 2 -0.3 2 -2 2 C-2 2.66 -2 3.32 -2 4 C-1.34 4.33 -0.68 4.66 0 5 C-0.33 5.66 -0.66 6.32 -1 7 C-1.66 7 -2.32 7 -3 7 C-3.33 8.32 -3.66 9.64 -4 11 C-6.5 9.625 -6.5 9.625 -9 8 C-9 7.34 -9 6.68 -9 6 C-7.35 6 -5.7 6 -4 6 C-3.67 4.35 -3.34 2.7 -3 1 C-2.01 0.67 -1.02 0.34 0 0 Z " fill="#F0CA58" transform="translate(204,96)"/>
<path d="M0 0 C0.66 0.33 1.32 0.66 2 1 C2 1.66 2 2.32 2 3 C2.32033957 5.00212229 2.65259077 7.00239695 3 9 C2.67 8.34 2.34 7.68 2 7 C0.01751285 6.28293018 -1.98415349 5.61709587 -4 5 C-4.66 4.67 -5.32 4.34 -6 4 C-7.70363822 3.77377919 -9.41328701 3.59111527 -11.125 3.4375 C-12.03507813 3.35371094 -12.94515625 3.26992188 -13.8828125 3.18359375 C-14.58148438 3.12300781 -15.28015625 3.06242187 -16 3 C-16 2.67 -16 2.34 -16 2 C-14.25008666 1.97284617 -12.50005055 1.95353449 -10.75 1.9375 C-9.28820312 1.92009766 -9.28820312 1.92009766 -7.796875 1.90234375 C-5.34241322 1.98804423 -3.33831086 2.29293934 -1 3 C-0.67 2.01 -0.34 1.02 0 0 Z " fill="#2187B9" transform="translate(246,27)"/>
<path d="M0 0 C0.7425 0.556875 0.7425 0.556875 1.5 1.125 C-0.15 1.455 -1.8 1.785 -3.5 2.125 C-3.5 2.785 -3.5 3.445 -3.5 4.125 C-4.139375 4.24875 -4.77875 4.3725 -5.4375 4.5 C-6.118125 4.70625 -6.79875 4.9125 -7.5 5.125 C-7.83 5.785 -8.16 6.445 -8.5 7.125 C-10.81 6.795 -13.12 6.465 -15.5 6.125 C-14.18 5.795 -12.86 5.465 -11.5 5.125 C-11.17 3.805 -10.84 2.485 -10.5 1.125 C-3.11538462 -1.09038462 -3.11538462 -1.09038462 0 0 Z " fill="#2F414A" transform="translate(242.5,31.875)"/>
<path d="M0 0 C0 1.65 0 3.3 0 5 C-1.75 6.125 -1.75 6.125 -4 7 C-6.25 6.125 -6.25 6.125 -8 5 C-7 2 -7 2 -5.125 0.8125 C-3 0 -3 0 0 0 Z " fill="#FAC735" transform="translate(208,101)"/>
<path d="M0 0 C0.66 0 1.32 0 2 0 C3.33583899 4.84241633 4.25328119 8.93437617 4 14 C3.01 14 2.02 14 1 14 C0.34 11.03 -0.32 8.06 -1 5 C-0.34 5 0.32 5 1 5 C0.67 3.35 0.34 1.7 0 0 Z " fill="#B38372" transform="translate(240,42)"/>
<path d="M0 0 C0.33 0.99 0.66 1.98 1 3 C1.66 2.34 2.32 1.68 3 1 C3.33 2.65 3.66 4.3 4 6 C0.04 5.67 -3.92 5.34 -8 5 C-8 4.34 -8 3.68 -8 3 C-5.36 2.01 -2.72 1.02 0 0 Z " fill="#B97768" transform="translate(239,58)"/>
<path d="M0 0 C0.33 0.66 0.66 1.32 1 2 C1.66 1.67 2.32 1.34 3 1 C2.67 2.32 2.34 3.64 2 5 C2.66 5.33 3.32 5.66 4 6 C1.36 6 -1.28 6 -4 6 C-4.33 4.35 -4.66 2.7 -5 1 C-3 0 -3 0 0 0 Z " fill="#0E4D75" transform="translate(68,57)"/>
<path d="M0 0 C2.31 0.66 4.62 1.32 7 2 C7 2.66 7 3.32 7 4 C6.34 4 5.68 4 5 4 C5 4.66 5 5.32 5 6 C3.35 6.33 1.7 6.66 0 7 C-0.93423645 3.98968256 -1.04449911 3.13349732 0 0 Z " fill="#C77E69" transform="translate(187,86)"/>
<path d="M0 0 C0.804375 0.185625 1.60875 0.37125 2.4375 0.5625 C3.283125 0.706875 4.12875 0.85125 5 1 C5.33 0.67 5.66 0.34 6 0 C8.0625 0.4375 8.0625 0.4375 10 1 C10 2.32 10 3.64 10 5 C7.69 5 5.38 5 3 5 C2.67 4.01 2.34 3.02 2 2 C1.01 3.485 1.01 3.485 0 5 C0 3.35 0 1.7 0 0 Z " fill="#565656" transform="translate(93,35)"/>
<path d="M0 0 C1.32 0 2.64 0 4 0 C3.67 2.64 3.34 5.28 3 8 C1.68 8 0.36 8 -1 8 C-1.04241723 5.66705225 -1.04092937 3.33297433 -1 1 C-0.67 0.67 -0.34 0.34 0 0 Z " fill="#1E8AC3" transform="translate(14,65)"/>
<path d="M0 0 C0.66 0 1.32 0 2 0 C2 0.99 2 1.98 2 3 C2.33 2.34 2.66 1.68 3 1 C4.32 1.33 5.64 1.66 7 2 C7 3.32 7 4.64 7 6 C4.69 6 2.38 6 0 6 C-0.38218767 4.34385343 -0.71395102 2.67542976 -1 1 C-0.67 0.67 -0.34 0.34 0 0 Z " fill="#616161" transform="translate(85,34)"/>
<path d="M0 0 C3 1 3 1 3 1 Z M-5 1 C-3.35 1 -1.7 1 0 1 C0.33 1.66 0.66 2.32 1 3 C0.0625 5.125 0.0625 5.125 -1 7 C-2.32 7 -3.64 7 -5 7 C-5 5.02 -5 3.04 -5 1 Z " fill="#ABABAB" transform="translate(61,33)"/>
<path d="M0 0 C2 2 2 2 2.08203125 4.05859375 C1.99308594 4.84363281 1.90414063 5.62867187 1.8125 6.4375 C1.73644531 7.21996094 1.66039062 8.00242187 1.58203125 8.80859375 C1 11 1 11 -2 14 C-2 11.03 -2 8.06 -2 5 C-1.34 5 -0.68 5 0 5 C0 3.35 0 1.7 0 0 Z " fill="#FBC950" transform="translate(264,98)"/>
<path d="M0 0 C0 3 0 6 0 9 C-0.66 8.34 -1.32 7.68 -2 7 C-2 6.01 -2 5.02 -2 4 C-2.66 4 -3.32 4 -4 4 C-4.33 3.34 -4.66 2.68 -5 2 C-5.99 2.66 -6.98 3.32 -8 4 C-5.97675095 -0.48005146 -4.79569304 -1.43870791 0 0 Z " fill="#F8C73B" transform="translate(259,72)"/>
<path d="M0 0 C0.66 0.66 1.32 1.32 2 2 C1.01 3.485 1.01 3.485 0 5 C0 4.01 0 3.02 0 2 C-0.99 3.485 -0.99 3.485 -2 5 C-3.32 4.34 -4.64 3.68 -6 3 C-6.33 4.32 -6.66 5.64 -7 7 C-7.99 6.67 -8.98 6.34 -10 6 C-10 3 -10 3 -9 1 C-8.01 1 -7.02 1 -6 1 C-4.989375 0.79375 -3.97875 0.5875 -2.9375 0.375 C-1.968125 0.25125 -0.99875 0.1275 0 0 Z " fill="#3C3C3C" transform="translate(156,34)"/>
<path d="M0 0 C2.125 0.9375 2.125 0.9375 4 2 C4 3.65 4 5.3 4 7 C1.13275314 6.42655063 0.1385485 6.1385485 -2 4 C-2 3.01 -2 2.02 -2 1 C-1.34 0.67 -0.68 0.34 0 0 Z " fill="#F4F7F4" transform="translate(189,81)"/>
<path d="M0 0 C3.63 0 7.26 0 11 0 C10.01 0.495 10.01 0.495 9 1 C9 1.99 9 2.98 9 4 C9.66 4.33 10.32 4.66 11 5 C10.34 5 9.68 5 9 5 C8.67 5.66 8.34 6.32 8 7 C8 5.68 8 4.36 8 3 C6.35 3.33 4.7 3.66 3 4 C3 3.01 3 2.02 3 1 C2.34 1 1.68 1 1 1 C0.67 1.99 0.34 2.98 0 4 C0 2.68 0 1.36 0 0 Z " fill="#B1DAEB" transform="translate(283,9)"/>
<path d="M0 0 C5.75 0.875 5.75 0.875 8 2 C8 2.99 8 3.98 8 5 C5.36 4.67 2.72 4.34 0 4 C0 2.68 0 1.36 0 0 Z " fill="#F9C842" transform="translate(240,112)"/>
<path d="M0 0 C0.33 0 0.66 0 1 0 C1.08121924 1.60332791 1.13929134 3.20784026 1.1875 4.8125 C1.22230469 5.70582031 1.25710937 6.59914063 1.29296875 7.51953125 C0.94373378 10.47638733 0.17728064 11.08932515 -2 13 C-2.72197162 15.60611077 -2.72197162 15.60611077 -3 18 C-3.33 18 -3.66 18 -4 18 C-4.32665309 11.63026469 -3.5682233 5.35233495 0 0 Z " fill="#D09E3C" transform="translate(222,98)"/>
<path d="M0 0 C0.66 0 1.32 0 2 0 C2 2.97 2 5.94 2 9 C0.68 9 -0.64 9 -2 9 C-2.33 6.69 -2.66 4.38 -3 2 C-2.01 2.33 -1.02 2.66 0 3 C0 2.01 0 1.02 0 0 Z " fill="#C88B7C" transform="translate(228,44)"/>
<path d="M0 0 C4.29 0 8.58 0 13 0 C12.67 0.66 12.34 1.32 12 2 C11.01 2 10.02 2 9 2 C9.33 2.99 9.66 3.98 10 5 C9.67 5.66 9.34 6.32 9 7 C8.01 7 7.02 7 6 7 C6 6.01 6 5.02 6 4 C6.66 4 7.32 4 8 4 C8 3.01 8 2.02 8 1 C5.36 1 2.72 1 0 1 C0 0.67 0 0.34 0 0 Z " fill="#3A6C8A" transform="translate(56,49)"/>
<path d="M0 0 C3.63 0 7.26 0 11 0 C11 0.66 11 1.32 11 2 C8.36 2.66 5.72 3.32 3 4 C3 3.34 3 2.68 3 2 C2.01 2 1.02 2 0 2 C0 1.34 0 0.68 0 0 Z " fill="#172F37" transform="translate(229,30)"/>
<path d="M0 0 C0 1.32 0 2.64 0 4 C-3.63 4 -7.26 4 -11 4 C-7.3004238 0.3004238 -5.11106009 -0.22715823 0 0 Z " fill="#FBC745" transform="translate(246,64)"/>
<path d="M0 0 C1.84765625 0.33984375 1.84765625 0.33984375 4.0625 0.9375 C5.16271484 1.22947266 5.16271484 1.22947266 6.28515625 1.52734375 C7.13400391 1.76130859 7.13400391 1.76130859 8 2 C6.625 3.5 6.625 3.5 5 5 C4.34 5 3.68 5 3 5 C3 4.34 3 3.68 3 3 C1.68 3.99 0.36 4.98 -1 6 C-1.042721 4.33388095 -1.04063832 2.66617115 -1 1 C-0.67 0.67 -0.34 0.34 0 0 Z " fill="#BF897C" transform="translate(226,37)"/>
<path d="M0 0 C0.33 0 0.66 0 1 0 C1.33 5.94 1.66 11.88 2 18 C1.01 18 0.02 18 -1 18 C-0.505 9.09 -0.505 9.09 0 0 Z " fill="#1D88B5" transform="translate(259,144)"/>
<path d="M0 0 C0.33 0.99 0.66 1.98 1 3 C1.99 3.33 2.98 3.66 4 4 C2.71937515 5.7074998 1.38232443 7.37373596 0 9 C-0.66 9 -1.32 9 -2 9 C-2.25 3.375 -2.25 3.375 0 0 Z " fill="#FAC930" transform="translate(267,100)"/>
<path d="M0 0 C1.32 0.33 2.64 0.66 4 1 C3.34 1 2.68 1 2 1 C2 1.99 2 2.98 2 4 C2.99 4 3.98 4 5 4 C5.33 3.34 5.66 2.68 6 2 C5.67 3.32 5.34 4.64 5 6 C4.01 6 3.02 6 2 6 C2 6.66 2 7.32 2 8 C1.34 8 0.68 8 0 8 C0 5.36 0 2.72 0 0 Z " fill="#C0DBE5" transform="translate(60,52)"/>
<path d="M0 0 C1.32 0.33 2.64 0.66 4 1 C3.360625 1.474375 2.72125 1.94875 2.0625 2.4375 C-0.84850272 6.05420035 -0.80649782 9.47204894 -1 14 C-1.33 14 -1.66 14 -2 14 C-2.05410687 12.22950311 -2.09284119 10.45853151 -2.125 8.6875 C-2.14820313 7.70136719 -2.17140625 6.71523438 -2.1953125 5.69921875 C-2 3 -2 3 0 0 Z " fill="#2486B5" transform="translate(224,31)"/>
<path d="M0 0 C2.31 0.33 4.62 0.66 7 1 C6.67 2.65 6.34 4.3 6 6 C5.67 5.34 5.34 4.68 5 4 C1.97065509 3.34227572 1.97065509 3.34227572 -1 3 C-0.67 2.01 -0.34 1.02 0 0 Z " fill="#BA9937" transform="translate(249,112)"/>
<path d="M0 0 C0.66 0 1.32 0 2 0 C1.38461538 5.53846154 1.38461538 5.53846154 -0.5625 7.875 C-1.2740625 8.431875 -1.2740625 8.431875 -2 9 C-2 8.34 -2 7.68 -2 7 C-2.66 6.67 -3.32 6.34 -4 6 C-2.7260411 3.96166576 -1.38938077 1.96147874 0 0 Z " fill="#E7C347" transform="translate(270,104)"/>
<path d="M0 0 C0 0.99 0 1.98 0 3 C1.65 3.33 3.3 3.66 5 4 C2.39417629 4.93065133 1.35801776 5.14917407 -1.25 4.0625 C-1.8275 3.711875 -2.405 3.36125 -3 3 C-3 3.99 -3 4.98 -3 6 C-3.66 6 -4.32 6 -5 6 C-5 4.35 -5 2.7 -5 1 C-2 0 -2 0 0 0 Z " fill="#38585C" transform="translate(230,95)"/>
<path d="M0 0 C0.66 0 1.32 0 2 0 C2 0.66 2 1.32 2 2 C3.32 1.67 4.64 1.34 6 1 C5.67 2.65 5.34 4.3 5 6 C3.68 6 2.36 6 1 6 C0.67 4.02 0.34 2.04 0 0 Z " fill="#FACC4A" transform="translate(225,70)"/>
<path d="M0 0 C3.63 0.33 7.26 0.66 11 1 C10.67 1.66 10.34 2.32 10 3 C8.35 2.67 6.7 2.34 5 2 C5 2.66 5 3.32 5 4 C3.35 4 1.7 4 0 4 C0 2.66666667 0 1.33333333 0 0 Z " fill="#182C34" transform="translate(234,35)"/>
<path d="M0 0 C1.32 0 2.64 0 4 0 C4 1.65 4 3.3 4 5 C2.35 5.33 0.7 5.66 -1 6 C-1.042721 4.33388095 -1.04063832 2.66617115 -1 1 C-0.67 0.67 -0.34 0.34 0 0 Z " fill="#575757" transform="translate(105,35)"/>
<path d="M0 0 C1.65 0.33 3.3 0.66 5 1 C5 1.99 5 2.98 5 4 C0.38 4 -4.24 4 -9 4 C-9 3.67 -9 3.34 -9 3 C-4.545 2.505 -4.545 2.505 0 2 C0 1.34 0 0.68 0 0 Z " fill="#D6B740" transform="translate(249,115)"/>
<path d="M0 0 C-0.33 0.99 -0.66 1.98 -1 3 C-7.27 3 -13.54 3 -20 3 C-19.67 2.34 -19.34 1.68 -19 1 C-16.20837429 0.83262201 -13.41670379 0.66606598 -10.625 0.5 C-9.8309375 0.45230469 -9.036875 0.40460938 -8.21875 0.35546875 C-2.2265625 0 -2.2265625 0 0 0 Z " fill="#054878" transform="translate(170,114)"/>
<path d="M0 0 C2 1 2 1 5 3 C5 3.99 5 4.98 5 6 C2.69 6 0.38 6 -2 6 C-2 5.01 -2 4.02 -2 3 C-1.34 3 -0.68 3 0 3 C0 2.01 0 1.02 0 0 Z " fill="#9E7C74" transform="translate(227,98)"/>
<path d="M0 0 C0.66 0 1.32 0 2 0 C2.6875 2.75 2.6875 2.75 3 6 C1.5625 8.375 1.5625 8.375 0 10 C-1.125 2.25 -1.125 2.25 0 0 Z " fill="#EFC544" transform="translate(214,86)"/>
<path d="M0 0 C1.75 1.4375 1.75 1.4375 3 3 C2.0409375 3.680625 2.0409375 3.680625 1.0625 4.375 C-1.09702406 5.83921726 -1.09702406 5.83921726 -2 8 C-2.66 7.67 -3.32 7.34 -4 7 C-4 5.02 -4 3.04 -4 1 C-2.1875 0.3125 -2.1875 0.3125 0 0 Z " fill="#2390CB" transform="translate(4,85)"/>
<path d="M0 0 C2.16874252 0.50603992 3.99967627 0.99983813 6 2 C6 3.32 6 4.64 6 6 C5.34 6 4.68 6 4 6 C3.67 5.34 3.34 4.68 3 4 C2.34 4 1.68 4 1 4 C0.67 4.66 0.34 5.32 0 6 C0 4.02 0 2.04 0 0 Z " fill="#9DBBCC" transform="translate(69,53)"/>
<path d="M0 0 C1.98 0 3.96 0 6 0 C6 1.32 6 2.64 6 4 C5.01 4 4.02 4 3 4 C1.66018514 4.3062434 0.32488113 4.63451555 -1 5 C-0.67 3.35 -0.34 1.7 0 0 Z " fill="#9ABBCF" transform="translate(77,54)"/>
<path d="M0 0 C1.65 0 3.3 0 5 0 C4.67 1.32 4.34 2.64 4 4 C3.34 4 2.68 4 2 4 C1.67 6.31 1.34 8.62 1 11 C0.67 11 0.34 11 0 11 C0 7.37 0 3.74 0 0 Z " fill="#996E5F" transform="translate(224,43)"/>
<path d="M0 0 C0 1.65 0 3.3 0 5 C-3.62326739 6.2077558 -4.64146369 5.54311128 -8 4 C-6.68 3.67 -5.36 3.34 -4 3 C-4 2.34 -4 1.68 -4 1 C-1 0 -1 0 0 0 Z " fill="#3396C4" transform="translate(208,91)"/>
<path d="M0 0 C1.98 0 3.96 0 6 0 C6 1.98 6 3.96 6 6 C5.67 5.34 5.34 4.68 5 4 C4.01 3.67 3.02 3.34 2 3 C1.01 3.495 1.01 3.495 0 4 C0 2.68 0 1.36 0 0 Z " fill="#137EB7" transform="translate(8,79)"/>
<path d="M0 0 C0.99 0.99 1.98 1.98 3 3 C3.66 2.67 4.32 2.34 5 2 C5 2.66 5 3.32 5 4 C6.32 4.33 7.64 4.66 9 5 C5.04 5 1.08 5 -3 5 C-2.01 3.35 -1.02 1.7 0 0 Z " fill="#21587B" transform="translate(88,58)"/>
<path d="M0 0 C0.33 0 0.66 0 1 0 C1 1.65 1 3.3 1 5 C2.98 5.495 2.98 5.495 5 6 C4.67 7.65 4.34 9.3 4 11 C2 9.4375 2 9.4375 0 7 C-0.25 3.25 -0.25 3.25 0 0 Z " fill="#237CAA" transform="translate(250,40)"/>
<path d="M0 0 C1.65 0 3.3 0 5 0 C4.67 0.66 4.34 1.32 4 2 C4.66 2.33 5.32 2.66 6 3 C5.67 3.99 5.34 4.98 5 6 C3.68 6 2.36 6 1 6 C0.67 4.02 0.34 2.04 0 0 Z " fill="#636363" transform="translate(140,34)"/>
<path d="M0 0 C2.31 0 4.62 0 7 0 C7 1.65 7 3.3 7 5 C6.34 4.01 5.68 3.02 5 2 C4.01 3.485 4.01 3.485 3 5 C3 4.01 3 3.02 3 2 C2.34 2 1.68 2 1 2 C0.67 2.99 0.34 3.98 0 5 C0 3.35 0 1.7 0 0 Z " fill="#3B3B3B" transform="translate(165,35)"/>
<path d="M0 0 C4.95 0.99 4.95 0.99 10 2 C10 2.99 10 3.98 10 5 C9.67 4.34 9.34 3.68 9 3 C6.36 3.33 3.72 3.66 1 4 C0.67 2.68 0.34 1.36 0 0 Z " fill="#556162" transform="translate(231,104)"/>
<path d="M0 0 C1.33333333 2.66666667 2.66666667 5.33333333 4 8 C3.01 8.495 3.01 8.495 2 9 C0.68 8.01 -0.64 7.02 -2 6 C-1.34 4.02 -0.68 2.04 0 0 Z " fill="#F4C145" transform="translate(244,100)"/>
<path d="M0 0 C2.12508244 3.18762365 2.5020163 5.26512223 3 9 C0.69 9 -1.62 9 -4 9 C-2.68 8.67 -1.36 8.34 0 8 C0 5.36 0 2.72 0 0 Z " fill="#69784A" transform="translate(252,91)"/>
<path d="M0 0 C0.33 0.99 0.66 1.98 1 3 C2.32 3 3.64 3 5 3 C5.33 2.01 5.66 1.02 6 0 C6.99 0 7.98 0 9 0 C9 1.32 9 2.64 9 4 C6.03 4 3.06 4 0 4 C0 2.68 0 1.36 0 0 Z " fill="#127FB9" transform="translate(3,94)"/>
<path d="M0 0 C0 1.32 0 2.64 0 4 C-1.98 4 -3.96 4 -6 4 C-6.33 3.34 -6.66 2.68 -7 2 C-4.35261084 0.5393715 -3.10551666 0 0 0 Z " fill="#FECB4F" transform="translate(248,83)"/>
<path d="M0 0 C0.99 0 1.98 0 3 0 C2.67 1.98 2.34 3.96 2 6 C0.68 6 -0.64 6 -2 6 C-1.34 4.02 -0.68 2.04 0 0 Z " fill="#2A92CC" transform="translate(227,60)"/>
<path d="M0 0 C0.66 0 1.32 0 2 0 C2 0.66 2 1.32 2 2 C3.65 1.34 5.3 0.68 7 0 C7 1.32 7 2.64 7 4 C4.69 4 2.38 4 0 4 C0 2.68 0 1.36 0 0 Z " fill="#A2BFD1" transform="translate(86,55)"/>
<path d="M0 0 C0.99 0.33 1.98 0.66 3 1 C2.01 3.97 1.02 6.94 0 10 C-0.33 10 -0.66 10 -1 10 C-1.02689216 8.52093108 -1.04634621 7.04172517 -1.0625 5.5625 C-1.07410156 4.73878906 -1.08570313 3.91507813 -1.09765625 3.06640625 C-1 1 -1 1 0 0 Z " fill="#2D3F48" transform="translate(224,35)"/>
<path d="M0 0 C2.475 0.495 2.475 0.495 5 1 C5 2.65 5 4.3 5 6 C4.34 6 3.68 6 3 6 C3 5.01 3 4.02 3 3 C2.01 3.33 1.02 3.66 0 4 C0 2.68 0 1.36 0 0 Z " fill="#182D34" transform="translate(245,38)"/>
<path d="M0 0 C0.66 0 1.32 0 2 0 C2 1.32 2 2.64 2 4 C2.66 4 3.32 4 4 4 C3.67 5.32 3.34 6.64 3 8 C2.01 8 1.02 8 0 8 C0 5.36 0 2.72 0 0 Z " fill="#D1EAF3" transform="translate(268,7)"/>
<path d="M0 0 C1.98 0 3.96 0 6 0 C5.67 0.99 5.34 1.98 5 3 C3.35 3.33 1.7 3.66 0 4 C-0.33 3.34 -0.66 2.68 -1 2 C-0.67 1.34 -0.34 0.68 0 0 Z " fill="#4E5F61" transform="translate(238,95)"/>
<path d="M0 0 C1.98 0.495 1.98 0.495 4 1 C3.67 2.32 3.34 3.64 3 5 C1.68 4.67 0.36 4.34 -1 4 C-0.67 2.68 -0.34 1.36 0 0 Z " fill="#656565" transform="translate(160,35)"/>
<path d="M0 0 C1.27875 -0.061875 2.5575 -0.12375 3.875 -0.1875 C4.95394531 -0.23970703 4.95394531 -0.23970703 6.0546875 -0.29296875 C6.69664062 -0.19628906 7.33859375 -0.09960938 8 0 C8.66 0.99 9.32 1.98 10 3 C8.5199159 2.88637738 7.04089926 2.75877092 5.5625 2.625 C4.73878906 2.55539063 3.91507813 2.48578125 3.06640625 2.4140625 C2.38449219 2.27742188 1.70257813 2.14078125 1 2 C0.67 1.34 0.34 0.68 0 0 Z " fill="#C39229" transform="translate(227,110)"/>
<path d="M0 0 C0.33 0 0.66 0 1 0 C1 2.64 1 5.28 1 8 C0.01 8 -0.98 8 -2 8 C-1.125 1.125 -1.125 1.125 0 0 Z " fill="#FBC83C" transform="translate(212,104)"/>
<path d="M0 0 C0.66 0 1.32 0 2 0 C2 2.97 2 5.94 2 9 C1.34 9 0.68 9 0 9 C-1.15941038 5.52176885 -0.70820884 3.54104422 0 0 Z " fill="#1784BF" transform="translate(309,84)"/>
<path d="M0 0 C0.66 0 1.32 0 2 0 C2 2.31 2 4.62 2 7 C1.01 7.495 1.01 7.495 0 8 C-1.125 2.25 -1.125 2.25 0 0 Z " fill="#FDC94F" transform="translate(245,70)"/>
<path d="M0 0 C1.32 0.33 2.64 0.66 4 1 C3.34 1 2.68 1 2 1 C2 1.99 2 2.98 2 4 C-0.64 4 -3.28 4 -6 4 C-2.25 2 -2.25 2 0 2 C0 1.34 0 0.68 0 0 Z " fill="#FDCE57" transform="translate(230,113)"/>
<path d="M0 0 C2.18975773 3.28463659 2.99806563 6.20696275 4 10 C3.01 10 2.02 10 1 10 C0.67 6.7 0.34 3.4 0 0 Z " fill="#E4BF48" transform="translate(267,93)"/>
<path d="M0 0 C0.66 0.66 1.32 1.32 2 2 C1.625 4.125 1.625 4.125 1 6 C-0.32 5.67 -1.64 5.34 -3 5 C-3 4.01 -3 3.02 -3 2 C-2.01 2 -1.02 2 0 2 C0 1.34 0 0.68 0 0 Z " fill="#1B97D9" transform="translate(267,80)"/>
<path d="M0 0 C0.99 0 1.98 0 3 0 C3.33 1.32 3.66 2.64 4 4 C2.35 4 0.7 4 -1 4 C-0.67 2.68 -0.34 1.36 0 0 Z M4 0 C4.66 0 5.32 0 6 0 C5.67 1.32 5.34 2.64 5 4 C4.67 2.68 4.34 1.36 4 0 Z " fill="#107FB9" transform="translate(1,79)"/>
<path d="M0 0 C1.65 0 3.3 0 5 0 C4 3 4 3 2 6 C1.67 5.34 1.34 4.68 1 4 C0.01 4.495 0.01 4.495 -1 5 C-0.67 3.35 -0.34 1.7 0 0 Z " fill="#2493CE" transform="translate(306,67)"/>
<path d="M0 0 C0.33 0 0.66 0 1 0 C0.67 2.97 0.34 5.94 0 9 C-0.66 9 -1.32 9 -2 9 C-2.25 3.375 -2.25 3.375 0 0 Z " fill="#FECE55" transform="translate(217,103)"/>
<path d="M0 0 C1.65 0 3.3 0 5 0 C5.33 1.32 5.66 2.64 6 4 C3 4 3 4 0 2 C0 1.34 0 0.68 0 0 Z " fill="#EBC244" transform="translate(195,102)"/>
<path d="M0 0 C0.33 0 0.66 0 1 0 C1.125 6.75 1.125 6.75 0 9 C-0.66 9 -1.32 9 -2 9 C-2.33 9.66 -2.66 10.32 -3 11 C-2.67 9.35 -2.34 7.7 -2 6 C-1.34 6 -0.68 6 0 6 C0 4.02 0 2.04 0 0 Z " fill="#CC8D67" transform="translate(244,93)"/>
<path d="M0 0 C1.9375 0.375 1.9375 0.375 4 1 C4.33 1.66 4.66 2.32 5 3 C4.67 3.66 4.34 4.32 4 5 C2.68 4.67 1.36 4.34 0 4 C0 2.68 0 1.36 0 0 Z " fill="#A77C73" transform="translate(233,96)"/>
<path d="M0 0 C1.65 0 3.3 0 5 0 C4.67 1.32 4.34 2.64 4 4 C2.35 3.67 0.7 3.34 -1 3 C-0.67 2.01 -0.34 1.02 0 0 Z " fill="#1884BF" transform="translate(306,64)"/>
<path d="M0 0 C1.98 0.495 1.98 0.495 4 1 C3.67 3.31 3.34 5.62 3 8 C2.67 8 2.34 8 2 8 C2 6.35 2 4.7 2 3 C1.01 2.67 0.02 2.34 -1 2 C-0.67 1.34 -0.34 0.68 0 0 Z " fill="#1E3032" transform="translate(240,39)"/>
<path d="M0 0 C0.99 0.33 1.98 0.66 3 1 C3 2.32 3 3.64 3 5 C1.68 4.67 0.36 4.34 -1 4 C-0.67 2.68 -0.34 1.36 0 0 Z " fill="#5B5B5B" transform="translate(125,35)"/>
<path d="M0 0 C0.99 0.33 1.98 0.66 3 1 C3 2.32 3 3.64 3 5 C1.68 4.67 0.36 4.34 -1 4 C-0.67 2.68 -0.34 1.36 0 0 Z " fill="#5E5E5E" transform="translate(111,35)"/>
<path d="M0 0 C1.98 0 3.96 0 6 0 C4.02 2.97 4.02 2.97 2 6 C1.34 5.67 0.68 5.34 0 5 C0 3.35 0 1.7 0 0 Z " fill="#188CC8" transform="translate(44,24)"/>
<path d="M0 0 C1.32 0.33 2.64 0.66 4 1 C4 2.32 4 3.64 4 5 C2.68 5 1.36 5 0 5 C0 3.35 0 1.7 0 0 Z " fill="#B4D6F1" transform="translate(301,9)"/>
</svg>
