<?xml version="1.0" encoding="UTF-8"?>
<svg version="1.1" xmlns="http://www.w3.org/2000/svg" width="240" height="240">
<path d="M0 0 C79.2 0 158.4 0 240 0 C240 79.2 240 158.4 240 240 C160.8 240 81.6 240 0 240 C0 160.8 0 81.6 0 0 Z " fill="#FEFEFE" transform="translate(0,0)"/>
<path d="M0 0 C0.88945313 0.00644531 1.77890625 0.01289062 2.6953125 0.01953125 C3.61570312 0.03628906 4.53609375 0.05304687 5.484375 0.0703125 C6.42023438 0.07933594 7.35609375 0.08835938 8.3203125 0.09765625 C10.62510989 0.12117459 12.92977533 0.15704424 15.234375 0.1953125 C15.234375 3.4953125 15.234375 6.7953125 15.234375 10.1953125 C13.37232422 10.23398437 13.37232422 10.23398437 11.47265625 10.2734375 C9.83069472 10.32973332 8.188769 10.38708033 6.546875 10.4453125 C5.32194336 10.46658203 5.32194336 10.46658203 4.07226562 10.48828125 C-1.09616389 10.69752941 -4.03262747 11.27824211 -7.765625 15.1953125 C-9.05134602 17.76675453 -8.90023334 19.60896067 -8.91279602 22.48933411 C-8.91995132 23.61235428 -8.92710663 24.73537445 -8.93447876 25.89242554 C-8.93716766 27.13037872 -8.93985657 28.36833191 -8.94262695 29.64379883 C-8.95248375 31.59265739 -8.95248375 31.59265739 -8.96253967 33.58088684 C-8.9799542 37.15123202 -8.99050265 40.7215638 -8.9987452 44.29194093 C-9.00389441 46.52221742 -9.00997018 48.75248974 -9.01625633 50.98276329 C-9.0353097 57.95970468 -9.04954051 64.93663547 -9.0578683 71.91359788 C-9.06764226 79.96933395 -9.09396505 88.02479535 -9.13436919 96.08043462 C-9.16452147 102.30555703 -9.17933631 108.53060068 -9.18264931 114.7557947 C-9.18500084 118.47450005 -9.193974 122.19291202 -9.21911049 125.91153908 C-9.24670419 130.06074969 -9.24256285 134.20934609 -9.2355957 138.35864258 C-9.24840576 139.59052307 -9.26121582 140.82240356 -9.27441406 142.09161377 C-9.26747025 143.22309341 -9.26052643 144.35457306 -9.25337219 145.52033997 C-9.25576055 146.50129544 -9.2581489 147.48225092 -9.26060963 148.49293232 C-8.62391303 151.96899231 -7.17263965 153.65809547 -4.765625 156.1953125 C-2.49456679 157.33084161 -1.2462611 157.32556845 1.27558899 157.33575439 C2.54361862 157.34431961 2.54361862 157.34431961 3.83726501 157.35305786 C4.76664383 157.35417572 5.69602264 157.35529358 6.65356445 157.35644531 C8.11962128 157.36389267 8.11962128 157.36389267 9.61529541 157.37149048 C12.85942277 157.38613536 16.10350122 157.39291818 19.34765625 157.3984375 C21.59726463 157.40418728 23.84687299 157.40994504 26.09648132 157.41571045 C30.8184736 157.42622723 35.54044882 157.43206538 40.26245117 157.43554688 C46.31541535 157.44103129 52.36815455 157.4650555 58.42104816 157.49351883 C63.06986653 157.51213615 67.71863064 157.51735034 72.36748314 157.51888275 C74.59902361 157.52191213 76.83056306 157.52995023 79.06206703 157.54306793 C82.18388636 157.56010829 85.30515508 157.55825286 88.42700195 157.55175781 C89.81196114 157.56557999 89.81196114 157.56557999 91.22489929 157.5796814 C96.03484989 157.54830759 99.3705063 157.39316265 103.234375 154.1953125 C105.48381489 150.82115267 105.4883941 149.68655216 105.50180054 145.73634338 C105.51033051 144.60208923 105.51886047 143.46783508 105.52764893 142.29920959 C105.52674255 141.0539299 105.52583618 139.80865021 105.52490234 138.52563477 C105.53161957 137.21488983 105.53833679 135.9041449 105.54525757 134.55368042 C105.56293712 130.95657814 105.56761373 127.359571 105.56888914 123.76242948 C105.57078766 120.76036921 105.57814455 117.75833114 105.58523333 114.75627941 C105.60152192 107.67434086 105.60640182 100.59245317 105.60498047 93.51049805 C105.60377853 86.20259279 105.62488938 78.89498263 105.6564678 71.58715206 C105.6826083 65.31445536 105.69334872 59.04185519 105.69206965 52.76910442 C105.6915594 49.02195963 105.69727691 45.27507711 105.71842575 41.52798653 C105.74136318 37.34991356 105.73230099 33.17250313 105.72021484 28.99438477 C105.73145386 27.7511293 105.74269287 26.50787384 105.75427246 25.22694397 C105.74588348 24.08987 105.73749451 22.95279602 105.72885132 21.78126526 C105.72994085 20.79331246 105.73103039 19.80535967 105.73215294 18.78746891 C105.0911464 15.44945596 103.86405063 14.28454472 101.234375 12.1953125 C98.64179831 11.33112027 96.89399793 11.01950318 94.22265625 10.87890625 C93.46533203 10.83701172 92.70800781 10.79511719 91.92773438 10.75195312 C90.74920898 10.69297852 90.74920898 10.69297852 89.546875 10.6328125 C88.74958984 10.58962891 87.95230469 10.54644531 87.13085938 10.50195312 C85.16556053 10.39603882 83.19999004 10.29518699 81.234375 10.1953125 C81.234375 6.8953125 81.234375 3.5953125 81.234375 0.1953125 C84.23537088 0.08640539 87.23233878 0.00757695 90.234375 -0.0546875 C91.07355469 -0.08820312 91.91273438 -0.12171875 92.77734375 -0.15625 C99.78971331 -0.26496891 104.94619004 1.30069408 110.2578125 5.9765625 C110.70382813 6.54375 111.14984375 7.1109375 111.609375 7.6953125 C112.30160156 8.54609375 112.30160156 8.54609375 113.0078125 9.4140625 C115.68516093 13.30218634 116.48580142 16.06820131 116.50180054 20.82354736 C116.51459549 22.54356209 116.51459549 22.54356209 116.52764893 24.29832458 C116.52628937 26.17947716 116.52628937 26.17947716 116.52490234 28.09863281 C116.53088841 29.43598302 116.53769414 30.77332978 116.54525757 32.110672 C116.56292035 35.74104029 116.56761315 39.37131428 116.56888914 43.00172138 C116.57031154 45.27190695 116.57458289 47.54206861 116.57988358 49.81224823 C116.59838721 57.73829162 116.60655408 65.66426776 116.60498047 73.59033203 C116.60378009 80.96804627 116.624861 88.34546746 116.6564678 95.72310758 C116.68266358 102.064676 116.69334633 108.40614894 116.69206965 114.74777102 C116.69156083 118.53191602 116.69719875 122.31580076 116.71842575 126.09989166 C116.73786323 129.66229955 116.73789562 133.22420051 116.72339249 136.78662682 C116.72032127 138.70783838 116.73694374 140.62905029 116.75427246 142.55018616 C116.69681027 150.48186572 115.82120245 156.03876525 110.48828125 162.21875 C109.93011719 162.66476563 109.37195313 163.11078125 108.796875 163.5703125 C108.24128906 164.03179687 107.68570313 164.49328125 107.11328125 164.96875 C101.62968711 168.54847674 96.6010225 168.49195416 90.24682617 168.48583984 C89.24457504 168.49255707 88.24232391 168.49927429 87.20970154 168.50619507 C83.89886506 168.52518104 80.58823127 168.52909967 77.27734375 168.53125 C74.97194841 168.53767778 72.6665539 168.54440612 70.36116028 168.55142212 C65.52843332 168.56339659 60.69577786 168.56710279 55.86303711 168.56591797 C49.6792064 168.56571484 43.49583554 168.59301076 37.31211376 168.62746239 C32.54993089 168.64973224 27.78785865 168.65375546 23.02562904 168.65269852 C20.74632496 168.65505458 18.46701782 168.66387832 16.18776512 168.67936325 C12.99488786 168.69902309 9.80300164 168.69318444 6.61010742 168.68115234 C5.67424805 168.69239136 4.73838867 168.70363037 3.77416992 168.71520996 C-3.17533535 168.64887365 -8.47450512 167.03533294 -13.7890625 162.44921875 C-14.23507813 161.89105469 -14.68109375 161.33289063 -15.140625 160.7578125 C-15.60210937 160.20222656 -16.06359375 159.64664063 -16.5390625 159.07421875 C-19.2278101 154.95546845 -20.01697584 151.32721981 -20.03977966 146.44682312 C-20.04975479 145.29877197 -20.05972992 144.15072083 -20.07000732 142.96788025 C-20.070672 141.71737381 -20.07133667 140.46686737 -20.07202148 139.1784668 C-20.07964761 137.84096822 -20.08807589 136.50347401 -20.09724426 135.16598511 C-20.1191521 131.53981809 -20.12798317 127.91373539 -20.13307071 124.28750968 C-20.13671881 122.01949619 -20.14296123 119.75150463 -20.1500721 117.48349953 C-20.17455409 109.56394103 -20.18761569 101.64444791 -20.19116211 93.72485352 C-20.19479601 86.35444392 -20.22468382 78.98445109 -20.26656669 71.61416882 C-20.30131117 65.276826 -20.31671127 58.93962102 -20.31740814 52.60218364 C-20.31819958 48.82133726 -20.32687588 45.04091564 -20.35540581 41.26016808 C-20.38165831 37.70177307 -20.3837527 34.14415279 -20.36775017 30.5857048 C-20.36508271 28.66686366 -20.38707066 26.74803712 -20.40994263 24.82933044 C-20.34155726 16.72903274 -19.04365843 11.47342141 -13.25209713 5.68175793 C-9.02410679 1.96563031 -5.63964542 -0.07230315 0 0 Z " fill="#070707" transform="translate(71.765625,40.8046875)"/>
<path d="M0 0 C3.75212276 2.01502889 5.63644095 3.45466142 8 7 C8.125 10.1875 8.125 10.1875 8 13 C8.99902344 12.98839844 9.99804688 12.97679687 11.02734375 12.96484375 C12.31769531 12.95582031 13.60804688 12.94679688 14.9375 12.9375 C16.22527344 12.92589844 17.51304687 12.91429687 18.83984375 12.90234375 C22 13 22 13 23 14 C23.09880797 15.47652664 23.13079245 16.95767236 23.1328125 18.4375 C23.13474609 19.77941406 23.13474609 19.77941406 23.13671875 21.1484375 C23.13285156 22.08945312 23.12898438 23.03046875 23.125 24 C23.13080078 25.41152344 23.13080078 25.41152344 23.13671875 26.8515625 C23.13542969 27.74617188 23.13414062 28.64078125 23.1328125 29.5625 C23.13168457 30.38878906 23.13055664 31.21507813 23.12939453 32.06640625 C23 34 23 34 22 35 C20.37872577 35.09861598 18.75317632 35.12798767 17.12890625 35.12939453 C15.57224243 35.13412277 15.57224243 35.13412277 13.98413086 35.13894653 C12.29042358 35.13591019 12.29042358 35.13591019 10.5625 35.1328125 C8.83688843 35.13424759 8.83688843 35.13424759 7.07641602 35.13571167 C4.63850856 35.13639369 2.2005993 35.1345379 -0.23730469 35.13037109 C-3.98376518 35.12502317 -7.73010577 35.13031539 -11.4765625 35.13671875 C-13.83854193 35.13605797 -16.20052129 35.13477682 -18.5625 35.1328125 C-19.69163818 35.13483673 -20.82077637 35.13686096 -21.98413086 35.13894653 C-23.54079468 35.13421829 -23.54079468 35.13421829 -25.12890625 35.12939453 C-26.04744385 35.12859894 -26.96598145 35.12780334 -27.91235352 35.12698364 C-30 35 -30 35 -31 34 C-31.09880797 32.52347336 -31.13079245 31.04232764 -31.1328125 29.5625 C-31.13410156 28.66789062 -31.13539062 27.77328125 -31.13671875 26.8515625 C-31.13091797 25.44003906 -31.13091797 25.44003906 -31.125 24 C-31.12886719 23.05898438 -31.13273437 22.11796875 -31.13671875 21.1484375 C-31.13542969 20.25382812 -31.13414063 19.35921875 -31.1328125 18.4375 C-31.13112061 17.19806641 -31.13112061 17.19806641 -31.12939453 15.93359375 C-31 14 -31 14 -30 13 C-27.64686445 12.92728259 -25.29166332 12.91629132 -22.9375 12.9375 C-21.64714844 12.94652344 -20.35679688 12.95554687 -19.02734375 12.96484375 C-18.02832031 12.97644531 -17.02929688 12.98804688 -16 13 C-16.03609375 12.06671875 -16.0721875 11.1334375 -16.109375 10.171875 C-15.97000351 6.13010191 -14.82064761 4.82064761 -12 2 C-8.46965154 -0.64776134 -4.24137921 -0.67698937 0 0 Z " fill="#050505" transform="translate(124,26)"/>
<path d="M0 0 C16.5 0 33 0 50 0 C50 2.64 50 5.28 50 8 C33.5 8 17 8 0 8 C0 5.36 0 2.72 0 0 Z " fill="#141414" transform="translate(114,161)"/>
<path d="M0 0 C16.5 0 33 0 50 0 C50 2.64 50 5.28 50 8 C33.5 8 17 8 0 8 C0 5.36 0 2.72 0 0 Z " fill="#151515" transform="translate(114,88)"/>
<path d="M0 0 C4.76698641 2.44460841 4.76698641 2.44460841 5.80273438 4.91333008 C6 7 6 7 3.71875 10.13671875 C2.65771247 11.3309732 1.58400676 12.51405478 0.5 13.6875 C-0.61094813 14.93219144 -1.72032597 16.17828622 -2.828125 17.42578125 C-3.37146484 18.03244629 -3.91480469 18.63911133 -4.47460938 19.26416016 C-7.49484784 22.70108325 -10.25295208 26.34371791 -13 30 C-17.68904588 28.57699887 -20.51610475 25.84303666 -23.8125 22.375 C-24.31458984 21.859375 -24.81667969 21.34375 -25.33398438 20.8125 C-26.56296227 19.54840846 -27.78246001 18.27511194 -29 17 C-27.68 15.02 -26.36 13.04 -25 11 C-22.41300506 12.14977553 -20.61611621 13.32770568 -18.4375 15.1875 C-17.633125 15.785625 -16.82875 16.38375 -16 17 C-12.80781511 15.93593837 -12.3109186 15.46080726 -10.37109375 12.91015625 C-9.89349609 12.29076172 -9.41589844 11.67136719 -8.92382812 11.03320312 C-8.43333984 10.38287109 -7.94285156 9.73253906 -7.4375 9.0625 C-6.45809419 7.78173855 -5.47766743 6.50175701 -4.49609375 5.22265625 C-4.06482178 4.65297119 -3.6335498 4.08328613 -3.18920898 3.49633789 C-2 2 -2 2 0 0 Z " fill="#0A0A0A" transform="translate(105,111)"/>
<path d="M0 0 C3 1.5 3 1.5 6 3 C5.11875376 7.40265617 2.70888399 10.26486612 -0.0625 13.6875 C-0.79980347 14.61199951 -0.79980347 14.61199951 -1.55200195 15.55517578 C-5.53779928 20.51686207 -9.68228304 25.32350426 -14 30 C-19.03163018 25.70214922 -24.02718443 21.36574458 -29 17 C-27.84826645 14.53199953 -26.95216435 12.95216435 -25 11 C-21.60229115 11.3299428 -19.7318913 12.8192521 -17.25 15.0625 C-16.32960938 15.88427734 -16.32960938 15.88427734 -15.390625 16.72265625 C-14.93171875 17.14417969 -14.4728125 17.56570312 -14 18 C-13.78472656 17.47792969 -13.56945312 16.95585937 -13.34765625 16.41796875 C-11.4544122 13.02110478 -8.97456471 10.24587955 -6.4375 7.3125 C-5.93025391 6.71888672 -5.42300781 6.12527344 -4.90039062 5.51367188 C-1.24503968 1.24503968 -1.24503968 1.24503968 0 0 Z " fill="#0A0A0A" transform="translate(105,148)"/>
<path d="M0 0 C3 1.5 3 1.5 6 3 C5.11875376 7.40265617 2.70888399 10.26486612 -0.0625 13.6875 C-0.79980347 14.61199951 -0.79980347 14.61199951 -1.55200195 15.55517578 C-5.53779928 20.51686207 -9.68228304 25.32350426 -14 30 C-19.03163018 25.70214922 -24.02718443 21.36574458 -29 17 C-27.84826645 14.53199953 -26.95216435 12.95216435 -25 11 C-21.60229115 11.3299428 -19.7318913 12.8192521 -17.25 15.0625 C-16.32960938 15.88427734 -16.32960938 15.88427734 -15.390625 16.72265625 C-14.93171875 17.14417969 -14.4728125 17.56570312 -14 18 C-13.78472656 17.47792969 -13.56945312 16.95585938 -13.34765625 16.41796875 C-11.4544122 13.02110478 -8.97456471 10.24587955 -6.4375 7.3125 C-5.93025391 6.71888672 -5.42300781 6.12527344 -4.90039062 5.51367188 C-1.24503968 1.24503968 -1.24503968 1.24503968 0 0 Z " fill="#0A0A0A" transform="translate(105,75)"/>
<path d="M0 0 C16.17 0 32.34 0 49 0 C49 2.31 49 4.62 49 7 C32.83 7 16.66 7 0 7 C0 4.69 0 2.38 0 0 Z " fill="#010101" transform="translate(115,125)"/>
<path d="M0 0 C2.875 0.6875 2.875 0.6875 3.875 1.6875 C4.0625 4.625 4.0625 4.625 3.875 7.6875 C1.875 9.6875 1.875 9.6875 -1.125 9.9375 C-4.125 9.6875 -4.125 9.6875 -6.125 7.6875 C-6.4375 4.6875 -6.4375 4.6875 -6.125 1.6875 C-3.125 -0.3125 -3.125 -0.3125 0 0 Z " fill="#F1F1F1" transform="translate(121.125,33.3125)"/>
</svg>
