<?xml version="1.0" encoding="UTF-8"?>
<svg version="1.1" xmlns="http://www.w3.org/2000/svg" width="240" height="240">
<path d="M0 0 C79.2 0 158.4 0 240 0 C240 79.2 240 158.4 240 240 C160.8 240 81.6 240 0 240 C0 160.8 0 81.6 0 0 Z " fill="#FDFDFD" transform="translate(0,0)"/>
<path d="M0 0 C1.80462456 -0.00845947 1.80462456 -0.00845947 3.64570618 -0.01708984 C4.98593199 -0.0132009 6.32615722 -0.00910454 7.66638184 -0.00482178 C9.07228273 -0.00753065 10.47818221 -0.011091 11.88407898 -0.01544189 C15.70838825 -0.02458051 19.53258995 -0.02101562 23.35690117 -0.01468372 C27.35317151 -0.00963132 31.34943244 -0.01431305 35.34570312 -0.01745605 C42.05759338 -0.02109792 48.76943966 -0.01629083 55.48132324 -0.0067749 C63.24870213 0.00411008 71.01597603 0.00058466 78.78335238 -0.01042771 C85.44409985 -0.01949432 92.10481566 -0.02078895 98.7655673 -0.01555037 C102.74731893 -0.01242721 106.72902117 -0.01203078 110.71076965 -0.01862335 C114.45359033 -0.0243871 118.19627523 -0.02041787 121.93908119 -0.00883484 C123.31536445 -0.00618303 124.69165907 -0.00696219 126.06793785 -0.01136017 C127.94136531 -0.0167963 129.81481765 -0.00878194 131.68823242 0 C132.73832237 0.00075405 133.78841232 0.0015081 134.87032318 0.002285 C137.34411621 0.25396729 137.34411621 0.25396729 139.34411621 2.25396729 C139.59300518 4.07462406 139.59300518 4.07462406 139.59135437 6.32209778 C139.59554886 7.17323151 139.59974335 8.02436523 139.60406494 8.90129089 C139.59844543 9.83695389 139.59282593 10.77261688 139.58703613 11.7366333 C139.58893448 12.72042969 139.59083282 13.70422607 139.5927887 14.71783447 C139.59650419 17.98126097 139.58578195 21.24446669 139.57458496 24.50787354 C139.57339358 26.76706415 139.57293991 29.02625526 139.57319641 31.28544617 C139.57163025 36.02425224 139.5633299 40.76298291 139.54992676 45.50177002 C139.53292705 51.59092266 139.52911261 57.67999241 139.52987194 63.76916599 C139.52960067 68.43498025 139.52412649 73.10077621 139.5168705 77.7665844 C139.51367758 80.01258137 139.51171498 82.25858042 139.51097679 84.50457954 C139.50882036 87.63665461 139.50009158 90.76863987 139.48937988 93.9006958 C139.48983307 94.83838303 139.49028625 95.77607025 139.49075317 96.74217224 C139.45858999 103.1394935 139.45858999 103.1394935 138.34411621 104.25396729 C136.59785098 104.35026326 134.84765716 104.37584267 133.09873962 104.3742218 C131.96145416 104.37559647 130.8241687 104.37697113 129.65242004 104.37838745 C127.76428841 104.37299454 127.76428841 104.37299454 125.8380127 104.36749268 C124.52113464 104.3676387 123.20425659 104.36778473 121.84747314 104.36793518 C118.22573353 104.36822315 114.60402675 104.36232652 110.9822948 104.35536122 C107.20129737 104.34912758 103.42029926 104.34852388 99.63929749 104.34733582 C92.47467331 104.34422253 85.31006432 104.33600918 78.14544684 104.32598633 C69.99080459 104.31482511 61.83616164 104.30931472 53.68151367 104.30429089 C36.90237228 104.29382656 20.12324618 104.27622717 3.34411621 104.25396729 C4.28647294 106.18273127 5.23390436 108.10901642 6.18347168 110.03424072 C6.71052704 111.10720398 7.2375824 112.18016724 7.78060913 113.28564453 C14.39121749 125.83590379 27.09826089 134.52022427 39.99255371 139.66021729 C44.85660972 140.88835103 48.06135493 140.61865989 52.43786621 138.20709229 C53.9147197 137.31939502 55.38335603 136.41790511 56.84411621 135.50396729 C57.57759277 135.06052979 58.31106934 134.61709229 59.06677246 134.16021729 C62.33531702 132.17219376 65.49243339 130.14457179 68.56286621 127.86334229 C71.34411621 126.25396729 71.34411621 126.25396729 73.57507324 126.24591064 C77.76421692 127.77094805 80.32614268 130.6452877 83.43005371 133.77349854 C84.09123199 134.42847824 84.75241028 135.08345795 85.43362427 135.75828552 C86.82529705 137.1428656 88.21186537 138.53259272 89.59362793 139.92706299 C91.71683227 142.06416839 93.86297856 144.1761513 96.01208496 146.28717041 C97.36119345 147.63532808 98.70889969 148.98489078 100.05505371 150.33599854 C100.7007431 150.96842972 101.3464325 151.6008609 102.01168823 152.25245667 C102.59624786 152.84954941 103.1808075 153.44664215 103.78308105 154.06182861 C104.30316742 154.58287674 104.82325378 155.10392487 105.35910034 155.64076233 C106.34411621 157.25396729 106.34411621 157.25396729 106.12942505 159.27330017 C104.90348594 162.36530315 102.83878015 164.80409893 100.78161621 167.37896729 C100.11259277 168.23131958 100.11259277 168.23131958 99.43005371 169.10089111 C98.07463231 170.82388851 96.71011583 172.53935058 95.34411621 174.25396729 C94.1704248 175.74090088 94.1704248 175.74090088 92.97302246 177.25787354 C87.72571832 183.87236517 87.72571832 183.87236517 85.34411621 186.25396729 C56.87593743 188.39832361 24.61857548 171.5463026 3.46911621 153.69146729 C1.40352129 151.90306148 -0.62747045 150.08528783 -2.65588379 148.25396729 C-3.76383301 147.25429932 -3.76383301 147.25429932 -4.89416504 146.23443604 C-26.55159068 125.6186501 -40.14054828 95.45954161 -44.65588379 66.25396729 C-44.8892041 65.20209229 -45.12252441 64.15021729 -45.36291504 63.06646729 C-45.84892244 59.57811511 -45.86591254 57.58043009 -44.65588379 54.25396729 C-41.01752258 49.93927018 -36.27870308 46.77769019 -31.64904785 43.61724854 C-29.80516726 42.35607396 -28.00322871 41.05531218 -26.21057129 39.72271729 C-23.71187942 37.86990138 -21.19590865 36.04941105 -18.65588379 34.25396729 C-15.6636811 35.61767028 -13.3656185 37.20304812 -10.90588379 39.37896729 C-10.29229004 39.91779541 -9.67869629 40.45662354 -9.04650879 41.01177979 C-8.58760254 41.42170166 -8.12869629 41.83162354 -7.65588379 42.25396729 C-7.67159424 40.45209961 -7.67159424 40.45209961 -7.68762207 38.61383057 C-7.72375666 34.16724617 -7.74676036 29.7206748 -7.76574707 25.27398682 C-7.77581961 23.34753234 -7.78947822 21.42109321 -7.8067627 19.49468994 C-7.8309562 16.72951477 -7.84235415 13.96454129 -7.85119629 11.19927979 C-7.86151886 10.33465118 -7.87184143 9.47002258 -7.88247681 8.57919312 C-7.88287485 6.46943208 -7.77853622 4.3601601 -7.65588379 2.25396729 C-4.98950655 -0.41240995 -3.72590385 0.00267551 0 0 Z " fill="#080808" transform="translate(72.6558837890625,26.74603271484375)"/>
<path d="M0 0 C43.89 0 87.78 0 133 0 C133 6 133 6 130.61328125 8.60546875 C129.52723183 9.48400997 128.42577671 10.34372693 127.3125 11.1875 C126.11029589 12.14926329 124.90848361 13.11151653 123.70703125 14.07421875 C123.08908691 14.55938965 122.47114258 15.04456055 121.83447266 15.54443359 C118.99810529 17.79495559 116.25246363 20.14826208 113.5 22.5 C112.41714909 23.4172365 111.33381401 24.3339017 110.25 25.25 C109.71375 25.70375 109.1775 26.1575 108.625 26.625 C102.66666667 31.66666667 96.70833333 36.70833333 90.75 41.75 C90.2130249 42.2047168 89.6760498 42.65943359 89.12280273 43.12792969 C88.04820165 44.03649868 86.97220906 44.94342466 85.89477539 45.84863281 C83.03876259 48.25196347 80.21832706 50.68612773 77.43359375 53.171875 C76.84835938 53.68685547 76.263125 54.20183594 75.66015625 54.73242188 C74.53516662 55.72348417 73.41879523 56.7244403 72.3125 57.73632812 C70.77734375 59.078125 70.77734375 59.078125 68 61 C64.82888586 60.65228667 63.05349383 59.47280874 60.71484375 57.375 C60.10769531 56.83810547 59.50054687 56.30121094 58.875 55.74804688 C58.235625 55.17119141 57.59625 54.59433594 56.9375 54 C55.58310094 52.80087405 54.22762664 51.60296149 52.87109375 50.40625 C52.20835449 49.81972656 51.54561523 49.23320313 50.86279297 48.62890625 C48.45659328 46.52482181 45.98850236 44.50577033 43.5 42.5 C39.08330633 38.92458131 34.78226638 35.23393065 30.5 31.5 C26.15139861 27.70990454 21.78398779 23.95808528 17.3125 20.3125 C16.4565625 19.61125 15.600625 18.91 14.71875 18.1875 C12.71511443 16.57537943 10.69824496 14.9992998 8.65625 13.4375 C7.54157523 12.56261648 6.42699004 11.68761882 5.3125 10.8125 C4.29800781 10.03519531 3.28351563 9.25789063 2.23828125 8.45703125 C0 6 0 6 0 0 Z " fill="#FDFDFD" transform="translate(72,35)"/>
<path d="M0 0 C4.19625909 1.63778045 6.98676785 4.73323182 10.078125 7.8828125 C10.64956238 8.45707977 11.22099976 9.03134705 11.80975342 9.62301636 C13.62792945 11.4523581 15.43901492 13.28854193 17.25 15.125 C18.48391329 16.36894774 19.71828322 17.6124427 20.953125 18.85546875 C23.97406743 21.89842367 26.98867092 24.94753254 30 28 C28.87548273 30.9719385 27.77706209 33.33440687 26 36 C26.31886212 50.66765731 36.23473973 65.7309175 46 76 C55.16584899 84.16593819 67.5611294 92.03684994 80.0625 93.3125 C83.07704713 93.20340297 83.07704713 93.20340297 85.5625 91.4375 C88 90 88 90 90.26416016 90.05737305 C94.07098916 91.3690067 96.43580794 93.84419465 99.2109375 96.64453125 C99.7833316 97.21072678 100.35572571 97.7769223 100.94546509 98.36027527 C102.14882089 99.55654355 103.34708529 100.75795253 104.54052734 101.96411133 C106.37407562 103.8115686 108.23041094 105.63371825 110.08984375 107.45507812 C111.2566606 108.62094419 112.42207556 109.78821534 113.5859375 110.95703125 C114.14413177 111.50196732 114.70232605 112.04690338 115.2774353 112.60835266 C116.80615234 114.17504883 116.80615234 114.17504883 119 117 C118.90087891 119.25268555 118.90087891 119.25268555 118 121 C117.67 121.66 117.34 122.32 117 123 C92.31929863 124.51106335 64.64874617 111.16950248 46 96 C45.47180664 95.5757373 44.94361328 95.15147461 44.39941406 94.71435547 C32.87442147 85.41840872 24.3305267 75.1555086 16 63 C15.44183594 62.20078125 14.88367188 61.4015625 14.30859375 60.578125 C5.82051474 47.53377469 -0.11907045 30.56477938 -2.75 15.25 C-2.88792969 14.52167969 -3.02585938 13.79335937 -3.16796875 13.04296875 C-3.85660526 9.13122939 -4.37364584 5.78453445 -3 2 C-2.01 1.34 -1.02 0.68 0 0 Z " fill="#F9F9F9" transform="translate(39,82)"/>
<path d="M0 0 C0 23.43 0 46.86 0 71 C-7.44583084 66.93863773 -14.86720794 62.8588499 -22.25 58.6875 C-23.73802124 57.84699097 -23.73802124 57.84699097 -25.25610352 56.98950195 C-33.25154336 52.45704691 -41.15888474 47.7938572 -49 43 C-47.4479356 38.89607511 -44.49657332 36.62160115 -41.1875 33.9375 C-40.00632935 32.95985414 -38.82534499 31.98198316 -37.64453125 31.00390625 C-37.03947754 30.50648926 -36.43442383 30.00907227 -35.81103516 29.49658203 C-32.97398624 27.15213476 -30.17702121 24.76107973 -27.375 22.375 C-23.36878977 18.97575493 -19.32897436 15.62453628 -15.25 12.3125 C-10.93984189 8.81128652 -6.78069384 5.17703904 -2.6796875 1.43359375 C-1 0 -1 0 0 0 Z " fill="#FAFAFA" transform="translate(205,50)"/>
<path d="M0 0 C1.31322788 0.97819024 2.62556152 1.9575811 3.9375 2.9375 C4.66839844 3.48277344 5.39929688 4.02804688 6.15234375 4.58984375 C8 6 8 6 9 7 C12.15818618 7.38737548 13.57934557 7.28777755 16.23828125 5.46875 C16.92277344 4.8190625 17.60726562 4.169375 18.3125 3.5 C19.00988281 2.8503125 19.70726562 2.200625 20.42578125 1.53125 C20.94527344 1.0259375 21.46476562 0.520625 22 0 C22.80179687 0.46148437 23.60359375 0.92296875 24.4296875 1.3984375 C30.51720583 4.8908233 36.61841823 8.35045502 42.76660156 11.73510742 C59.73240756 21.08217685 59.73240756 21.08217685 67 26 C67 26.33 67 26.66 67 27 C30.37 27 -6.26 27 -44 27 C-41.20574883 24.20574883 -38.94561609 22.6722469 -35.546875 20.7421875 C-34.45874512 20.12029541 -33.37061523 19.49840332 -32.24951172 18.85766602 C-31.67714783 18.5333963 -31.10478394 18.20912659 -30.51507568 17.87503052 C-27.5645973 16.20339204 -24.62268682 14.51679025 -21.6796875 12.83203125 C-20.5359668 12.17799316 -19.39224609 11.52395508 -18.21386719 10.85009766 C-12.08821171 7.32379735 -6.03675799 3.67584769 0 0 Z " fill="#F7F7F7" transform="translate(127,97)"/>
<path d="M0 0 C4.02542649 1.88286952 7.12076903 4.5235182 10.4375 7.4375 C11.69496964 8.52904093 12.95278989 9.62017808 14.2109375 10.7109375 C14.84483398 11.26233398 15.47873047 11.81373047 16.13183594 12.38183594 C18.92230112 14.79887765 21.74058167 17.18232956 24.5625 19.5625 C25.62633414 20.46089954 26.69013614 21.35933715 27.75390625 22.2578125 C28.28258301 22.70415039 28.81125977 23.15048828 29.35595703 23.61035156 C31.08151188 25.06889896 32.8046844 26.53022172 34.52734375 27.9921875 C35.10863037 28.48517334 35.68991699 28.97815918 36.28881836 29.48608398 C37.3929295 30.42258573 38.49663789 31.35956263 39.59985352 32.29711914 C41.98760496 34.32099362 44.38494391 36.29341513 46.875 38.19140625 C47.57625 38.78824219 48.2775 39.38507813 49 40 C49 40.66 49 41.32 49 42 C48.32759277 42.38631592 47.65518555 42.77263184 46.96240234 43.1706543 C31.58094481 52.01283829 16.25072856 60.93343956 1 70 C1 66.36710851 1.95716706 65.11913107 3.87890625 62.0703125 C4.46994141 61.10996094 5.06097656 60.14960937 5.66992188 59.16015625 C6.92923274 57.14058032 8.19484607 55.12492037 9.46679688 53.11328125 C10.05654297 52.15035156 10.64628906 51.18742187 11.25390625 50.1953125 C11.80377197 49.31891113 12.3536377 48.44250977 12.92016602 47.53955078 C14.22170672 44.4785907 14.14050811 43.09864074 13 40 C11.44940175 38.74387127 9.89218216 37.49409386 8.2878418 36.30737305 C3.71919464 32.77072535 0.48953647 29.59743672 -0.61132812 23.75634766 C-1.15615802 15.82306668 -0.71821476 7.91056183 0 0 Z " fill="#F9F9F9" transform="translate(72,51)"/>
<path d="M0 0 C2.47363281 2.13305664 2.47363281 2.13305664 5.203125 4.91015625 C5.6857782 5.39705429 6.1684314 5.88395233 6.66571045 6.38560486 C8.2010085 7.9376545 9.72552925 9.49982136 11.25 11.0625 C12.2909722 12.11852357 13.3326314 13.17387038 14.375 14.22851562 C16.92467633 16.81121415 19.46479196 19.40308882 22 22 C20.38617243 25.40212299 18.41396234 28.10324519 16 31 C11.99482604 29.39626852 9.3228902 26.57886014 6.359375 23.5546875 C5.83232971 23.02481232 5.30528442 22.49493713 4.76226807 21.94900513 C3.08674325 20.26232175 1.41832278 18.56880436 -0.25 16.875 C-1.38755851 15.72740612 -2.52557436 14.58026539 -3.6640625 13.43359375 C-6.44803465 10.62761863 -9.2256576 7.81549536 -12 5 C-5.16257892 -1.99411198 -5.16257892 -1.99411198 0 0 Z " fill="#F4F4F4" transform="translate(148,163)"/>
<path d="M0 0 C5.80891746 4.81867247 11.13065552 10.01256408 16.4375 15.375 C17.26443359 16.20644531 18.09136719 17.03789063 18.94335938 17.89453125 C20.96454395 19.92739897 22.98259489 21.96338151 25 24 C23.35 27.3 21.7 30.6 20 34 C16.01890074 32.00945037 13.43475619 29.72506874 10.359375 26.625 C9.56880707 25.83730225 9.56880707 25.83730225 8.76226807 25.03369141 C7.65383072 23.92661117 6.54789954 22.8170167 5.44433594 21.70507812 C3.74893699 19.99893025 2.0430839 18.30375953 0.3359375 16.609375 C-0.74022558 15.53189108 -1.81576851 14.45378733 -2.890625 13.375 C-3.40304749 12.86662598 -3.91546997 12.35825195 -4.44342041 11.83447266 C-8 8.22994091 -8 8.22994091 -8 6 C-6.25 4.4921875 -6.25 4.4921875 -4 2.875 C-3.2575 2.33617188 -2.515 1.79734375 -1.75 1.2421875 C-1.1725 0.83226563 -0.595 0.42234375 0 0 Z " fill="#F4F4F4" transform="translate(54,70)"/>
</svg>
