<?xml version="1.0" encoding="UTF-8"?>
<svg version="1.1" xmlns="http://www.w3.org/2000/svg" width="240" height="240">
<path d="M0 0 C79.2 0 158.4 0 240 0 C240 79.2 240 158.4 240 240 C160.8 240 81.6 240 0 240 C0 160.8 0 81.6 0 0 Z " fill="#FEFEFE" transform="translate(0,0)"/>
<path d="M0 0 C5.02170816 1.40134674 7.48104755 3.92537354 11.07263184 7.58525085 C11.76615753 8.26826263 12.45968323 8.95127441 13.17422485 9.65498352 C15.45652396 11.91093036 17.71623813 14.18805298 19.97521973 16.46733093 C21.55617601 18.04424481 23.13802201 19.62026716 24.72071838 21.19543457 C28.03130491 24.4971813 31.33081058 27.80952206 34.6229248 31.12968445 C38.84523807 35.38620957 43.09395396 39.61519367 47.35130978 43.83663464 C50.62122077 47.08487558 53.87671959 50.34725828 57.12802315 53.61411476 C58.68934192 55.17943768 60.25513461 56.74031118 61.82542229 58.29663658 C64.0164194 60.47241034 66.18728403 62.66646582 68.35388184 64.86650085 C69.00678696 65.50726059 69.65969208 66.14802032 70.3323822 66.80819702 C73.16033926 69.71762345 74.62728011 71.22829166 75.28968811 75.31469727 C74.51986818 79.29193379 73.04578886 80.74258293 69.76037598 83.04936218 C64.34788467 83.03568238 61.65760989 81.63563463 57.95483398 77.99034119 C57.40025513 77.41419067 56.84567627 76.83804016 56.27429199 76.24443054 C55.36567665 75.33712944 55.36567665 75.33712944 54.43870544 74.41149902 C52.44933486 72.41796387 50.48203692 70.40406109 48.51428223 68.38920593 C47.13554653 66.99927423 45.755476 65.61066544 44.37413025 64.22332764 C40.74894079 60.57527243 37.1421334 56.90955853 33.53887939 53.23985291 C29.85608159 49.49558553 26.1561562 45.76832841 22.4576416 42.03959656 C15.20836956 34.72605146 7.9784061 27.39373374 0.76037598 20.04936218 C-3.36061444 21.66960201 -6.06999082 24.65419564 -9.0904541 27.76835632 C-9.95228554 28.64420631 -9.95228554 28.64420631 -10.83152771 29.53775024 C-12.07657276 30.80376928 -13.31943057 32.07194223 -14.56034279 33.34201241 C-16.52653512 35.35228794 -18.50060693 37.35449282 -20.4773407 39.35440063 C-26.09619365 45.04040946 -31.70681419 50.73433363 -37.29650879 56.44902039 C-40.71819657 59.94606757 -44.15440144 63.42827285 -47.600317 66.90144157 C-48.90919445 68.22641232 -50.21249858 69.55691311 -51.5100193 70.89300728 C-53.32658838 72.76262663 -55.16105509 74.61279459 -57.00061035 76.45976257 C-57.53020355 77.01406952 -58.05979675 77.56837646 -58.60543823 78.13948059 C-62.28569591 81.78097686 -65.0565941 83.0151453 -70.23962402 83.04936218 C-73.17712402 80.98686218 -73.17712402 80.98686218 -75.23962402 78.04936218 C-75.65344238 75.1257782 -75.65344238 75.1257782 -75.23962402 72.04936218 C-73.32775879 69.90068054 -73.32775879 69.90068054 -70.68103027 67.88920593 C-58.15086695 57.93715197 -58.15086695 57.93715197 -52.79821777 43.39701843 C-52.60490028 38.27521582 -52.8671132 33.2529983 -53.20837402 28.14311218 C-53.52190148 22.61284759 -53.52190148 22.61284759 -52.27307129 20.11991882 C-50.06748062 17.79930387 -48.31000818 17.06228988 -45.17712402 16.48686218 C-41.50989769 17.18909701 -40.49913745 18.10573169 -38.23962402 21.04936218 C-37.84899902 24.28373718 -37.84899902 24.28373718 -37.98962402 27.79936218 C-38.02571777 28.96983093 -38.06181152 30.14029968 -38.09899902 31.34623718 C-38.14540527 32.23826843 -38.19181152 33.13029968 -38.23962402 34.04936218 C-33.07568597 29.83503421 -28.40456874 25.22789903 -23.79821777 20.42436218 C-22.62591421 19.21190745 -21.45338444 17.99967139 -20.28063965 16.78764343 C-18.46453449 14.90956106 -16.65556033 13.02647743 -14.8638916 11.12504578 C-13.11033572 9.26861905 -11.33237048 7.43883858 -9.54821777 5.61186218 C-9.01885117 5.03806824 -8.48948456 4.46427429 -7.94407654 3.87309265 C-5.2764335 1.1855701 -3.8415855 0.05853428 0 0 Z " fill="#747987" transform="translate(120.2396240234375,48.95063781738281)"/>
<path d="M0 0 C3.24237491 0.94595199 4.22937373 2.79707377 6.03515625 5.59375 C6.43343971 8.35366539 6.61673264 10.72869431 6.609375 13.484375 C6.62353958 14.22959412 6.63770416 14.97481323 6.65229797 15.74261475 C6.69405611 18.10980889 6.70941783 20.47623999 6.72265625 22.84375 C6.75169234 25.22518936 6.78616598 27.60643529 6.82514954 29.98773193 C6.84768001 31.46668735 6.86347318 32.94576325 6.87199402 34.42486572 C6.60949762 37.79557751 6.60949762 37.79557751 8.03515625 40.59375 C10.402772 40.69400695 12.74122698 40.72993935 15.109375 40.72314453 C15.8491861 40.72489685 16.58899719 40.72664917 17.35122681 40.72845459 C19.80839348 40.7328731 22.26548878 40.72993513 24.72265625 40.7265625 C26.42277032 40.72723554 28.1228843 40.72820557 29.82299805 40.72946167 C33.39079706 40.73093864 36.95857108 40.72878411 40.52636719 40.72412109 C45.11004119 40.7184238 49.69365664 40.72170281 54.27732849 40.72769356 C57.78935186 40.73129919 61.30136123 40.73016057 64.81338501 40.72756577 C66.50395718 40.7268965 68.19453061 40.72772489 69.88510132 40.73004532 C72.24374782 40.73257189 74.6022982 40.72873121 76.9609375 40.72314453 C77.66642731 40.72516876 78.37191711 40.72719299 79.0987854 40.72927856 C82.34707668 40.99190566 82.34707668 40.99190566 85.03515625 39.59375 C85.14577072 37.13319687 85.19675669 34.69597207 85.2109375 32.234375 C85.23414583 30.71092384 85.25826357 29.18748631 85.28320312 27.6640625 C85.31825877 25.25674464 85.34762173 22.8499243 85.36108398 20.44238281 C85.37660447 18.12242813 85.4168489 15.80394009 85.4609375 13.484375 C85.45902908 12.76960999 85.45712067 12.05484497 85.45515442 11.31842041 C85.57267173 6.49328511 86.58231935 3.96838817 90.03515625 0.59375 C92.98009007 -0.26542455 94.89647974 0.1951879 98.03515625 0.59375 C99.7559967 1.88690186 99.7559967 1.88690186 101.03515625 3.59375 C101.34605102 6.52498985 101.47930553 9.23913962 101.46875 12.171875 C101.47399185 13.01667419 101.4792337 13.86147339 101.4846344 14.73187256 C101.49105828 16.52061871 101.48971285 18.30940709 101.48120117 20.09814453 C101.47272981 22.82011451 101.50138265 25.53995825 101.53320312 28.26171875 C101.53481635 30.00260354 101.53423528 31.74349202 101.53125 33.484375 C101.54248398 34.29191223 101.55371796 35.09944946 101.56529236 35.93145752 C101.48804693 42.27677764 99.8421549 46.52710398 95.47265625 51.30078125 C89.82488282 55.6440418 86.3010456 56.89374928 79.18066406 56.90014648 C77.99937424 56.91263176 77.99937424 56.91263176 76.79421997 56.92536926 C74.19218996 56.94945188 71.59041087 56.95824016 68.98828125 56.96484375 C67.17470221 56.97381297 65.36112392 56.98293487 63.54754639 56.99220276 C59.74456994 57.00869168 55.94168151 57.01639242 52.13867188 57.01928711 C47.27855018 57.02466402 42.41926236 57.06231562 37.55937576 57.10803127 C33.8120018 57.13785915 30.064827 57.14501194 26.31734467 57.14601326 C24.52645813 57.15020591 22.73557048 57.16260173 20.94480133 57.18353081 C4.03732274 57.36536588 4.03732274 57.36536588 -1.58111572 52.97303772 C-7.68672216 46.88702384 -9.12373455 42.49500937 -9.16796875 33.875 C-9.17366882 33.02071411 -9.1793689 32.16642822 -9.1852417 31.28625488 C-9.19468286 29.48072547 -9.20122217 27.67517889 -9.20507812 25.86962891 C-9.21480703 23.10418894 -9.24584757 20.33948504 -9.27734375 17.57421875 C-9.28387172 15.82031692 -9.289123 14.06640977 -9.29296875 12.3125 C-9.30531555 11.48431763 -9.31766235 10.65613525 -9.3303833 9.80285645 C-9.30800224 4.05377834 -9.30800224 4.05377834 -7.68865967 1.88293457 C-5.2860086 0.08607178 -2.92663661 0.1353358 0 0 Z " fill="#757B88" transform="translate(73.96484375,134.40625)"/>
<path d="M0 0 C0 0.66 0 1.32 0 2 C-3.37097383 3.49821059 -5.20442119 4 -9 4 C-9 3.34 -9 2.68 -9 2 C-5.5647952 -0.29013653 -4.014669 -0.17842973 0 0 Z " fill="#7D818D" transform="translate(78,66)"/>
</svg>
