<?xml version="1.0" encoding="UTF-8"?>
<svg version="1.1" xmlns="http://www.w3.org/2000/svg" width="240" height="240">
<path d="M0 0 C79.2 0 158.4 0 240 0 C240 79.2 240 158.4 240 240 C160.8 240 81.6 240 0 240 C0 160.8 0 81.6 0 0 Z " fill="#FEFEFE" transform="translate(0,0)"/>
<path d="M0 0 C8.7964958 -0.78191074 16.34843715 2.43298873 23.3125 7.6875 C31.70656224 14.8957344 36.26716308 23.30068869 37.31640625 34.32421875 C37.70319568 45.66588301 35.36689688 55.31010365 27.8984375 64.0390625 C20.151307 72.04124256 10.09778255 77.18046819 -1.1875 77.5 C-7.89598944 77.181391 -14.28711533 76.00136737 -19.76000977 71.96386719 C-24.90966454 69.01811286 -30.47094391 69.46402534 -36.25462723 69.5141449 C-38.32372119 69.5315414 -40.39143466 69.52383049 -42.46054077 69.5098877 C-46.84879028 69.48466038 -51.23670759 69.49003725 -55.625 69.5 C-60.72049314 69.5115481 -65.81530896 69.51033461 -70.91071701 69.47593689 C-72.94344211 69.46886522 -74.97508166 69.48548449 -77.00772095 69.50305176 C-78.24605682 69.4962439 -79.4843927 69.48943604 -80.76025391 69.48242188 C-82.39071152 69.48719543 -82.39071152 69.48719543 -84.05410767 69.49206543 C-87.73070017 68.87794792 -89.40056698 67.63306054 -92 65 C-94.11632088 53.78349932 -87.04698313 40.99313606 -81.0859375 31.9296875 C-74.20694048 22.26817483 -65.17591591 13.60761445 -54 9 C-50.39939108 9.24549606 -47.77466005 10.09777967 -44.453125 11.5390625 C-39.46616345 13.43523035 -34.77412664 13.33698469 -29.5 13.1875 C-28.5821875 13.17396484 -27.664375 13.16042969 -26.71875 13.14648438 C-24.47853197 13.11148097 -22.23959406 13.06238869 -20 13 C-20.60944458 13.79120239 -20.60944458 13.79120239 -21.23120117 14.59838867 C-21.76720947 15.3019751 -22.30321777 16.00556152 -22.85546875 16.73046875 C-23.65053833 17.76917114 -23.65053833 17.76917114 -24.46166992 18.82885742 C-29.62751084 26.11973558 -31.85558146 33.08267211 -31 42 C-29.09694939 50.56916503 -26.21829323 57.62966896 -18.68359375 62.49609375 C-16.48510148 63.7417884 -14.27393879 64.89941362 -12 66 C-11.34 66.33 -10.68 66.66 -10 67 C0.89048778 67.83039969 10.04975342 67.13226155 18.875 60.1875 C25.53904592 53.93113689 27.95558733 46.05848995 28.375 37.125 C28.18350134 29.33339816 25.13826948 22.22636244 19.828125 16.52734375 C15.06477201 12.54770482 9.27972831 10.38797324 3.4375 8.5 C0 7 0 7 -1.0625 4.4375 C-1 2 -1 2 0 0 Z " fill="#041323" transform="translate(151,115)"/>
<path d="M0 0 C7.86778865 5.60486277 13.35439763 12.24329466 15.80078125 21.7109375 C17.08187687 31.91651945 14.41385741 40.32890513 8.52734375 48.63671875 C2.68086793 55.66042613 -4.50224209 59.03548757 -13.4609375 60.09765625 C-23.47585983 60.59344448 -30.90386721 58.19028405 -38.58203125 51.6953125 C-45.44992605 44.65001821 -48.33510707 36.84868202 -48.69921875 27.0859375 C-48.48872098 21.15691698 -47.2724448 16.76255282 -44.19921875 11.7109375 C-43.78671875 11.01226562 -43.37421875 10.31359375 -42.94921875 9.59375 C-38.43433382 2.79576985 -32.13696608 -0.7692302 -24.63671875 -3.6640625 C-15.97298855 -5.23928617 -7.72947655 -4.53059904 0 0 Z " fill="#031222" transform="translate(136.19921875,60.2890625)"/>
<path d="M0 0 C1.14662109 -0.02513672 1.14662109 -0.02513672 2.31640625 -0.05078125 C4.4375 0.3125 4.4375 0.3125 6.1953125 1.53515625 C8.61498853 4.99727133 7.81369878 9.26682129 7.4375 13.3125 C6.8122292 15.65726551 6.1511591 17.99310793 5.4375 20.3125 C5.26902909 23.60469428 5.26902909 23.60469428 5.4375 26.3125 C7.0875 26.6425 8.7375 26.9725 10.4375 27.3125 C10.4375 27.9725 10.4375 28.6325 10.4375 29.3125 C5.91556839 31.5734658 2.39911052 31.71262988 -2.5625 31.3125 C-4.70861167 29.75523076 -5.46026294 28.88964467 -5.92578125 26.26171875 C-5.81886925 21.50002271 -5.10581088 17.84597572 -3.5625 13.3125 C-3.3957231 10.6195436 -3.46932472 8.01458299 -3.5625 5.3125 C-5.2125 4.9825 -6.8625 4.6525 -8.5625 4.3125 C-8.5625 3.6525 -8.5625 2.9925 -8.5625 2.3125 C-5.60294139 0.62036057 -3.40550083 0.01728681 0 0 Z " fill="#081524" transform="translate(145.5625,144.6875)"/>
<path d="M0 0 C-0.309375 1.11375 -0.309375 1.11375 -0.625 2.25 C-1.05154009 5.37796068 -0.49700675 6.32595741 1 9 C-0.58074564 9.81752303 -2.16471223 10.62881997 -3.75 11.4375 C-4.63171875 11.88996094 -5.5134375 12.34242188 -6.421875 12.80859375 C-10.8498872 14.85487212 -14.37028244 15.11554041 -19.25 15.0625 C-20.32765625 15.05347656 -21.4053125 15.04445312 -22.515625 15.03515625 C-23.33546875 15.02355469 -24.1553125 15.01195312 -25 15 C-25.33 14.34 -25.66 13.68 -26 13 C-25.22914063 12.96261719 -24.45828125 12.92523438 -23.6640625 12.88671875 C-22.15972656 12.78810547 -22.15972656 12.78810547 -20.625 12.6875 C-19.62726563 12.62949219 -18.62953125 12.57148438 -17.6015625 12.51171875 C-16.74304688 12.34285156 -15.88453125 12.17398438 -15 12 C-14.34 11.01 -13.68 10.02 -13 9 C-14.66342837 7.33657163 -16.7825709 7.63951903 -19.0625 7.4375 C-19.98160156 7.35371094 -20.90070313 7.26992187 -21.84765625 7.18359375 C-22.91306641 7.09271484 -22.91306641 7.09271484 -24 7 C-24 6.67 -24 6.34 -24 6 C-22.99839844 5.90203125 -21.99679688 5.8040625 -20.96484375 5.703125 C-14.05508982 4.95185734 -5.90209517 0 0 0 Z " fill="#0E1A28" transform="translate(169,177)"/>
<path d="M0 0 C2 2 2 2 2.3125 4.9375 C2 8 2 8 0.8125 9.875 C-1.65507108 11.40659584 -3.14519831 11.42822025 -6 11 C-7.8125 9.875 -7.8125 9.875 -9 8 C-9.375 4.9375 -9.375 4.9375 -9 2 C-5.54754176 -0.30163882 -4.05261287 -0.34490322 0 0 Z " fill="#0F1A28" transform="translate(155,130)"/>
<path d="M0 0 C0 1.98 0 3.96 0 6 C-0.639375 6.103125 -1.27875 6.20625 -1.9375 6.3125 C-2.618125 6.539375 -3.29875 6.76625 -4 7 C-4.33 7.99 -4.66 8.98 -5 10 C-8.96 10 -12.92 10 -17 10 C-17.33 9.34 -17.66 8.68 -18 8 C-17.22914063 7.96261719 -16.45828125 7.92523438 -15.6640625 7.88671875 C-14.15972656 7.78810547 -14.15972656 7.78810547 -12.625 7.6875 C-11.12839844 7.60048828 -11.12839844 7.60048828 -9.6015625 7.51171875 C-8.74304688 7.34285156 -7.88453125 7.17398438 -7 7 C-6.34 6.01 -5.68 5.02 -5 4 C-6.66342837 2.33657163 -8.7825709 2.63951903 -11.0625 2.4375 C-12.44115234 2.31181641 -12.44115234 2.31181641 -13.84765625 2.18359375 C-14.91306641 2.09271484 -14.91306641 2.09271484 -16 2 C-16 1.67 -16 1.34 -16 1 C-14.27111445 0.83044205 -12.54187557 0.66448486 -10.8125 0.5 C-9.84957031 0.4071875 -8.88664063 0.314375 -7.89453125 0.21875 C-5.24812333 0.01875156 -2.65239135 -0.03879183 0 0 Z " fill="#1D2836" transform="translate(161,182)"/>
<path d="M0 0 C-0.309375 0.5775 -0.61875 1.155 -0.9375 1.75 C-1.92583364 3.84294184 -2.5168613 5.74535275 -3 8 C-5.31 8.66 -7.62 9.32 -10 10 C-10 9.34 -10 8.68 -10 8 C-10.99 7.67 -11.98 7.34 -13 7 C-11.21190303 5.82786955 -9.41940875 4.66244474 -7.625 3.5 C-6.62726563 2.8503125 -5.62953125 2.200625 -4.6015625 1.53125 C-2 0 -2 0 0 0 Z " fill="#0E1928" transform="translate(97,125)"/>
<path d="M0 0 C0.33 1.32 0.66 2.64 1 4 C-2.06117568 6.62386487 -2.73173127 7 -7 7 C-7.1875 4.625 -7.1875 4.625 -7 2 C-4 0 -4 0 0 0 Z " fill="#081423" transform="translate(153,130)"/>
<path d="M0 0 C-0.33 0.99 -0.66 1.98 -1 3 C-1.66 3 -2.32 3 -3 3 C-3 4.65 -3 6.3 -3 8 C-3.3403125 7.0409375 -3.3403125 7.0409375 -3.6875 6.0625 C-4.85250896 3.72806339 -4.85250896 3.72806339 -7.625 3.25 C-8.40875 3.1675 -9.1925 3.085 -10 3 C-10 2.34 -10 1.68 -10 1 C-6.42181037 -1.33958553 -4.07775191 -0.9267618 0 0 Z " fill="#1D2634" transform="translate(147,146)"/>
<path d="M0 0 C0.226875 0.639375 0.45375 1.27875 0.6875 1.9375 C1.85250896 4.27193661 1.85250896 4.27193661 4.625 4.75 C5.40875 4.8325 6.1925 4.915 7 5 C7 5.66 7 6.32 7 7 C3.6875 8.125 3.6875 8.125 0 9 C-0.99 8.34 -1.98 7.68 -3 7 C-2.34 7 -1.68 7 -1 7 C-0.67 4.69 -0.34 2.38 0 0 Z " fill="#151F2C" transform="translate(149,167)"/>
<path d="M0 0 C1.32 0.66 2.64 1.32 4 2 C4 4.31 4 6.62 4 9 C3.566875 8.505 3.13375 8.01 2.6875 7.5 C1.00259517 5.66781808 1.00259517 5.66781808 -2 6 C-2 3 -2 3 0 1 C0 0.67 0 0.34 0 0 Z " fill="#030D1C" transform="translate(149,146)"/>
<path d="M0 0 C-1.39332574 3.36720387 -2.9789286 4.9859524 -6 7 C-6.66 6.67 -7.32 6.34 -8 6 C-8 5.34 -8 4.68 -8 4 C-7.34 4 -6.68 4 -6 4 C-5.67 3.01 -5.34 2.02 -5 1 C-3 0 -3 0 0 0 Z " fill="#161F2C" transform="translate(180,176)"/>
<path d="M0 0 C0 4.80215996 -1.82639806 8.42969782 -5 12 C-5.66 12 -6.32 12 -7 12 C-5.44298069 7.32894208 -2.91552627 3.91294315 0 0 Z " fill="#171F2D" transform="translate(73,143)"/>
<path d="M0 0 C0.33 0.66 0.66 1.32 1 2 C0.06421005 4.35981813 -0.93347808 6.69631264 -2 9 C-2.66 9 -3.32 9 -4 9 C-4 9.66 -4 10.32 -4 11 C-4.66 11 -5.32 11 -6 11 C-4.54955729 6.89041233 -2.48889248 3.56741255 0 0 Z " fill="#1C2432" transform="translate(96,66)"/>
<path d="M0 0 C0 0.99 0 1.98 0 3 C-0.66 3.66 -1.32 4.32 -2 5 C-1.34 5.66 -0.68 6.32 0 7 C-1.98 7.99 -1.98 7.99 -4 9 C-4 8.34 -4 7.68 -4 7 C-4.66 6.67 -5.32 6.34 -6 6 C-4.02 4.02 -2.04 2.04 0 0 Z " fill="#222C39" transform="translate(80,135)"/>
<path d="M0 0 C-1.32 0.99 -2.64 1.98 -4 3 C-4.33 2.67 -4.66 2.34 -5 2 C-6.51469448 1.76807135 -8.03754562 1.58784762 -9.5625 1.4375 C-10.38878906 1.35371094 -11.21507813 1.26992187 -12.06640625 1.18359375 C-12.70449219 1.12300781 -13.34257813 1.06242188 -14 1 C-14 0.67 -14 0.34 -14 0 C-12.04235617 -0.19456705 -10.08384679 -0.38044247 -8.125 -0.5625 C-6.48917969 -0.71912109 -6.48917969 -0.71912109 -4.8203125 -0.87890625 C-2 -1 -2 -1 0 0 Z " fill="#232B36" transform="translate(131,129)"/>
<path d="M0 0 C0.33 0 0.66 0 1 0 C1.25 2.3125 1.25 2.3125 1 5 C-1 6.8125 -1 6.8125 -3 8 C-3 4.41465407 -1.97637955 2.92504174 0 0 Z " fill="#101928" transform="translate(176,167)"/>
</svg>
