<?xml version="1.0" encoding="UTF-8"?>
<svg version="1.1" xmlns="http://www.w3.org/2000/svg" width="273" height="273">
<path d="M0 0 C90.09 0 180.18 0 273 0 C273 90.09 273 180.18 273 273 C182.91 273 92.82 273 0 273 C0 182.91 0 92.82 0 0 Z " fill="#6A6252" transform="translate(0,0)"/>
<path d="M0 0 C90.09 0 180.18 0 273 0 C273 22.44 273 44.88 273 68 C182.91 68 92.82 68 0 68 C0 45.56 0 23.12 0 0 Z " fill="#534E45" transform="translate(0,0)"/>
<path d="M0 0 C90.09 0 180.18 0 273 0 C273 17.16 273 34.32 273 52 C182.91 52 92.82 52 0 52 C0 34.84 0 17.68 0 0 Z " fill="#4F4C4A" transform="translate(0,221)"/>
<path d="M0 0 C90.09 0 180.18 0 273 0 C273 9.9 273 19.8 273 30 C218.88 30 164.76 30 109 30 C109 29.34 109 28.68 109 28 C73.03 28 37.06 28 0 28 C0 18.76 0 9.52 0 0 Z " fill="#3A3D38" transform="translate(0,0)"/>
<path d="M0 0 C90.09 0 180.18 0 273 0 C273 7.26 273 14.52 273 22 C182.91 22 92.82 22 0 22 C0 14.74 0 7.48 0 0 Z " fill="#615A4C" transform="translate(0,68)"/>
<path d="M0 0 C90.09 0 180.18 0 273 0 C273 5.28 273 10.56 273 16 C182.91 16 92.82 16 0 16 C0 10.72 0 5.44 0 0 Z " fill="#544D41" transform="translate(0,221)"/>
<path d="M0 0 C90.09 0 180.18 0 273 0 C273 4.95 273 9.9 273 15 C248.77466783 15.15639719 224.54929939 15.3045721 200.32385731 15.4429636 C189.06556779 15.50746674 177.80730566 15.57449603 166.54907227 15.64819336 C111.01845213 16.01013931 55.52390446 16.00838655 0 15 C0 10.05 0 5.1 0 0 Z " fill="#454341" transform="translate(0,237)"/>
<path d="M0 0 C90.09 0 180.18 0 273 0 C273 4.95 273 9.9 273 15 C182.91 15 92.82 15 0 15 C0 10.05 0 5.1 0 0 Z " fill="#746B5B" transform="translate(0,172)"/>
<path d="M0 0 C90.09 0 180.18 0 273 0 C273 4.95 273 9.9 273 15 C182.91 15 92.82 15 0 15 C0 10.05 0 5.1 0 0 Z " fill="#595344" transform="translate(0,115)"/>
<path d="M0 0 C90.09 0 180.18 0 273 0 C273 3.63 273 7.26 273 11 C218.88 11 164.76 11 109 11 C109 10.34 109 9.68 109 9 C73.03 9 37.06 9 0 9 C0 6.03 0 3.06 0 0 Z " fill="#4E4D47" transform="translate(0,19)"/>
<path d="M0 0 C90.09 0 180.18 0 273 0 C273 2.97 273 5.94 273 9 C182.91 9 92.82 9 0 9 C0 6.03 0 3.06 0 0 Z " fill="#7D735E" transform="translate(0,130)"/>
<path d="M0 0 C90.09 0 180.18 0 273 0 C273 2.97 273 5.94 273 9 C182.91 9 92.82 9 0 9 C0 6.03 0 3.06 0 0 Z " fill="#6E6757" transform="translate(0,81)"/>
<path d="M0 0 C90.09 0 180.18 0 273 0 C273 2.64 273 5.28 273 8 C260.0083389 8.13325879 247.01665293 8.263764 234.02493286 8.39115143 C227.98633509 8.45043962 221.94774798 8.51052973 215.90917969 8.57275391 C164.11073454 9.1050735 112.33902619 9.00714203 60.54022217 8.53643799 C54.36026509 8.48048734 48.18028661 8.42697648 42.00030994 8.37324238 C28.00018282 8.25146112 14.00008258 8.1267954 0 8 C0 5.36 0 2.72 0 0 Z " fill="#3A3B37" transform="translate(0,0)"/>
<path d="M0 0 C90.09 0 180.18 0 273 0 C273 2.64 273 5.28 273 8 C182.91 8 92.82 8 0 8 C0 5.36 0 2.72 0 0 Z " fill="#5A5446" transform="translate(0,107)"/>
<path d="M0 0 C90.09 0 180.18 0 273 0 C273 2.31 273 4.62 273 7 C182.91 7 92.82 7 0 7 C0 4.69 0 2.38 0 0 Z " fill="#6B6253" transform="translate(0,214)"/>
<path d="M0 0 C90.09 0 180.18 0 273 0 C273 2.31 273 4.62 273 7 C182.91 7 92.82 7 0 7 C0 4.69 0 2.38 0 0 Z " fill="#7F7864" transform="translate(0,90)"/>
<path d="M0 0 C90.09 0 180.18 0 273 0 C273 2.31 273 4.62 273 7 C182.91 7 92.82 7 0 7 C0 4.69 0 2.38 0 0 Z " fill="#534D42" transform="translate(0,61)"/>
<path d="M0 0 C90.09 0 180.18 0 273 0 C273 2.31 273 4.62 273 7 C182.91 7 92.82 7 0 7 C0 4.69 0 2.38 0 0 Z " fill="#514F4D" transform="translate(0,252)"/>
<path d="M0 0 C90.09 0 180.18 0 273 0 C273 1.65 273 3.3 273 5 C233.35488199 5.88862176 193.73102937 6.16536732 154.07762146 6.13057256 C148.64824382 6.12581437 143.21886926 6.12350099 137.78948975 6.12231445 C91.85467684 6.11032314 45.92704851 5.92166753 0 5 C0 3.35 0 1.7 0 0 Z " fill="#403E3D" transform="translate(0,237)"/>
<path d="M0 0 C90.09 0 180.18 0 273 0 C273 1.65 273 3.3 273 5 C182.91 5 92.82 5 0 5 C0 3.35 0 1.7 0 0 Z " fill="#66625A" transform="translate(0,232)"/>
<path d="M0 0 C90.09 0 180.18 0 273 0 C273 1.65 273 3.3 273 5 C182.91 5 92.82 5 0 5 C0 3.35 0 1.7 0 0 Z " fill="#595142" transform="translate(0,147)"/>
<path d="M0 0 C90.09 0 180.18 0 273 0 C273 1.65 273 3.3 273 5 C182.91 5 92.82 5 0 5 C0 3.35 0 1.7 0 0 Z " fill="#595244" transform="translate(0,125)"/>
<path d="M0 0 C90.09 0 180.18 0 273 0 C273 1.65 273 3.3 273 5 C182.91 5 92.82 5 0 5 C0 3.35 0 1.7 0 0 Z " fill="#70675A" transform="translate(0,56)"/>
<path d="M0 0 C90.09 0 180.18 0 273 0 C273 1.65 273 3.3 273 5 C182.91 5 92.82 5 0 5 C0 3.35 0 1.7 0 0 Z " fill="#5A5B54" transform="translate(0,14)"/>
<path d="M0 0 C90.09 0 180.18 0 273 0 C273 1.65 273 3.3 273 5 C182.91 5 92.82 5 0 5 C0 3.35 0 1.7 0 0 Z " fill="#867C66" transform="translate(0,120)"/>
<path d="M0 0 C35.97 0 71.94 0 109 0 C109 0.66 109 1.32 109 2 C163.12 2 217.24 2 273 2 C273 2.99 273 3.98 273 5 C182.91 5 92.82 5 0 5 C0 3.35 0 1.7 0 0 Z " fill="#6A6860" transform="translate(0,28)"/>
<path d="M0 0 C90.09 0 180.18 0 273 0 C273 0.99 273 1.98 273 3 C182.91 3 92.82 3 0 3 C0 2.01 0 1.02 0 0 Z " fill="#373532" transform="translate(0,229)"/>
<path d="M0 0 C90.09 0 180.18 0 273 0 C273 0.99 273 1.98 273 3 C182.91 3 92.82 3 0 3 C0 2.01 0 1.02 0 0 Z " fill="#908570" transform="translate(0,214)"/>
<path d="M0 0 C90.09 0 180.18 0 273 0 C273 0.99 273 1.98 273 3 C182.91 3 92.82 3 0 3 C0 2.01 0 1.02 0 0 Z " fill="#474137" transform="translate(0,211)"/>
<path d="M0 0 C90.09 0 180.18 0 273 0 C273 0.99 273 1.98 273 3 C182.91 3 92.82 3 0 3 C0 2.01 0 1.02 0 0 Z " fill="#8F8470" transform="translate(0,208)"/>
<path d="M0 0 C90.09 0 180.18 0 273 0 C273 0.99 273 1.98 273 3 C182.91 3 92.82 3 0 3 C0 2.01 0 1.02 0 0 Z " fill="#8F8471" transform="translate(0,200)"/>
<path d="M0 0 C90.09 0 180.18 0 273 0 C273 0.99 273 1.98 273 3 C182.91 3 92.82 3 0 3 C0 2.01 0 1.02 0 0 Z " fill="#968B73" transform="translate(0,112)"/>
<path d="M0 0 C90.09 0 180.18 0 273 0 C273 0.99 273 1.98 273 3 C182.91 3 92.82 3 0 3 C0 2.01 0 1.02 0 0 Z " fill="#49453A" transform="translate(0,81)"/>
<path d="M0 0 C90.09 0 180.18 0 273 0 C273 0.99 273 1.98 273 3 C182.91 3 92.82 3 0 3 C0 2.01 0 1.02 0 0 Z " fill="#877D6B" transform="translate(0,68)"/>
<path d="M0 0 C90.09 0 180.18 0 273 0 C273 0.99 273 1.98 273 3 C182.91 3 92.82 3 0 3 C0 2.01 0 1.02 0 0 Z " fill="#60645D" transform="translate(0,0)"/>
<path d="M0 0 C90.09 0 180.18 0 273 0 C273 0.99 273 1.98 273 3 C182.91 3 92.82 3 0 3 C0 2.01 0 1.02 0 0 Z " fill="#6F6C68" transform="translate(0,256)"/>
<path d="M0 0 C90.09 0 180.18 0 273 0 C273 0.99 273 1.98 273 3 C182.91 3 92.82 3 0 3 C0 2.01 0 1.02 0 0 Z " fill="#7D7465" transform="translate(0,226)"/>
<path d="M0 0 C90.09 0 180.18 0 273 0 C273 0.99 273 1.98 273 3 C182.91 3 92.82 3 0 3 C0 2.01 0 1.02 0 0 Z " fill="#6F6B66" transform="translate(0,242)"/>
<path d="M0 0 C25.81249408 -0.03093963 51.62498996 -0.0510818 77.4375 -0.0625 C78.39125267 -0.0629343 79.34500534 -0.06336861 80.32765961 -0.06381607 C130.55410232 -0.08607126 180.77600117 -0.0406715 231 0.5 C232.11175976 0.51195782 233.22351952 0.52391563 234.36896896 0.53623581 C247.24617082 0.67601206 260.12317736 0.82881543 273 1 C273 1.66 273 2.32 273 3 C182.91 3 92.82 3 0 3 C0 2.01 0 1.02 0 0 Z " fill="#867E6B" transform="translate(0,78)"/>
<path d="M0 0 C1.05043377 -0.00001511 1.05043377 -0.00001511 2.12208843 -0.00003052 C45.41992896 0.0005924 88.71115659 0.16589548 132 1.125 C132 1.785 132 2.445 132 3.125 C41.91 3.125 -48.18 3.125 -141 3.125 C-141 2.465 -141 1.805 -141 1.125 C-94.00213411 0.2404949 -47.00516921 -0.00067606 0 0 Z " fill="#5D5B5D" transform="translate(141,233.875)"/>
<path d="M0 0 C90.09 0 180.18 0 273 0 C273 0.66 273 1.32 273 2 C258.8127103 2.18569966 244.62520188 2.34913931 230.4375 2.5 C228.76344967 2.51781588 228.76344967 2.51781588 227.05558014 2.53599167 C176.99570556 3.06122535 126.93714308 3.08545002 76.875 3.0625 C75.92235811 3.06207577 74.96971622 3.06165154 73.98820639 3.06121445 C49.32546136 3.05004699 24.66272948 3.02979689 0 3 C0 2.01 0 1.02 0 0 Z " fill="#5C605C" transform="translate(0,8)"/>
<path d="M0 0 C90.09 0 180.18 0 273 0 C273 0.99 273 1.98 273 3 C218.88 3 164.76 3 109 3 C109 2.34 109 1.68 109 1 C73.03 1 37.06 1 0 1 C0 0.67 0 0.34 0 0 Z " fill="#28231D" transform="translate(0,27)"/>
</svg>
