<?xml version="1.0" encoding="UTF-8"?>
<svg version="1.1" xmlns="http://www.w3.org/2000/svg" width="602" height="210">
<path d="M0 0 C198.66 0 397.32 0 602 0 C602 69.3 602 138.6 602 210 C403.34 210 204.68 210 0 210 C0 140.7 0 71.4 0 0 Z " fill="#070707" transform="translate(0,0)"/>
<path d="M0 0 C8.58 0 17.16 0 26 0 C24.5625 11.875 24.5625 11.875 24.11547852 15.55419922 C23.51525396 20.53513089 22.9383679 25.51310573 22.46484375 30.5078125 C22.22783126 32.99054967 21.93330158 35.32932343 21.4375 37.77734375 C20.91684338 40.4224653 20.94008071 42.86987709 21 45.5625 C21.07530355 48.95586637 20.8530806 51.72868265 20 55 C20.30027117 56.67293936 20.63557767 58.33985384 21 60 C21.0370279 61.6662553 21.04759962 63.33401319 21 65 C18.36 65.33 15.72 65.66 13 66 C13 66.33 13 66.66 13 67 C6.4 67 -0.2 67 -7 67 C-8.91710379 58.37303294 -9.9571683 51.56261131 -8 43 C-8 42.175 -8 41.35 -8 40.5 C-8 37.85111968 -7.58057968 35.58035412 -7 33 C-6.814375 32.071875 -6.62875 31.14375 -6.4375 30.1875 C-6.293125 29.465625 -6.14875 28.74375 -6 28 C-5.030625 27.87625 -4.06125 27.7525 -3.0625 27.625 C-2.051875 27.41875 -1.04125 27.2125 0 27 C0.33 26.34 0.66 25.68 1 25 C-1.31 25 -3.62 25 -6 25 C-5.67 23.35 -5.34 21.7 -5 20 C-4.030625 19.87625 -3.06125 19.7525 -2.0625 19.625 C-1.051875 19.41875 -0.04125 19.2125 1 19 C1.33 18.34 1.66 17.68 2 17 C-0.31 17 -2.62 17 -5 17 C-4.67 15.35 -4.34 13.7 -4 12 C-2.865625 11.87625 -1.73125 11.7525 -0.5625 11.625 C0.613125 11.41875 1.78875 11.2125 3 11 C3.33 10.34 3.66 9.68 4 9 C1.69 9 -0.62 9 -3 9 C-2.125 4.25 -2.125 4.25 -1 2 C-0.36191406 2.01160156 0.27617187 2.02320313 0.93359375 2.03515625 C1.75988281 2.04417969 2.58617187 2.05320312 3.4375 2.0625 C4.67306641 2.07990234 4.67306641 2.07990234 5.93359375 2.09765625 C7.99163938 2.23267348 7.99163938 2.23267348 9 1 C6.03 1 3.06 1 0 1 C0 0.67 0 0.34 0 0 Z " fill="#474747" transform="translate(196,21)"/>
<path d="M0 0 C1.25159912 0.00523682 2.50319824 0.01047363 3.79272461 0.01586914 C4.78942421 0.01799156 4.78942421 0.01799156 5.80625916 0.02015686 C7.93590735 0.02577021 10.06545175 0.03832485 12.19506836 0.05102539 C13.63582205 0.05603868 15.07657739 0.06060188 16.51733398 0.06469727 C20.05577938 0.07574394 23.59416375 0.09301747 27.13256836 0.11352539 C26.82238232 2.67632459 26.50949945 5.23874649 26.19506836 7.80102539 C26.10805664 8.52225586 26.02104492 9.24348633 25.93139648 9.98657227 C25.46897702 13.73730794 24.88448564 17.40813123 24.13256836 21.11352539 C24.13256836 21.93852539 24.13256836 22.76352539 24.13256836 23.61352539 C24.13256836 26.11352539 24.13256836 26.11352539 23.63256836 28.48852539 C23.02341963 31.24119042 23.02341963 31.24119042 23.13256836 34.61352539 C23.13256836 37.67565905 22.75775016 40.14391182 22.13256836 43.11352539 C22.13256836 43.93852539 22.13256836 44.76352539 22.13256836 45.61352539 C22.13256836 48.11352539 22.13256836 48.11352539 21.63256836 50.48852539 C21.02341963 53.24119042 21.02341963 53.24119042 21.13256836 56.61352539 C21.13256836 59.65361111 20.82440838 62.17320532 20.13256836 65.11352539 C20.13256836 65.44352539 20.13256836 65.77352539 20.13256836 66.11352539 C17.49256836 66.11352539 14.85256836 66.11352539 12.13256836 66.11352539 C12.13256836 66.77352539 12.13256836 67.43352539 12.13256836 68.11352539 C9.82256836 68.11352539 7.51256836 68.11352539 5.13256836 68.11352539 C5.08358398 67.54504883 5.03459961 66.97657227 4.98413086 66.39086914 C4.50178171 61.40936669 3.59126065 56.91862942 2.13256836 52.11352539 C1.02368795 47.46908425 0.06890676 42.79521739 -0.86743164 38.11352539 C-1.75484702 33.90829576 -2.68632279 29.74740637 -3.86743164 25.61352539 C-4.84315377 22.19849795 -5.6142154 18.78589665 -6.36352539 15.31665039 C-7.07338949 12.21305853 -7.98521655 9.17187103 -8.86743164 6.11352539 C-9.22114662 4.45106498 -9.56338486 2.78578268 -9.86743164 1.11352539 C-8.41336914 1.14446289 -8.41336914 1.14446289 -6.92993164 1.17602539 C-3.44684139 1.10494192 -3.41057975 0.13502934 0 0 Z " fill="#434343" transform="translate(276.867431640625,-0.113525390625)"/>
<path d="M0 0 C15.84 0 31.68 0 48 0 C48 5.90720331 47.44936936 7.10126128 45 12 C45 13.98 45 15.96 45 18 C28.5 18 12 18 -5 18 C-5 17.67 -5 17.34 -5 17 C-3.35 16.67 -1.7 16.34 0 16 C0.06058594 15.31292969 0.12117188 14.62585937 0.18359375 13.91796875 C0.26738281 13.01691406 0.35117187 12.11585937 0.4375 11.1875 C0.51871094 10.29417969 0.59992188 9.40085937 0.68359375 8.48046875 C1 6 1 6 2 3 C1.34 2.67 0.68 2.34 0 2 C0 1.34 0 0.68 0 0 Z " fill="#212121" transform="translate(427,0)"/>
<path d="M0 0 C6.6 0 13.2 0 20 0 C21.59816432 11.18715021 20.94767644 17.10464712 16 27 C9.4 27 2.8 27 -4 27 C-4 17.25 -4 17.25 -3 13 C-3 12.01 -3 11.02 -3 10 C-1.5459375 9.814375 -1.5459375 9.814375 -0.0625 9.625 C0.948125 9.41875 1.95875 9.2125 3 9 C3.33 8.34 3.66 7.68 4 7 C2.02 7 0.04 7 -2 7 C-2 6.67 -2 6.34 -2 6 C1.07617188 5.70703125 1.07617188 5.70703125 4.15234375 5.4140625 C5.06693359 5.20910156 5.06693359 5.20910156 6 5 C6.33 4.34 6.66 3.68 7 3 C4.36 3 1.72 3 -1 3 C-0.67 2.01 -0.34 1.02 0 0 Z " fill="#505050" transform="translate(326,21)"/>
</svg>
